<svg width="266" height="97" viewBox="0 0 266 97" fill="none" xmlns="http://www.w3.org/2000/svg">
<mask id="path-1-outside-1_36_905" maskUnits="userSpaceOnUse" x="0" y="0" width="266" height="97" fill="black">
<rect fill="white" width="266" height="97"/>
<path d="M26.7535 2.12C40.5775 2.12 51.4575 13 51.4575 26.44V69.96C51.4575 83.272 40.5775 94.28 26.7535 94.28C13.1855 94.28 2.1775 83.272 2.1775 69.96V26.44C2.1775 13 13.1855 2.12 26.7535 2.12ZM38.1455 26.568C38.1455 20.424 33.0255 15.432 26.7535 15.432C20.7375 15.432 15.4895 20.424 15.4895 26.568V69.832C15.4895 75.848 20.7375 80.84 26.7535 80.84C33.0255 80.84 38.1455 75.848 38.1455 69.832V26.568ZM143.76 3.39999V93H130.448V55.496H107.024V93H93.7125V3.39999H107.024V42.184H130.448V3.39999H143.76ZM179.756 94.28C164.78 94.28 152.748 82.248 152.748 67.4C152.748 52.552 164.78 40.52 179.756 40.52C183.212 40.52 186.668 41.288 189.868 42.568V25.672C189.868 19.528 185.004 15.176 179.116 15.176C173.228 15.176 168.876 20.04 168.364 25.672L168.236 27.208H154.924V25.672C154.924 12.36 166.316 2.12 179.116 2.12C192.044 2.12 203.18 11.208 203.18 25.16V74.824C203.18 78.152 204.844 79.432 207.788 79.432H209.324V93H203.308C199.724 93 196.524 91.592 194.348 89.416C190.764 92.36 185.388 94.28 179.756 94.28ZM179.756 81.096C183.724 81.096 187.308 79.304 189.868 76.488V58.312C187.308 55.496 183.724 53.704 179.756 53.704C172.204 53.704 166.06 59.848 166.06 67.4C166.06 74.952 172.204 81.096 179.756 81.096ZM215.062 26.312C215.062 12.872 225.942 2.12 239.254 2.12C252.694 2.12 263.574 12.872 263.574 26.312V28.104H250.39L250.262 26.312C249.75 19.528 245.27 15.304 239.254 15.304C233.238 15.304 228.374 20.168 228.374 26.312V70.088C228.374 76.104 233.238 80.968 239.254 80.968C245.27 80.968 249.75 76.872 250.262 70.088L250.39 68.296H263.702L263.574 70.088C262.55 84.04 252.694 94.28 239.254 94.28C225.942 94.28 215.062 83.4 215.062 70.088V26.312Z"/>
</mask>
<path d="M26.7535 2.12V4.12C39.4934 4.12 49.4575 14.125 49.4575 26.44H51.4575H53.4575C53.4575 11.875 41.6616 0.119995 26.7535 0.119995V2.12ZM51.4575 26.44H49.4575V69.96H51.4575H53.4575V26.44H51.4575ZM51.4575 69.96H49.4575C49.4575 82.1538 39.4866 92.28 26.7535 92.28V94.28V96.28C41.6684 96.28 53.4575 84.3902 53.4575 69.96H51.4575ZM26.7535 94.28V92.28C14.2764 92.28 4.1775 82.1538 4.1775 69.96H2.1775H0.177495C0.177495 84.3902 12.0946 96.28 26.7535 96.28V94.28ZM2.1775 69.96H4.1775V26.44H2.1775H0.177495V69.96H2.1775ZM2.1775 26.44H4.1775C4.1775 14.125 14.2696 4.12 26.7535 4.12V2.12V0.119995C12.1014 0.119995 0.177495 11.875 0.177495 26.44H2.1775ZM38.1455 26.568H40.1455C40.1455 19.2753 34.0854 13.432 26.7535 13.432V15.432V17.432C31.9656 17.432 36.1455 21.5727 36.1455 26.568H38.1455ZM26.7535 15.432V13.432C19.6776 13.432 13.4895 19.2753 13.4895 26.568H15.4895H17.4895C17.4895 21.5727 21.7974 17.432 26.7535 17.432V15.432ZM15.4895 26.568H13.4895V69.832H15.4895H17.4895V26.568H15.4895ZM15.4895 69.832H13.4895C13.4895 77.0115 19.6928 82.84 26.7535 82.84V80.84V78.84C21.7822 78.84 17.4895 74.6845 17.4895 69.832H15.4895ZM26.7535 80.84V82.84C34.0702 82.84 40.1455 77.0115 40.1455 69.832H38.1455H36.1455C36.1455 74.6845 31.9808 78.84 26.7535 78.84V80.84ZM38.1455 69.832H40.1455V26.568H38.1455H36.1455V69.832H38.1455ZM143.76 3.39999H145.76V1.39999H143.76V3.39999ZM143.76 93V95H145.76V93H143.76ZM130.448 93H128.448V95H130.448V93ZM130.448 55.496H132.448V53.496H130.448V55.496ZM107.024 55.496V53.496H105.024V55.496H107.024ZM107.024 93V95H109.024V93H107.024ZM93.7125 93H91.7125V95H93.7125V93ZM93.7125 3.39999V1.39999H91.7125V3.39999H93.7125ZM107.024 3.39999H109.024V1.39999H107.024V3.39999ZM107.024 42.184H105.024V44.184H107.024V42.184ZM130.448 42.184V44.184H132.448V42.184H130.448ZM130.448 3.39999V1.39999H128.448V3.39999H130.448ZM143.76 3.39999H141.76V93H143.76H145.76V3.39999H143.76ZM143.76 93V91H130.448V93V95H143.76V93ZM130.448 93H132.448V55.496H130.448H128.448V93H130.448ZM130.448 55.496V53.496H107.024V55.496V57.496H130.448V55.496ZM107.024 55.496H105.024V93H107.024H109.024V55.496H107.024ZM107.024 93V91H93.7125V93V95H107.024V93ZM93.7125 93H95.7125V3.39999H93.7125H91.7125V93H93.7125ZM93.7125 3.39999V5.39999H107.024V3.39999V1.39999H93.7125V3.39999ZM107.024 3.39999H105.024V42.184H107.024H109.024V3.39999H107.024ZM107.024 42.184V44.184H130.448V42.184V40.184H107.024V42.184ZM130.448 42.184H132.448V3.39999H130.448H128.448V42.184H130.448ZM130.448 3.39999V5.39999H143.76V3.39999V1.39999H130.448V3.39999ZM189.868 42.568L189.125 44.425L191.868 45.5221V42.568H189.868ZM168.364 25.672L166.372 25.4909L166.371 25.4984L166.37 25.5059L168.364 25.672ZM168.236 27.208V29.208H170.076L170.229 27.3741L168.236 27.208ZM154.924 27.208H152.924V29.208H154.924V27.208ZM209.324 79.432H211.324V77.432H209.324V79.432ZM209.324 93V95H211.324V93H209.324ZM194.348 89.416L195.762 88.0018L194.479 86.7194L193.078 87.8705L194.348 89.416ZM189.868 76.488L191.347 77.8333L191.868 77.2612V76.488H189.868ZM189.868 58.312H191.868V57.5388L191.347 56.9666L189.868 58.312ZM179.756 94.28V92.28C165.878 92.28 154.748 81.1372 154.748 67.4H152.748H150.748C150.748 83.3588 163.681 96.28 179.756 96.28V94.28ZM152.748 67.4H154.748C154.748 53.6628 165.878 42.52 179.756 42.52V40.52V38.52C163.681 38.52 150.748 51.4412 150.748 67.4H152.748ZM179.756 40.52V42.52C182.919 42.52 186.123 43.2244 189.125 44.425L189.868 42.568L190.61 40.711C187.212 39.3516 183.504 38.52 179.756 38.52V40.52ZM189.868 42.568H191.868V25.672H189.868H187.868V42.568H189.868ZM189.868 25.672H191.868C191.868 18.3296 186.012 13.176 179.116 13.176V15.176V17.176C183.995 17.176 187.868 20.7264 187.868 25.672H189.868ZM179.116 15.176V13.176C172.005 13.176 166.959 19.0276 166.372 25.4909L168.364 25.672L170.355 25.8531C170.792 21.0524 174.45 17.176 179.116 17.176V15.176ZM168.364 25.672L166.37 25.5059L166.242 27.0419L168.236 27.208L170.229 27.3741L170.357 25.8381L168.364 25.672ZM168.236 27.208V25.208H154.924V27.208V29.208H168.236V27.208ZM154.924 27.208H156.924V25.672H154.924H152.924V27.208H154.924ZM154.924 25.672H156.924C156.924 13.5607 167.321 4.12 179.116 4.12V2.12V0.119995C165.31 0.119995 152.924 11.1593 152.924 25.672H154.924ZM179.116 2.12V4.12C191.115 4.12 201.18 12.4805 201.18 25.16H203.18H205.18C205.18 9.93545 192.972 0.119995 179.116 0.119995V2.12ZM203.18 25.16H201.18V74.824H203.18H205.18V25.16H203.18ZM203.18 74.824H201.18C201.18 76.795 201.674 78.5798 203.011 79.8341C204.322 81.0652 206.073 81.432 207.788 81.432V79.432V77.432C206.558 77.432 206.005 77.1588 205.748 76.9179C205.517 76.7002 205.18 76.181 205.18 74.824H203.18ZM207.788 79.432V81.432H209.324V79.432V77.432H207.788V79.432ZM209.324 79.432H207.324V93H209.324H211.324V79.432H209.324ZM209.324 93V91H203.308V93V95H209.324V93ZM203.308 93V91C200.245 91 197.556 89.7963 195.762 88.0018L194.348 89.416L192.933 90.8302C195.491 93.3877 199.202 95 203.308 95V93ZM194.348 89.416L193.078 87.8705C189.887 90.492 184.972 92.28 179.756 92.28V94.28V96.28C185.803 96.28 191.64 94.228 195.617 90.9615L194.348 89.416ZM179.756 81.096V83.096C184.346 83.096 188.45 81.0207 191.347 77.8333L189.868 76.488L188.388 75.1427C186.165 77.5873 183.101 79.096 179.756 79.096V81.096ZM189.868 76.488H191.868V58.312H189.868H187.868V76.488H189.868ZM189.868 58.312L191.347 56.9666C188.45 53.7793 184.346 51.704 179.756 51.704V53.704V55.704C183.101 55.704 186.165 57.2127 188.388 59.6573L189.868 58.312ZM179.756 53.704V51.704C171.099 51.704 164.06 58.7434 164.06 67.4H166.06H168.06C168.06 60.9526 173.308 55.704 179.756 55.704V53.704ZM166.06 67.4H164.06C164.06 76.0566 171.099 83.096 179.756 83.096V81.096V79.096C173.308 79.096 168.06 73.8474 168.06 67.4H166.06ZM263.574 28.104V30.104H265.574V28.104H263.574ZM250.39 28.104L248.396 28.2465L248.528 30.104H250.39V28.104ZM250.262 26.312L252.257 26.1695L252.257 26.1615L250.262 26.312ZM250.262 70.088L252.257 70.2385L252.257 70.2305L250.262 70.088ZM250.39 68.296V66.296H248.528L248.396 68.1535L250.39 68.296ZM263.702 68.296L265.697 68.4385L265.85 66.296H263.702V68.296ZM263.574 70.088L265.569 70.2344L265.569 70.2305L263.574 70.088ZM215.062 26.312H217.062C217.062 13.9835 227.04 4.12 239.254 4.12V2.12V0.119995C224.845 0.119995 213.062 11.7605 213.062 26.312H215.062ZM239.254 2.12V4.12C251.604 4.12 261.574 13.9903 261.574 26.312H263.574H265.574C265.574 11.7537 253.785 0.119995 239.254 0.119995V2.12ZM263.574 26.312H261.574V28.104H263.574H265.574V26.312H263.574ZM263.574 28.104V26.104H250.39V28.104V30.104H263.574V28.104ZM250.39 28.104L252.385 27.9615L252.257 26.1695L250.262 26.312L248.268 26.4545L248.396 28.2465L250.39 28.104ZM250.262 26.312L252.257 26.1615C251.97 22.3601 250.555 19.1298 248.225 16.838C245.888 14.54 242.749 13.304 239.254 13.304V15.304V17.304C241.776 17.304 243.885 18.18 245.42 19.6899C246.962 21.2062 248.043 23.4799 248.268 26.4625L250.262 26.312ZM239.254 15.304V13.304C232.119 13.304 226.374 19.0787 226.374 26.312H228.374H230.374C230.374 21.2573 234.358 17.304 239.254 17.304V15.304ZM228.374 26.312H226.374V70.088H228.374H230.374V26.312H228.374ZM228.374 70.088H226.374C226.374 77.2086 232.134 82.968 239.254 82.968V80.968V78.968C234.343 78.968 230.374 74.9994 230.374 70.088H228.374ZM239.254 80.968V82.968C242.731 82.968 245.869 81.7759 248.213 79.5098C250.552 77.2474 251.97 74.0427 252.257 70.2385L250.262 70.088L248.268 69.9375C248.043 72.9173 246.965 75.1526 245.432 76.6342C243.904 78.1121 241.794 78.968 239.254 78.968V80.968ZM250.262 70.088L252.257 70.2305L252.385 68.4385L250.39 68.296L248.396 68.1535L248.268 69.9455L250.262 70.088ZM250.39 68.296V70.296H263.702V68.296V66.296H250.39V68.296ZM263.702 68.296L261.708 68.1535L261.58 69.9455L263.574 70.088L265.569 70.2305L265.697 68.4385L263.702 68.296ZM263.574 70.088L261.58 69.9416C260.622 82.9983 251.503 92.28 239.254 92.28V94.28V96.28C253.886 96.28 264.479 85.0817 265.569 70.2344L263.574 70.088ZM239.254 94.28V92.28C227.047 92.28 217.062 82.2954 217.062 70.088H215.062H213.062C213.062 84.5046 224.838 96.28 239.254 96.28V94.28ZM215.062 70.088H217.062V26.312H215.062H213.062V70.088H215.062Z" fill="#342A1E" mask="url(#path-1-outside-1_36_905)"/>
</svg>
