<svg width="487" height="75" viewBox="0 0 487 75" fill="none" xmlns="http://www.w3.org/2000/svg">
<mask id="path-1-outside-1_249_5" maskUnits="userSpaceOnUse" x="0.5" y="0" width="486" height="75" fill="black">
<rect fill="white" x="0.5" width="486" height="75"/>
<path d="M22.9304 71.96C11.6984 71.96 2.67438 62.936 2.67438 51.8C2.67438 40.664 11.6984 31.64 22.9304 31.64C25.5224 31.64 28.1144 32.216 30.5144 33.176V20.504C30.5144 15.896 26.8664 12.632 22.4504 12.632C18.0344 12.632 14.7704 16.28 14.3864 20.504L14.2904 21.656H4.30638V20.504C4.30638 10.52 12.8504 2.84 22.4504 2.84C32.1464 2.84 40.4984 9.65599 40.4984 20.12V57.368C40.4984 59.864 41.7464 60.824 43.9544 60.824H45.1064V71H40.5944C37.9064 71 35.5064 69.944 33.8744 68.312C31.1864 70.52 27.1544 71.96 22.9304 71.96ZM22.9304 62.072C25.9064 62.072 28.5944 60.728 30.5144 58.616V44.984C28.5944 42.872 25.9064 41.528 22.9304 41.528C17.2664 41.528 12.6584 46.136 12.6584 51.8C12.6584 57.464 17.2664 62.072 22.9304 62.072ZM69.2826 61.016C74.5626 61.016 78.5946 57.272 78.5946 51.512C78.5946 45.368 74.5626 41.816 69.2826 41.816H60.3546V61.016H69.2826ZM69.4746 31.736C74.5626 31.736 78.5946 28.376 78.5946 22.52C78.5946 17.144 74.5626 13.784 69.4746 13.784H60.3546V31.736H69.4746ZM69.8586 71H50.3706V3.8H70.0506C80.5146 3.8 88.4826 11.768 88.6746 22.328C88.7706 28.376 86.1786 33.08 81.9546 36.44C86.2746 39.896 88.7706 46.04 88.6746 52.184C88.4826 62.648 80.3226 71 69.8586 71ZM128.551 3.8V13.784H115.591V71H105.607V13.784H92.5506V3.8H128.551ZM151.284 2.84C161.652 2.84 169.812 11 169.812 21.08V53.72C169.812 63.704 161.652 71.96 151.284 71.96C141.108 71.96 132.852 63.704 132.852 53.72V21.08C132.852 11 141.108 2.84 151.284 2.84ZM159.828 21.176C159.828 16.568 155.988 12.824 151.284 12.824C146.772 12.824 142.836 16.568 142.836 21.176V53.624C142.836 58.136 146.772 61.88 151.284 61.88C155.988 61.88 159.828 58.136 159.828 53.624V21.176ZM195.141 3.704C205.605 3.704 214.053 12.152 214.053 22.616C214.053 32.984 205.605 41.432 195.141 41.432H186.501V71H176.517V3.704H195.141ZM195.141 31.448C200.037 31.448 204.069 27.512 204.069 22.616C204.069 17.624 200.037 13.688 195.141 13.688H186.501V31.448H195.141ZM217.887 51.8V3.8H227.871V51.8C227.871 57.176 232.191 61.496 237.471 61.496C243.135 61.496 247.167 56.888 247.167 51.896V3.8H257.151V57.56C257.151 60.44 258.399 61.784 260.607 61.784H261.759V71.96H257.151C253.887 71.96 250.911 70.328 249.087 67.832C245.727 70.424 242.079 71.96 237.471 71.96C226.911 71.96 217.887 63.8 217.887 51.8ZM292.235 37.4C297.515 40.76 300.971 46.712 300.971 53.24C300.971 63.224 292.907 72.056 282.827 72.056C272.843 72.056 264.683 63.224 264.683 53.24H274.667C274.667 57.752 278.315 61.592 282.827 61.592C287.339 61.592 290.987 57.752 290.987 53.24C290.987 48.728 287.339 45.272 282.827 45.272V29.048C287.339 29.048 290.987 25.4 290.987 20.888C290.987 16.376 287.339 12.728 282.827 12.728C278.315 12.728 274.667 16.376 274.667 20.888H264.683C264.683 10.904 272.843 2.744 282.827 2.744C292.907 2.744 300.971 10.904 300.971 20.888C300.971 27.512 297.515 34.04 292.235 37.4ZM325.147 71.96C313.915 71.96 304.891 62.936 304.891 51.8C304.891 40.664 313.915 31.64 325.147 31.64C327.739 31.64 330.331 32.216 332.731 33.176V20.504C332.731 15.896 329.083 12.632 324.667 12.632C320.251 12.632 316.987 16.28 316.603 20.504L316.507 21.656H306.523V20.504C306.523 10.52 315.067 2.84 324.667 2.84C334.363 2.84 342.715 9.65599 342.715 20.12V57.368C342.715 59.864 343.963 60.824 346.171 60.824H347.323V71H342.811C340.123 71 337.723 69.944 336.091 68.312C333.403 70.52 329.371 71.96 325.147 71.96ZM325.147 62.072C328.123 62.072 330.811 60.728 332.731 58.616V44.984C330.811 42.872 328.123 41.528 325.147 41.528C319.483 41.528 314.875 46.136 314.875 51.8C314.875 57.464 319.483 62.072 325.147 62.072ZM352.587 59V3.8H362.571V58.616C362.571 59.96 363.723 61.016 365.067 61.016H379.083V3.8H389.067V61.016H394.731V71H364.587C357.099 71 352.587 66.008 352.587 59ZM399.019 51.8V3.8H409.003V51.8C409.003 57.176 413.323 61.496 418.603 61.496C424.267 61.496 428.299 56.888 428.299 51.896V3.8H438.283V57.56C438.283 60.44 439.531 61.784 441.739 61.784H442.891V71.96H438.283C435.019 71.96 432.043 70.328 430.219 67.832C426.859 70.424 423.211 71.96 418.603 71.96C408.043 71.96 399.019 63.8 399.019 51.8ZM459.832 39.896C452.344 37.592 446.872 30.584 446.872 22.232C446.872 12.056 455.128 3.8 465.208 3.8H484.408V71H474.424V41.528H469.624L457.528 71H446.776L459.832 39.896ZM456.856 22.616C456.856 27.512 460.888 31.544 465.784 31.544H474.712V13.784H465.784C460.888 13.784 456.856 17.72 456.856 22.616Z"/>
</mask>
<path d="M30.5144 33.176L29.7716 35.033L32.5144 36.1301V33.176H30.5144ZM14.3864 20.504L12.3946 20.3229L12.3939 20.3304L12.3933 20.3379L14.3864 20.504ZM14.2904 21.656V23.656H16.1307L16.2835 21.8221L14.2904 21.656ZM4.30638 21.656H2.30638V23.656H4.30638V21.656ZM45.1064 60.824H47.1064V58.824H45.1064V60.824ZM45.1064 71V73H47.1064V71H45.1064ZM33.8744 68.312L35.2886 66.8978L34.0062 65.6154L32.6049 66.7665L33.8744 68.312ZM30.5144 58.616L31.9943 59.9613L32.5144 59.3892V58.616H30.5144ZM30.5144 44.984H32.5144V44.2108L31.9943 43.6387L30.5144 44.984ZM22.9304 71.96V69.96C12.7968 69.96 4.67438 61.8252 4.67438 51.8H2.67438H0.674381C0.674381 64.0468 10.6 73.96 22.9304 73.96V71.96ZM2.67438 51.8H4.67438C4.67438 41.7748 12.7968 33.64 22.9304 33.64V31.64V29.64C10.6 29.64 0.674381 39.5532 0.674381 51.8H2.67438ZM22.9304 31.64V33.64C25.2303 33.64 27.5702 34.1524 29.7716 35.033L30.5144 33.176L31.2572 31.319C28.6586 30.2796 25.8144 29.64 22.9304 29.64V31.64ZM30.5144 33.176H32.5144V20.504H30.5144H28.5144V33.176H30.5144ZM30.5144 20.504H32.5144C32.5144 14.6976 27.8747 10.632 22.4504 10.632V12.632V14.632C25.8581 14.632 28.5144 17.0944 28.5144 20.504H30.5144ZM22.4504 12.632V10.632C16.8117 10.632 12.8542 15.2676 12.3946 20.3229L14.3864 20.504L16.3782 20.6851C16.6866 17.2924 19.257 14.632 22.4504 14.632V12.632ZM14.3864 20.504L12.3933 20.3379L12.2973 21.4899L14.2904 21.656L16.2835 21.8221L16.3795 20.6701L14.3864 20.504ZM14.2904 21.656V19.656H4.30638V21.656V23.656H14.2904V21.656ZM4.30638 21.656H6.30638V20.504H4.30638H2.30638V21.656H4.30638ZM4.30638 20.504H6.30638C6.30638 11.7207 13.8563 4.84 22.4504 4.84V2.84V0.839996C11.8444 0.839996 2.30638 9.3193 2.30638 20.504H4.30638ZM22.4504 2.84V4.84C31.2176 4.84 38.4984 10.9285 38.4984 20.12H40.4984H42.4984C42.4984 8.38345 33.0751 0.839996 22.4504 0.839996V2.84ZM40.4984 20.12H38.4984V57.368H40.4984H42.4984V20.12H40.4984ZM40.4984 57.368H38.4984C38.4984 58.923 38.8893 60.4198 40.0295 61.4901C41.1449 62.5372 42.6074 62.824 43.9544 62.824V60.824V58.824C43.0933 58.824 42.8279 58.6308 42.7673 58.5739C42.7314 58.5402 42.4984 58.309 42.4984 57.368H40.4984ZM43.9544 60.824V62.824H45.1064V60.824V58.824H43.9544V60.824ZM45.1064 60.824H43.1064V71H45.1064H47.1064V60.824H45.1064ZM45.1064 71V69H40.5944V71V73H45.1064V71ZM40.5944 71V69C38.4277 69 36.5391 68.1483 35.2886 66.8978L33.8744 68.312L32.4602 69.7262C34.4737 71.7397 37.3851 73 40.5944 73V71ZM33.8744 68.312L32.6049 66.7665C30.3096 68.652 26.7387 69.96 22.9304 69.96V71.96V73.96C27.5701 73.96 32.0632 72.388 35.1439 69.8575L33.8744 68.312ZM22.9304 62.072V64.072C26.5287 64.072 29.7367 62.4447 31.9943 59.9613L30.5144 58.616L29.0345 57.2707C27.4521 59.0113 25.2841 60.072 22.9304 60.072V62.072ZM30.5144 58.616H32.5144V44.984H30.5144H28.5144V58.616H30.5144ZM30.5144 44.984L31.9943 43.6387C29.7367 41.1553 26.5287 39.528 22.9304 39.528V41.528V43.528C25.2841 43.528 27.4521 44.5887 29.0345 46.3293L30.5144 44.984ZM22.9304 41.528V39.528C16.1618 39.528 10.6584 45.0314 10.6584 51.8H12.6584H14.6584C14.6584 47.2406 18.371 43.528 22.9304 43.528V41.528ZM12.6584 51.8H10.6584C10.6584 58.5686 16.1618 64.072 22.9304 64.072V62.072V60.072C18.371 60.072 14.6584 56.3594 14.6584 51.8H12.6584ZM60.3546 41.816V39.816H58.3546V41.816H60.3546ZM60.3546 61.016H58.3546V63.016H60.3546V61.016ZM60.3546 13.784V11.784H58.3546V13.784H60.3546ZM60.3546 31.736H58.3546V33.736H60.3546V31.736ZM50.3706 71H48.3706V73H50.3706V71ZM50.3706 3.8V1.8H48.3706V3.8H50.3706ZM88.6746 22.328L90.6744 22.2963L90.6743 22.2916L88.6746 22.328ZM81.9546 36.44L80.7096 34.8748L78.7475 36.4355L80.7052 38.0017L81.9546 36.44ZM88.6746 52.184L90.6743 52.2207L90.6744 52.2152L88.6746 52.184ZM69.2826 61.016V63.016C72.4037 63.016 75.2531 61.903 77.3277 59.8433C79.4079 57.7781 80.5946 54.8751 80.5946 51.512H78.5946H76.5946C76.5946 53.9089 75.7654 55.7579 74.5095 57.0047C73.2482 58.257 71.4416 59.016 69.2826 59.016V61.016ZM78.5946 51.512H80.5946C80.5946 47.9883 79.428 45.0258 77.3277 42.9407C75.235 40.863 72.3755 39.816 69.2826 39.816V41.816V43.816C71.4697 43.816 73.2663 44.545 74.5095 45.7793C75.7453 47.0062 76.5946 48.8917 76.5946 51.512H78.5946ZM69.2826 41.816V39.816H60.3546V41.816V43.816H69.2826V41.816ZM60.3546 41.816H58.3546V61.016H60.3546H62.3546V41.816H60.3546ZM60.3546 61.016V63.016H69.2826V61.016V59.016H60.3546V61.016ZM69.4746 31.736V33.736C72.4577 33.736 75.2572 32.7466 77.3248 30.7695C79.408 28.7776 80.5946 25.9291 80.5946 22.52H78.5946H76.5946C76.5946 24.9668 75.7653 26.7264 74.5604 27.8785C73.3401 29.0454 71.5796 29.736 69.4746 29.736V31.736ZM78.5946 22.52H80.5946C80.5946 19.3017 79.3733 16.5739 77.2965 14.6639C75.2385 12.7711 72.4556 11.784 69.4746 11.784V13.784V15.784C71.5816 15.784 73.3588 16.4769 74.5888 17.6081C75.8 18.7221 76.5946 20.3623 76.5946 22.52H78.5946ZM69.4746 13.784V11.784H60.3546V13.784V15.784H69.4746V13.784ZM60.3546 13.784H58.3546V31.736H60.3546H62.3546V13.784H60.3546ZM60.3546 31.736V33.736H69.4746V31.736V29.736H60.3546V31.736ZM69.8586 71V69H50.3706V71V73H69.8586V71ZM50.3706 71H52.3706V3.8H50.3706H48.3706V71H50.3706ZM50.3706 3.8V5.8H70.0506V3.8V1.8H50.3706V3.8ZM70.0506 3.8V5.8C79.3971 5.8 86.5023 12.8673 86.675 22.3644L88.6746 22.328L90.6743 22.2916C90.463 10.6687 81.6321 1.8 70.0506 1.8V3.8ZM88.6746 22.328L86.6749 22.3597C86.7602 27.7344 84.4907 31.8671 80.7096 34.8748L81.9546 36.44L83.1997 38.0052C87.8666 34.2929 90.7811 29.0176 90.6744 22.2963L88.6746 22.328ZM81.9546 36.44L80.7052 38.0017C84.4497 40.9973 86.7632 46.4982 86.6749 52.1528L88.6746 52.184L90.6744 52.2152C90.778 45.5818 88.0996 38.7947 83.204 34.8783L81.9546 36.44ZM88.6746 52.184L86.675 52.1473C86.5021 61.5691 79.1851 69 69.8586 69V71V73C81.4601 73 90.4632 63.7269 90.6743 52.2207L88.6746 52.184ZM128.551 3.8H130.551V1.8H128.551V3.8ZM128.551 13.784V15.784H130.551V13.784H128.551ZM115.591 13.784V11.784H113.591V13.784H115.591ZM115.591 71V73H117.591V71H115.591ZM105.607 71H103.607V73H105.607V71ZM105.607 13.784H107.607V11.784H105.607V13.784ZM92.5506 13.784H90.5506V15.784H92.5506V13.784ZM92.5506 3.8V1.8H90.5506V3.8H92.5506ZM128.551 3.8H126.551V13.784H128.551H130.551V3.8H128.551ZM128.551 13.784V11.784H115.591V13.784V15.784H128.551V13.784ZM115.591 13.784H113.591V71H115.591H117.591V13.784H115.591ZM115.591 71V69H105.607V71V73H115.591V71ZM105.607 71H107.607V13.784H105.607H103.607V71H105.607ZM105.607 13.784V11.784H92.5506V13.784V15.784H105.607V13.784ZM92.5506 13.784H94.5506V3.8H92.5506H90.5506V13.784H92.5506ZM92.5506 3.8V5.8H128.551V3.8V1.8H92.5506V3.8ZM151.284 2.84V4.84C160.568 4.84 167.812 12.125 167.812 21.08H169.812H171.812C171.812 9.87503 162.736 0.839996 151.284 0.839996V2.84ZM169.812 21.08H167.812V53.72H169.812H171.812V21.08H169.812ZM169.812 53.72H167.812C167.812 62.5858 160.561 69.96 151.284 69.96V71.96V73.96C162.743 73.96 171.812 64.8222 171.812 53.72H169.812ZM151.284 71.96V69.96C142.199 69.96 134.852 62.5858 134.852 53.72H132.852H130.852C130.852 64.8222 140.017 73.96 151.284 73.96V71.96ZM132.852 53.72H134.852V21.08H132.852H130.852V53.72H132.852ZM132.852 21.08H134.852C134.852 12.125 142.192 4.84 151.284 4.84V2.84V0.839996C140.024 0.839996 130.852 9.87503 130.852 21.08H132.852ZM159.828 21.176H161.828C161.828 15.4193 157.048 10.824 151.284 10.824V12.824V14.824C154.928 14.824 157.828 17.7167 157.828 21.176H159.828ZM151.284 12.824V10.824C145.712 10.824 140.836 15.4193 140.836 21.176H142.836H144.836C144.836 17.7167 147.832 14.824 151.284 14.824V12.824ZM142.836 21.176H140.836V53.624H142.836H144.836V21.176H142.836ZM142.836 53.624H140.836C140.836 59.2995 145.727 63.88 151.284 63.88V61.88V59.88C147.817 59.88 144.836 56.9725 144.836 53.624H142.836ZM151.284 61.88V63.88C157.033 63.88 161.828 59.2995 161.828 53.624H159.828H157.828C157.828 56.9725 154.943 59.88 151.284 59.88V61.88ZM159.828 53.624H161.828V21.176H159.828H157.828V53.624H159.828ZM186.501 41.432V39.432H184.501V41.432H186.501ZM186.501 71V73H188.501V71H186.501ZM176.517 71H174.517V73H176.517V71ZM176.517 3.704V1.704H174.517V3.704H176.517ZM186.501 13.688V11.688H184.501V13.688H186.501ZM186.501 31.448H184.501V33.448H186.501V31.448ZM195.141 3.704V5.704C204.5 5.704 212.053 13.2566 212.053 22.616H214.053H216.053C216.053 11.0474 206.709 1.704 195.141 1.704V3.704ZM214.053 22.616H212.053C212.053 31.8728 204.507 39.432 195.141 39.432V41.432V43.432C206.703 43.432 216.053 34.0952 216.053 22.616H214.053ZM195.141 41.432V39.432H186.501V41.432V43.432H195.141V41.432ZM186.501 41.432H184.501V71H186.501H188.501V41.432H186.501ZM186.501 71V69H176.517V71V73H186.501V71ZM176.517 71H178.517V3.704H176.517H174.517V71H176.517ZM176.517 3.704V5.704H195.141V3.704V1.704H176.517V3.704ZM195.141 31.448V33.448C201.113 33.448 206.069 28.6446 206.069 22.616H204.069H202.069C202.069 26.3794 198.961 29.448 195.141 29.448V31.448ZM204.069 22.616H206.069C206.069 16.5054 201.127 11.688 195.141 11.688V13.688V15.688C198.946 15.688 202.069 18.7426 202.069 22.616H204.069ZM195.141 13.688V11.688H186.501V13.688V15.688H195.141V13.688ZM186.501 13.688H184.501V31.448H186.501H188.501V13.688H186.501ZM186.501 31.448V33.448H195.141V31.448V29.448H186.501V31.448ZM217.887 3.8V1.8H215.887V3.8H217.887ZM227.871 3.8H229.871V1.8H227.871V3.8ZM247.167 3.8V1.8H245.167V3.8H247.167ZM257.151 3.8H259.151V1.8H257.151V3.8ZM261.759 61.784H263.759V59.784H261.759V61.784ZM261.759 71.96V73.96H263.759V71.96H261.759ZM249.087 67.832L250.702 66.652L249.491 64.9947L247.865 66.2484L249.087 67.832ZM217.887 51.8H219.887V3.8H217.887H215.887V51.8H217.887ZM217.887 3.8V5.8H227.871V3.8V1.8H217.887V3.8ZM227.871 3.8H225.871V51.8H227.871H229.871V3.8H227.871ZM227.871 51.8H225.871C225.871 58.2676 231.073 63.496 237.471 63.496V61.496V59.496C233.308 59.496 229.871 56.0844 229.871 51.8H227.871ZM237.471 61.496V63.496C244.304 63.496 249.167 57.9272 249.167 51.896H247.167H245.167C245.167 55.8488 241.966 59.496 237.471 59.496V61.496ZM247.167 51.896H249.167V3.8H247.167H245.167V51.896H247.167ZM247.167 3.8V5.8H257.151V3.8V1.8H247.167V3.8ZM257.151 3.8H255.151V57.56H257.151H259.151V3.8H257.151ZM257.151 57.56H255.151C255.151 59.2454 255.51 60.8437 256.523 62.0427C257.588 63.303 259.082 63.784 260.607 63.784V61.784V59.784C259.923 59.784 259.69 59.593 259.579 59.4613C259.416 59.2683 259.151 58.7546 259.151 57.56H257.151ZM260.607 61.784V63.784H261.759V61.784V59.784H260.607V61.784ZM261.759 61.784H259.759V71.96H261.759H263.759V61.784H261.759ZM261.759 71.96V69.96H257.151V71.96V73.96H261.759V71.96ZM257.151 71.96V69.96C254.558 69.96 252.169 68.6596 250.702 66.652L249.087 67.832L247.472 69.012C249.653 71.9964 253.216 73.96 257.151 73.96V71.96ZM249.087 67.832L247.865 66.2484C244.793 68.6183 241.564 69.96 237.471 69.96V71.96V73.96C242.593 73.96 246.661 72.2297 250.308 69.4156L249.087 67.832ZM237.471 71.96V69.96C227.996 69.96 219.887 62.6764 219.887 51.8H217.887H215.887C215.887 64.9236 225.825 73.96 237.471 73.96V71.96ZM292.235 37.4L291.161 35.7127L288.51 37.4L291.161 39.0873L292.235 37.4ZM264.683 53.24V51.24H262.683V53.24H264.683ZM274.667 53.24H276.667V51.24H274.667V53.24ZM282.827 45.272H280.827V47.272H282.827V45.272ZM282.827 29.048V27.048H280.827V29.048H282.827ZM274.667 20.888V22.888H276.667V20.888H274.667ZM264.683 20.888H262.683V22.888H264.683V20.888ZM292.235 37.4L291.161 39.0873C295.885 42.0935 298.971 47.4201 298.971 53.24H300.971H302.971C302.971 46.0039 299.145 39.4265 293.309 35.7127L292.235 37.4ZM300.971 53.24H298.971C298.971 62.2216 291.703 70.056 282.827 70.056V72.056V74.056C294.111 74.056 302.971 64.2264 302.971 53.24H300.971ZM282.827 72.056V70.056C274.04 70.056 266.683 62.2145 266.683 53.24H264.683H262.683C262.683 64.2335 271.646 74.056 282.827 74.056V72.056ZM264.683 53.24V55.24H274.667V53.24V51.24H264.683V53.24ZM274.667 53.24H272.667C272.667 58.7958 277.151 63.592 282.827 63.592V61.592V59.592C279.48 59.592 276.667 56.7082 276.667 53.24H274.667ZM282.827 61.592V63.592C288.504 63.592 292.987 58.7958 292.987 53.24H290.987H288.987C288.987 56.7082 286.175 59.592 282.827 59.592V61.592ZM290.987 53.24H292.987C292.987 47.5616 288.381 43.272 282.827 43.272V45.272V47.272C286.297 47.272 288.987 49.8944 288.987 53.24H290.987ZM282.827 45.272H284.827V29.048H282.827H280.827V45.272H282.827ZM282.827 29.048V31.048C288.444 31.048 292.987 26.5046 292.987 20.888H290.987H288.987C288.987 24.2954 286.235 27.048 282.827 27.048V29.048ZM290.987 20.888H292.987C292.987 15.2714 288.444 10.728 282.827 10.728V12.728V14.728C286.235 14.728 288.987 17.4806 288.987 20.888H290.987ZM282.827 12.728V10.728C277.211 10.728 272.667 15.2714 272.667 20.888H274.667H276.667C276.667 17.4806 279.42 14.728 282.827 14.728V12.728ZM274.667 20.888V18.888H264.683V20.888V22.888H274.667V20.888ZM264.683 20.888H266.683C266.683 12.0086 273.948 4.744 282.827 4.744V2.744V0.743998C271.739 0.743998 262.683 9.79943 262.683 20.888H264.683ZM282.827 2.744V4.744C291.796 4.744 298.971 12.0017 298.971 20.888H300.971H302.971C302.971 9.80633 294.019 0.743998 282.827 0.743998V2.744ZM300.971 20.888H298.971C298.971 26.8755 295.826 32.7445 291.161 35.7127L292.235 37.4L293.309 39.0873C299.205 35.3355 302.971 28.1485 302.971 20.888H300.971ZM332.731 33.176L331.988 35.033L334.731 36.1301V33.176H332.731ZM316.603 20.504L314.611 20.3229L314.61 20.3304L314.61 20.3379L316.603 20.504ZM316.507 21.656V23.656H318.347L318.5 21.8221L316.507 21.656ZM306.523 21.656H304.523V23.656H306.523V21.656ZM347.323 60.824H349.323V58.824H347.323V60.824ZM347.323 71V73H349.323V71H347.323ZM336.091 68.312L337.505 66.8978L336.222 65.6154L334.821 66.7665L336.091 68.312ZM332.731 58.616L334.211 59.9613L334.731 59.3892V58.616H332.731ZM332.731 44.984H334.731V44.2108L334.211 43.6387L332.731 44.984ZM325.147 71.96V69.96C315.013 69.96 306.891 61.8252 306.891 51.8H304.891H302.891C302.891 64.0468 312.816 73.96 325.147 73.96V71.96ZM304.891 51.8H306.891C306.891 41.7748 315.013 33.64 325.147 33.64V31.64V29.64C312.816 29.64 302.891 39.5532 302.891 51.8H304.891ZM325.147 31.64V33.64C327.447 33.64 329.786 34.1524 331.988 35.033L332.731 33.176L333.473 31.319C330.875 30.2796 328.031 29.64 325.147 29.64V31.64ZM332.731 33.176H334.731V20.504H332.731H330.731V33.176H332.731ZM332.731 20.504H334.731C334.731 14.6976 330.091 10.632 324.667 10.632V12.632V14.632C328.074 14.632 330.731 17.0944 330.731 20.504H332.731ZM324.667 12.632V10.632C319.028 10.632 315.07 15.2676 314.611 20.3229L316.603 20.504L318.594 20.6851C318.903 17.2924 321.473 14.632 324.667 14.632V12.632ZM316.603 20.504L314.61 20.3379L314.514 21.4899L316.507 21.656L318.5 21.8221L318.596 20.6701L316.603 20.504ZM316.507 21.656V19.656H306.523V21.656V23.656H316.507V21.656ZM306.523 21.656H308.523V20.504H306.523H304.523V21.656H306.523ZM306.523 20.504H308.523C308.523 11.7207 316.073 4.84 324.667 4.84V2.84V0.839996C314.061 0.839996 304.523 9.3193 304.523 20.504H306.523ZM324.667 2.84V4.84C333.434 4.84 340.715 10.9285 340.715 20.12H342.715H344.715C344.715 8.38345 335.291 0.839996 324.667 0.839996V2.84ZM342.715 20.12H340.715V57.368H342.715H344.715V20.12H342.715ZM342.715 57.368H340.715C340.715 58.923 341.106 60.4198 342.246 61.4901C343.361 62.5372 344.824 62.824 346.171 62.824V60.824V58.824C345.31 58.824 345.044 58.6308 344.984 58.5739C344.948 58.5402 344.715 58.309 344.715 57.368H342.715ZM346.171 60.824V62.824H347.323V60.824V58.824H346.171V60.824ZM347.323 60.824H345.323V71H347.323H349.323V60.824H347.323ZM347.323 71V69H342.811V71V73H347.323V71ZM342.811 71V69C340.644 69 338.755 68.1483 337.505 66.8978L336.091 68.312L334.676 69.7262C336.69 71.7397 339.601 73 342.811 73V71ZM336.091 68.312L334.821 66.7665C332.526 68.652 328.955 69.96 325.147 69.96V71.96V73.96C329.786 73.96 334.279 72.388 337.36 69.8575L336.091 68.312ZM325.147 62.072V64.072C328.745 64.072 331.953 62.4447 334.211 59.9613L332.731 58.616L331.251 57.2707C329.668 59.0113 327.5 60.072 325.147 60.072V62.072ZM332.731 58.616H334.731V44.984H332.731H330.731V58.616H332.731ZM332.731 44.984L334.211 43.6387C331.953 41.1553 328.745 39.528 325.147 39.528V41.528V43.528C327.5 43.528 329.668 44.5887 331.251 46.3293L332.731 44.984ZM325.147 41.528V39.528C318.378 39.528 312.875 45.0314 312.875 51.8H314.875H316.875C316.875 47.2406 320.587 43.528 325.147 43.528V41.528ZM314.875 51.8H312.875C312.875 58.5686 318.378 64.072 325.147 64.072V62.072V60.072C320.587 60.072 316.875 56.3594 316.875 51.8H314.875ZM352.587 3.8V1.8H350.587V3.8H352.587ZM362.571 3.8H364.571V1.8H362.571V3.8ZM379.083 61.016V63.016H381.083V61.016H379.083ZM379.083 3.8V1.8H377.083V3.8H379.083ZM389.067 3.8H391.067V1.8H389.067V3.8ZM389.067 61.016H387.067V63.016H389.067V61.016ZM394.731 61.016H396.731V59.016H394.731V61.016ZM394.731 71V73H396.731V71H394.731ZM352.587 59H354.587V3.8H352.587H350.587V59H352.587ZM352.587 3.8V5.8H362.571V3.8V1.8H352.587V3.8ZM362.571 3.8H360.571V58.616H362.571H364.571V3.8H362.571ZM362.571 58.616H360.571C360.571 61.1651 362.722 63.016 365.067 63.016V61.016V59.016C364.92 59.016 364.785 58.9577 364.69 58.8681C364.601 58.7835 364.571 58.6963 364.571 58.616H362.571ZM365.067 61.016V63.016H379.083V61.016V59.016H365.067V61.016ZM379.083 61.016H381.083V3.8H379.083H377.083V61.016H379.083ZM379.083 3.8V5.8H389.067V3.8V1.8H379.083V3.8ZM389.067 3.8H387.067V61.016H389.067H391.067V3.8H389.067ZM389.067 61.016V63.016H394.731V61.016V59.016H389.067V61.016ZM394.731 61.016H392.731V71H394.731H396.731V61.016H394.731ZM394.731 71V69H364.587V71V73H394.731V71ZM364.587 71V69C361.303 69 358.848 67.9166 357.213 66.2342C355.57 64.5428 354.587 62.0725 354.587 59H352.587H350.587C350.587 62.9355 351.86 66.4652 354.345 69.0218C356.838 71.5874 360.383 73 364.587 73V71ZM399.019 3.8V1.8H397.019V3.8H399.019ZM409.003 3.8H411.003V1.8H409.003V3.8ZM428.299 3.8V1.8H426.299V3.8H428.299ZM438.283 3.8H440.283V1.8H438.283V3.8ZM442.891 61.784H444.891V59.784H442.891V61.784ZM442.891 71.96V73.96H444.891V71.96H442.891ZM430.219 67.832L431.834 66.652L430.623 64.9947L428.998 66.2484L430.219 67.832ZM399.019 51.8H401.019V3.8H399.019H397.019V51.8H399.019ZM399.019 3.8V5.8H409.003V3.8V1.8H399.019V3.8ZM409.003 3.8H407.003V51.8H409.003H411.003V3.8H409.003ZM409.003 51.8H407.003C407.003 58.2676 412.206 63.496 418.603 63.496V61.496V59.496C414.441 59.496 411.003 56.0844 411.003 51.8H409.003ZM418.603 61.496V63.496C425.436 63.496 430.299 57.9272 430.299 51.896H428.299H426.299C426.299 55.8488 423.099 59.496 418.603 59.496V61.496ZM428.299 51.896H430.299V3.8H428.299H426.299V51.896H428.299ZM428.299 3.8V5.8H438.283V3.8V1.8H428.299V3.8ZM438.283 3.8H436.283V57.56H438.283H440.283V3.8H438.283ZM438.283 57.56H436.283C436.283 59.2454 436.643 60.8437 437.656 62.0427C438.72 63.303 440.215 63.784 441.739 63.784V61.784V59.784C441.056 59.784 440.822 59.593 440.711 59.4613C440.548 59.2683 440.283 58.7546 440.283 57.56H438.283ZM441.739 61.784V63.784H442.891V61.784V59.784H441.739V61.784ZM442.891 61.784H440.891V71.96H442.891H444.891V61.784H442.891ZM442.891 71.96V69.96H438.283V71.96V73.96H442.891V71.96ZM438.283 71.96V69.96C435.69 69.96 433.301 68.6596 431.834 66.652L430.219 67.832L428.605 69.012C430.786 71.9964 434.348 73.96 438.283 73.96V71.96ZM430.219 67.832L428.998 66.2484C425.926 68.6183 422.697 69.96 418.603 69.96V71.96V73.96C423.726 73.96 427.793 72.2297 431.441 69.4156L430.219 67.832ZM418.603 71.96V69.96C409.129 69.96 401.019 62.6764 401.019 51.8H399.019H397.019C397.019 64.9236 406.958 73.96 418.603 73.96V71.96ZM459.832 39.896L461.676 40.6701L462.53 38.6339L460.42 37.9844L459.832 39.896ZM484.408 3.8H486.408V1.8H484.408V3.8ZM484.408 71V73H486.408V71H484.408ZM474.424 71H472.424V73H474.424V71ZM474.424 41.528H476.424V39.528H474.424V41.528ZM469.624 41.528V39.528H468.283L467.773 40.7686L469.624 41.528ZM457.528 71V73H458.869L459.378 71.7594L457.528 71ZM446.776 71L444.931 70.2259L443.767 73H446.776V71ZM474.712 31.544V33.544H476.712V31.544H474.712ZM474.712 13.784H476.712V11.784H474.712V13.784ZM459.832 39.896L460.42 37.9844C453.754 35.9333 448.872 29.6879 448.872 22.232H446.872H444.872C444.872 31.4801 450.934 39.2507 459.243 41.8076L459.832 39.896ZM446.872 22.232H448.872C448.872 13.1538 456.239 5.8 465.208 5.8V3.8V1.8C454.016 1.8 444.872 10.9582 444.872 22.232H446.872ZM465.208 3.8V5.8H484.408V3.8V1.8H465.208V3.8ZM484.408 3.8H482.408V71H484.408H486.408V3.8H484.408ZM484.408 71V69H474.424V71V73H484.408V71ZM474.424 71H476.424V41.528H474.424H472.424V71H474.424ZM474.424 41.528V39.528H469.624V41.528V43.528H474.424V41.528ZM469.624 41.528L467.773 40.7686L455.677 70.2406L457.528 71L459.378 71.7594L471.474 42.2874L469.624 41.528ZM457.528 71V69H446.776V71V73H457.528V71ZM446.776 71L448.62 71.7741L461.676 40.6701L459.832 39.896L457.987 39.1219L444.931 70.2259L446.776 71ZM456.856 22.616H454.856C454.856 28.6166 459.783 33.544 465.784 33.544V31.544V29.544C461.992 29.544 458.856 26.4074 458.856 22.616H456.856ZM465.784 31.544V33.544H474.712V31.544V29.544H465.784V31.544ZM474.712 31.544H476.712V13.784H474.712H472.712V31.544H474.712ZM474.712 13.784V11.784H465.784V13.784V15.784H474.712V13.784ZM465.784 13.784V11.784C459.811 11.784 454.856 16.5874 454.856 22.616H456.856H458.856C458.856 18.8526 461.964 15.784 465.784 15.784V13.784Z" fill="#342A1E" mask="url(#path-1-outside-1_249_5)"/>
</svg>
