<svg width="646" height="88" viewBox="0 0 646 88" fill="none" xmlns="http://www.w3.org/2000/svg">
<path d="M87.0165 47.248V50.384C87.0165 54.8 84.9685 57.552 81.2565 58.384V58.832C83.1765 59.28 84.6485 60.176 85.6725 61.584C86.5685 62.928 87.0165 64.656 87.0165 66.832V72.08C87.0165 78.736 82.7285 82.448 76.0725 82.448C69.4165 82.448 65.7685 78.736 65.7685 72.08V71.44H71.8485V72.4C71.8485 75.152 73.3845 76.624 76.0725 76.624C78.7605 76.624 80.2965 75.152 80.2965 72.4V66.064C80.2965 63.312 78.7605 61.84 76.0725 61.84H72.5525V55.376H76.0725C78.7605 55.376 80.2965 53.904 80.2965 51.152V46.608C80.2965 43.856 78.7605 42.384 76.0725 42.384C73.3845 42.384 71.8485 43.856 71.8485 46.608V50.128H65.7685V47.248C65.7685 40.592 69.4165 36.88 76.0725 36.88C82.7285 36.88 87.0165 40.592 87.0165 47.248ZM105.072 37.2L112.56 82H105.328L104.432 75.664H95.728L94.768 82H87.6L95.088 37.2H105.072ZM96.624 69.328H103.536L100.144 45.776C100.144 45.648 100.016 45.648 99.952 45.776L96.624 69.328ZM128.653 58.32C133.069 59.088 135.501 62.16 135.501 67.216V72.976C135.501 78.8 132.301 82 126.477 82H113.805V37.2H125.773C131.597 37.2 134.797 40.464 134.797 46.224V49.168C134.797 53.904 132.621 56.976 128.653 57.872V58.32ZM120.525 42.32V55.312H122.509C126.093 55.312 128.141 53.328 128.141 49.744V47.888C128.141 44.304 126.093 42.32 122.509 42.32H120.525ZM129.357 70.992V67.408C129.357 63.76 127.309 61.776 123.725 61.776H120.525V76.56H123.725C127.309 76.56 129.357 74.576 129.357 70.992ZM153.387 37.2L160.875 82H153.643L152.747 75.664H144.043L143.083 82H135.915L143.403 37.2H153.387ZM144.939 69.328H151.851L148.459 45.776C148.459 45.648 148.331 45.648 148.267 45.776L144.939 69.328ZM174.792 37.2C180.616 37.2 183.816 40.464 183.816 46.224V56.784C183.816 62.608 180.616 65.808 174.792 65.808H168.84V82H162.12V37.2H174.792ZM177.672 54.992V47.888C177.672 44.304 175.624 42.32 172.04 42.32H168.84V60.624H172.04C175.624 60.624 177.672 58.576 177.672 54.992ZM199.734 37.2H208.95V82H202.23V47.632L193.078 82H185.59V37.2H192.31V65.232L199.734 37.2ZM232.409 37.2H242.905V82H236.121V52.24L230.105 82H224.921L218.905 52.24V82H212.185V37.2H222.617L227.545 68.496L232.409 37.2ZM256.498 37.2H278.514V42.32H270.834V82H264.114V42.32H256.498V37.2ZM293.881 58.32C298.297 59.088 300.729 62.16 300.729 67.216V72.976C300.729 78.8 297.529 82 291.705 82H279.033V37.2H291.001C296.825 37.2 300.025 40.464 300.025 46.224V49.168C300.025 53.904 297.849 56.976 293.881 57.872V58.32ZM285.753 42.32V55.312H287.737C291.321 55.312 293.369 53.328 293.369 49.744V47.888C293.369 44.304 291.321 42.32 287.737 42.32H285.753ZM294.585 70.992V67.408C294.585 63.76 292.537 61.776 288.953 61.776H285.753V76.56H288.953C292.537 76.56 294.585 74.576 294.585 70.992ZM313.622 36.88C320.598 36.88 324.438 40.784 324.438 47.76V71.632C324.438 78.544 320.598 82.448 313.622 82.448C306.646 82.448 302.806 78.544 302.806 71.632V47.76C302.806 40.784 306.646 36.88 313.622 36.88ZM317.654 72.656V46.352C317.654 43.792 316.182 42.384 313.622 42.384C311.062 42.384 309.59 43.792 309.59 46.352V72.656C309.59 75.216 311.062 76.624 313.622 76.624C316.182 76.624 317.654 75.216 317.654 72.656ZM346.42 42.32H334.068V55.824H345.332V61.264H334.068V76.624H346.42V82.064H327.348V37.264L346.42 37.2V42.32ZM377.288 37.2H384.008V82H377.288V61.264H368.008V82H361.288V37.2H368.008V55.824H377.288V37.2ZM402.682 37.2L410.17 82H402.938L402.042 75.664H393.338L392.378 82H385.21L392.698 37.2H402.682ZM394.234 69.328H401.146L397.754 45.776C397.754 45.648 397.626 45.648 397.562 45.776L394.234 69.328ZM432.151 46.48V52.048H425.495V46.352C425.495 43.792 424.087 42.384 421.527 42.384C418.967 42.384 417.495 43.792 417.495 46.352V72.656C417.495 75.216 418.967 76.624 421.527 76.624C424.087 76.624 425.495 75.216 425.495 72.656V71.44H432.151V72.912C432.151 79.056 428.695 82.448 422.615 82.448H420.631C414.487 82.448 411.095 79.056 411.095 72.912V46.48C411.095 40.336 414.487 36.944 420.631 36.944H422.615C428.695 36.944 432.151 40.336 432.151 46.48ZM431.321 37.2H453.337V42.32H445.657V82H438.937V42.32H431.321V37.2ZM466.527 37.2C472.351 37.2 475.551 40.464 475.551 46.224V56.784C475.551 62.608 472.351 65.808 466.527 65.808H460.575V82H453.855V37.2H466.527ZM469.407 54.992V47.888C469.407 44.304 467.359 42.32 463.775 42.32H460.575V60.624H463.775C467.359 60.624 469.407 58.576 469.407 54.992ZM487.757 36.88C494.733 36.88 498.573 40.784 498.573 47.76V71.632C498.573 78.544 494.733 82.448 487.757 82.448C480.781 82.448 476.941 78.544 476.941 71.632V47.76C476.941 40.784 480.781 36.88 487.757 36.88ZM491.789 72.656V46.352C491.789 43.792 490.317 42.384 487.757 42.384C485.197 42.384 483.725 43.792 483.725 46.352V72.656C483.725 75.216 485.197 76.624 487.757 76.624C490.317 76.624 491.789 75.216 491.789 72.656ZM520.555 42.32H508.203V55.824H519.467V61.264H508.203V76.624H520.555V82.064H501.483V37.264L520.555 37.2V42.32ZM538.328 37.2H545.048V82H538.328V61.264H529.048V82H522.328V37.2H529.048V55.824H538.328V37.2ZM562.442 37.2H571.658V82H564.938V47.632L555.786 82H548.298V37.2H555.018V65.232L562.442 37.2ZM593.965 42.32H581.613V55.824H592.877V61.264H581.613V76.624H593.965V82.064H574.893V37.264L593.965 37.2V42.32Z" fill="#564735"/>
<line x1="46.188" y1="27.8946" x2="18.6471" y2="0.353688" stroke="#564735"/>
<line x1="38.9487" y1="40.5" x2="4.11333e-05" y2="40.5" stroke="#564735"/>
</svg>
