<svg width="1089" height="109" viewBox="0 0 1089 109" fill="none" xmlns="http://www.w3.org/2000/svg">
<mask id="path-1-outside-1_42_1384" maskUnits="userSpaceOnUse" x="0" y="0" width="1089" height="109" fill="black">
<rect fill="white" width="1089" height="109"/>
<path d="M39.1635 60.2C46.2035 64.68 50.8115 72.616 50.8115 81.32C50.8115 94.632 40.0595 106.408 26.6195 106.408C13.3075 106.408 2.42748 94.632 2.42748 81.32H15.7395C15.7395 87.336 20.6035 92.456 26.6195 92.456C32.6355 92.456 37.4995 87.336 37.4995 81.32C37.4995 75.304 32.6355 70.696 26.6195 70.696V49.064C32.6355 49.064 37.4995 44.2 37.4995 38.184C37.4995 32.168 32.6355 27.304 26.6195 27.304C20.6035 27.304 15.7395 32.168 15.7395 38.184H2.42748C2.42748 24.872 13.3075 13.992 26.6195 13.992C40.0595 13.992 50.8115 24.872 50.8115 38.184C50.8115 47.016 46.2035 55.72 39.1635 60.2ZM83.0455 106.28C68.0695 106.28 56.0375 94.248 56.0375 79.4C56.0375 64.552 68.0695 52.52 83.0455 52.52C86.5015 52.52 89.9575 53.288 93.1575 54.568V37.672C93.1575 31.528 88.2935 27.176 82.4055 27.176C76.5175 27.176 72.1655 32.04 71.6535 37.672L71.5255 39.208H58.2135V37.672C58.2135 24.36 69.6055 14.12 82.4055 14.12C95.3335 14.12 106.469 23.208 106.469 37.16V86.824C106.469 90.152 108.133 91.432 111.077 91.432H112.613V105H106.597C103.013 105 99.8135 103.592 97.6375 101.416C94.0535 104.36 88.6775 106.28 83.0455 106.28ZM83.0455 93.096C87.0135 93.096 90.5975 91.304 93.1575 88.488V70.312C90.5975 67.496 87.0135 65.704 83.0455 65.704C75.4935 65.704 69.3495 71.848 69.3495 79.4C69.3495 86.952 75.4935 93.096 83.0455 93.096ZM142.288 106.28C129.36 106.28 117.712 98.856 117.712 80.936C117.712 51.624 152.912 57.256 152.912 38.568C152.912 31.272 148.432 27.304 142.288 27.304C136.272 27.304 131.408 31.144 131.408 38.568H118.096C118.096 23.592 129.36 14.248 142.288 14.248C155.984 14.248 166.48 24.232 166.48 38.568C166.48 68.52 131.28 61.992 131.28 80.936C131.28 88.616 136.144 93.352 142.032 93.352C148.176 93.352 152.912 87.976 152.912 81.32H166.48C165.84 98.472 155.216 106.28 142.288 106.28ZM171.622 91.432C175.206 91.176 176.358 89.768 176.358 85.544V31.4C176.358 22.056 182.374 15.4 192.358 15.4H224.998V105H211.686V28.712H192.998C191.206 28.712 189.67 30.12 189.67 31.912V91.688C189.67 98.984 183.782 105 176.358 105H171.622V91.432ZM250.75 63.528C240.766 60.456 233.47 51.112 233.47 39.976C233.47 26.408 244.478 15.4 257.918 15.4H283.518V105H270.206V65.704H263.806L247.678 105H233.342L250.75 63.528ZM246.782 40.488C246.782 47.016 252.158 52.392 258.686 52.392H270.59V28.712H258.686C252.158 28.712 246.782 33.96 246.782 40.488ZM290.502 91.944C294.726 91.944 297.798 88.744 297.798 84.776V28.584C297.798 21.288 303.814 15.4 311.11 15.4H346.438V91.944H353.478V105H290.502V91.944ZM308.294 91.944H333.126V28.456H314.31C312.518 28.456 311.11 29.864 311.11 31.656V79.016C311.11 86.312 311.11 88.232 308.294 91.944ZM429.509 105V15.4H416.325V105H429.509ZM383.685 52.904C398.021 52.904 409.797 64.424 409.797 79.144C409.797 93.48 398.021 105 383.685 105H360.517V15.4H373.829V52.904H383.685ZM383.685 91.688C390.725 91.688 396.485 86.056 396.485 79.016C396.485 71.848 390.725 66.216 383.685 66.216H373.957V91.688H383.685ZM464.298 91.688C471.338 91.688 476.714 86.696 476.714 79.016C476.714 70.824 471.338 66.088 464.298 66.088H452.394V91.688H464.298ZM464.554 52.648C471.338 52.648 476.714 48.168 476.714 40.36C476.714 33.192 471.338 28.712 464.554 28.712H452.394V52.648H464.554ZM465.066 105H439.082V15.4H465.322C479.274 15.4 489.898 26.024 490.154 40.104C490.282 48.168 486.826 54.44 481.194 58.92C486.954 63.528 490.282 71.72 490.154 79.912C489.898 93.864 479.018 105 465.066 105ZM524.25 106.28C509.274 106.28 497.242 94.248 497.242 79.4C497.242 64.552 509.274 52.52 524.25 52.52C527.706 52.52 531.162 53.288 534.362 54.568V37.672C534.362 31.528 529.498 27.176 523.61 27.176C517.722 27.176 513.37 32.04 512.858 37.672L512.73 39.208H499.418V37.672C499.418 24.36 510.81 14.12 523.61 14.12C536.538 14.12 547.674 23.208 547.674 37.16V86.824C547.674 90.152 549.338 91.432 552.282 91.432H553.818V105H547.802C544.218 105 541.018 103.592 538.842 101.416C535.258 104.36 529.882 106.28 524.25 106.28ZM524.25 93.096C528.218 93.096 531.802 91.304 534.362 88.488V70.312C531.802 67.496 528.218 65.704 524.25 65.704C516.698 65.704 510.554 71.848 510.554 79.4C510.554 86.952 516.698 93.096 524.25 93.096ZM599.622 2.6H586.822L575.814 24.232H588.87L599.622 2.6ZM559.558 79.4V15.4H572.87V79.4C572.87 86.568 578.63 92.328 585.67 92.328C593.222 92.328 598.598 86.184 598.598 79.528V15.4H611.91V87.08C611.91 90.92 613.574 92.712 616.518 92.712H618.054V106.28H611.91C607.558 106.28 603.59 104.104 601.158 100.776C596.678 104.232 591.814 106.28 585.67 106.28C571.59 106.28 559.558 95.4 559.558 79.4ZM669.953 15.4V28.712H652.673V105H639.361V28.712H621.953V15.4H669.953ZM699.752 106.28C686.312 106.28 675.688 95.016 675.688 81.192V39.592C675.688 25.512 687.08 14.12 700.648 14.12C714.216 14.12 724.968 25.512 724.968 39.592V68.392H689V81.192C689 87.72 693.48 93.096 699.752 93.096C705 93.096 709.224 89.512 710.76 84.776H724.072C722.28 96.936 711.912 106.28 699.752 106.28ZM689 55.08H711.656V39.336C711.656 32.808 706.664 27.432 700.392 27.432C694.12 27.432 689 32.808 689 39.336V55.08ZM766.597 105V15.4H779.909V53.416H785.285L803.589 15.4H818.309L796.805 60.072L818.309 105H803.589L785.285 66.728H779.909V105H766.597ZM908.65 15.4V105H895.338V67.496H871.914V105H858.602V15.4H871.914V54.184H895.338V15.4H908.65ZM944.645 106.28C929.669 106.28 917.637 94.248 917.637 79.4C917.637 64.552 929.669 52.52 944.645 52.52C948.101 52.52 951.557 53.288 954.757 54.568V37.672C954.757 31.528 949.893 27.176 944.005 27.176C938.117 27.176 933.765 32.04 933.253 37.672L933.125 39.208H919.813V37.672C919.813 24.36 931.205 14.12 944.005 14.12C956.933 14.12 968.069 23.208 968.069 37.16V86.824C968.069 90.152 969.733 91.432 972.677 91.432H974.213V105H968.197C964.613 105 961.413 103.592 959.237 101.416C955.653 104.36 950.277 106.28 944.645 106.28ZM944.645 93.096C948.613 93.096 952.197 91.304 954.757 88.488V70.312C952.197 67.496 948.613 65.704 944.645 65.704C937.093 65.704 930.949 71.848 930.949 79.4C930.949 86.952 937.093 93.096 944.645 93.096ZM981.232 105V15.4H996.976L1021.94 88.104L1046.9 15.4H1062.64V105H1049.58L1049.2 43.048L1028.72 105H1015.15L994.672 43.048L994.288 105H981.232ZM1085.08 78.12H1073.31L1072.67 46.76V15.4H1085.72V46.76L1085.08 78.12ZM1079.19 106.28C1083.29 106.28 1086.62 102.952 1086.62 98.728C1086.62 94.632 1083.29 91.304 1079.19 91.304C1074.97 91.304 1071.64 94.632 1071.64 98.728C1071.64 102.952 1074.97 106.28 1079.19 106.28Z"/>
</mask>
<path d="M39.1635 60.2L38.0897 58.5127L35.4382 60.2L38.0897 61.8873L39.1635 60.2ZM2.42748 81.32V79.32H0.427478V81.32H2.42748ZM15.7395 81.32H17.7395V79.32H15.7395V81.32ZM26.6195 70.696H24.6195V72.696H26.6195V70.696ZM26.6195 49.064V47.064H24.6195V49.064H26.6195ZM15.7395 38.184V40.184H17.7395V38.184H15.7395ZM2.42748 38.184H0.427478V40.184H2.42748V38.184ZM39.1635 60.2L38.0897 61.8873C44.5736 66.0135 48.8115 73.3241 48.8115 81.32H50.8115H52.8115C52.8115 71.9079 47.8333 63.3465 40.2372 58.5127L39.1635 60.2ZM50.8115 81.32H48.8115C48.8115 93.6296 38.8555 104.408 26.6195 104.408V106.408V108.408C41.2635 108.408 52.8115 95.6344 52.8115 81.32H50.8115ZM26.6195 106.408V104.408C14.5048 104.408 4.42748 93.6225 4.42748 81.32H2.42748H0.427478C0.427478 95.6415 12.1102 108.408 26.6195 108.408V106.408ZM2.42748 81.32V83.32H15.7395V81.32V79.32H2.42748V81.32ZM15.7395 81.32H13.7395C13.7395 88.3798 19.4391 94.456 26.6195 94.456V92.456V90.456C21.7679 90.456 17.7395 86.2922 17.7395 81.32H15.7395ZM26.6195 92.456V94.456C33.7999 94.456 39.4995 88.3798 39.4995 81.32H37.4995H35.4995C35.4995 86.2922 31.4711 90.456 26.6195 90.456V92.456ZM37.4995 81.32H39.4995C39.4995 74.1376 33.6772 68.696 26.6195 68.696V70.696V72.696C31.5938 72.696 35.4995 76.4704 35.4995 81.32H37.4995ZM26.6195 70.696H28.6195V49.064H26.6195H24.6195V70.696H26.6195ZM26.6195 49.064V51.064C33.74 51.064 39.4995 45.3046 39.4995 38.184H37.4995H35.4995C35.4995 43.0954 31.5309 47.064 26.6195 47.064V49.064ZM37.4995 38.184H39.4995C39.4995 31.0634 33.74 25.304 26.6195 25.304V27.304V29.304C31.5309 29.304 35.4995 33.2726 35.4995 38.184H37.4995ZM26.6195 27.304V25.304C19.4989 25.304 13.7395 31.0634 13.7395 38.184H15.7395H17.7395C17.7395 33.2726 21.7081 29.304 26.6195 29.304V27.304ZM15.7395 38.184V36.184H2.42748V38.184V40.184H15.7395V38.184ZM2.42748 38.184H4.42748C4.42748 25.9766 14.412 15.992 26.6195 15.992V13.992V11.992C12.2029 11.992 0.427478 23.7674 0.427478 38.184H2.42748ZM26.6195 13.992V15.992C38.948 15.992 48.8115 25.9697 48.8115 38.184H50.8115H52.8115C52.8115 23.7743 41.1709 11.992 26.6195 11.992V13.992ZM50.8115 38.184H48.8115C48.8115 46.3795 44.5141 54.4245 38.0897 58.5127L39.1635 60.2L40.2372 61.8873C47.8929 57.0155 52.8115 47.6525 52.8115 38.184H50.8115ZM93.1575 54.568L92.4147 56.425L95.1575 57.5221V54.568H93.1575ZM71.6535 37.672L69.6617 37.4909L69.661 37.4984L69.6604 37.5059L71.6535 37.672ZM71.5255 39.208V41.208H73.3657L73.5186 39.3741L71.5255 39.208ZM58.2135 39.208H56.2135V41.208H58.2135V39.208ZM112.613 91.432H114.613V89.432H112.613V91.432ZM112.613 105V107H114.613V105H112.613ZM97.6375 101.416L99.0517 100.002L97.7693 98.7194L96.368 99.8705L97.6375 101.416ZM93.1575 88.488L94.6374 89.8333L95.1575 89.2612V88.488H93.1575ZM93.1575 70.312H95.1575V69.5388L94.6374 68.9666L93.1575 70.312ZM83.0455 106.28V104.28C69.1678 104.28 58.0375 93.1372 58.0375 79.4H56.0375H54.0375C54.0375 95.3588 66.9711 108.28 83.0455 108.28V106.28ZM56.0375 79.4H58.0375C58.0375 65.6628 69.1678 54.52 83.0455 54.52V52.52V50.52C66.9711 50.52 54.0375 63.4412 54.0375 79.4H56.0375ZM83.0455 52.52V54.52C86.2094 54.52 89.4133 55.2244 92.4147 56.425L93.1575 54.568L93.9003 52.711C90.5017 51.3516 86.7935 50.52 83.0455 50.52V52.52ZM93.1575 54.568H95.1575V37.672H93.1575H91.1575V54.568H93.1575ZM93.1575 37.672H95.1575C95.1575 30.3296 89.3018 25.176 82.4055 25.176V27.176V29.176C87.2852 29.176 91.1575 32.7264 91.1575 37.672H93.1575ZM82.4055 27.176V25.176C75.2948 25.176 70.2493 31.0276 69.6617 37.4909L71.6535 37.672L73.6453 37.8531C74.0817 33.0524 77.7401 29.176 82.4055 29.176V27.176ZM71.6535 37.672L69.6604 37.5059L69.5324 39.0419L71.5255 39.208L73.5186 39.3741L73.6466 37.8381L71.6535 37.672ZM71.5255 39.208V37.208H58.2135V39.208V41.208H71.5255V39.208ZM58.2135 39.208H60.2135V37.672H58.2135H56.2135V39.208H58.2135ZM58.2135 37.672H60.2135C60.2135 25.5607 70.6114 16.12 82.4055 16.12V14.12V12.12C68.5995 12.12 56.2135 23.1593 56.2135 37.672H58.2135ZM82.4055 14.12V16.12C94.4047 16.12 104.469 24.4805 104.469 37.16H106.469H108.469C108.469 21.9354 96.2622 12.12 82.4055 12.12V14.12ZM106.469 37.16H104.469V86.824H106.469H108.469V37.16H106.469ZM106.469 86.824H104.469C104.469 88.795 104.964 90.5798 106.301 91.8341C107.612 93.0652 109.363 93.432 111.077 93.432V91.432V89.432C109.848 89.432 109.295 89.1588 109.038 88.9179C108.807 88.7002 108.469 88.181 108.469 86.824H106.469ZM111.077 91.432V93.432H112.613V91.432V89.432H111.077V91.432ZM112.613 91.432H110.613V105H112.613H114.613V91.432H112.613ZM112.613 105V103H106.597V105V107H112.613V105ZM106.597 105V103C103.535 103 100.846 101.796 99.0517 100.002L97.6375 101.416L96.2233 102.83C98.7807 105.388 102.492 107 106.597 107V105ZM97.6375 101.416L96.368 99.8705C93.1767 102.492 88.2618 104.28 83.0455 104.28V106.28V108.28C89.0932 108.28 94.9303 106.228 98.907 102.961L97.6375 101.416ZM83.0455 93.096V95.096C87.6358 95.096 91.7398 93.0207 94.6374 89.8333L93.1575 88.488L91.6776 87.1427C89.4552 89.5873 86.3912 91.096 83.0455 91.096V93.096ZM93.1575 88.488H95.1575V70.312H93.1575H91.1575V88.488H93.1575ZM93.1575 70.312L94.6374 68.9666C91.7398 65.7793 87.6358 63.704 83.0455 63.704V65.704V67.704C86.3912 67.704 89.4552 69.2127 91.6776 71.6573L93.1575 70.312ZM83.0455 65.704V63.704C74.3889 63.704 67.3495 70.7434 67.3495 79.4H69.3495H71.3495C71.3495 72.9526 76.598 67.704 83.0455 67.704V65.704ZM69.3495 79.4H67.3495C67.3495 88.0566 74.3889 95.096 83.0455 95.096V93.096V91.096C76.598 91.096 71.3495 85.8474 71.3495 79.4H69.3495ZM131.408 38.568V40.568H133.408V38.568H131.408ZM118.096 38.568H116.096V40.568H118.096V38.568ZM152.912 81.32V79.32H150.912V81.32H152.912ZM166.48 81.32L168.479 81.3946L168.556 79.32H166.48V81.32ZM142.288 106.28V104.28C136.187 104.28 130.566 102.529 126.494 98.8448C122.458 95.1941 119.712 89.4375 119.712 80.936H117.712H115.712C115.712 90.3545 118.791 97.2699 123.811 101.811C128.795 106.319 135.462 108.28 142.288 108.28V106.28ZM117.712 80.936H119.712C119.712 74.0589 121.759 69.3797 124.737 65.8726C127.772 62.2991 131.875 59.8175 136.238 57.5411C140.464 55.3358 145.15 53.2343 148.638 50.5307C152.273 47.7129 154.912 44.0296 154.912 38.568H152.912H150.912C150.912 42.4504 149.152 45.0711 146.187 47.3693C143.075 49.7817 138.961 51.6082 134.387 53.9949C129.95 56.3105 125.253 59.0849 121.688 63.2834C118.066 67.5483 115.712 73.1571 115.712 80.936H117.712ZM152.912 38.568H154.912C154.912 34.504 153.656 31.1427 151.325 28.7918C148.997 26.4441 145.795 25.304 142.288 25.304V27.304V29.304C144.926 29.304 147.036 30.1479 148.484 31.6082C149.929 33.0653 150.912 35.336 150.912 38.568H152.912ZM142.288 27.304V25.304C138.859 25.304 135.612 26.4027 133.208 28.7088C130.787 31.0315 129.408 34.4003 129.408 38.568H131.408H133.408C133.408 35.3117 134.462 33.0485 135.977 31.5952C137.509 30.1253 139.701 29.304 142.288 29.304V27.304ZM131.408 38.568V36.568H118.096V38.568V40.568H131.408V38.568ZM118.096 38.568H120.096C120.096 24.793 130.366 16.248 142.288 16.248V14.248V12.248C128.355 12.248 116.096 22.391 116.096 38.568H118.096ZM142.288 14.248V16.248C154.901 16.248 164.48 25.3575 164.48 38.568H166.48H168.48C168.48 23.1065 157.068 12.248 142.288 12.248V14.248ZM166.48 38.568H164.48C164.48 45.6168 162.427 50.3578 159.454 53.8673C156.426 57.4423 152.332 59.8788 147.973 62.0977C143.755 64.245 139.059 66.2798 135.567 68.9465C131.915 71.7348 129.28 75.4152 129.28 80.936H131.28H133.28C133.28 76.9848 135.046 74.3772 137.994 72.1255C141.102 69.7522 145.206 67.995 149.788 65.6623C154.229 63.4012 158.935 60.6697 162.507 56.4527C166.134 52.1702 168.48 46.4952 168.48 38.568H166.48ZM131.28 80.936H129.28C129.28 89.5398 134.867 95.352 142.032 95.352V93.352V91.352C137.421 91.352 133.28 87.6921 133.28 80.936H131.28ZM142.032 93.352V95.352C149.48 95.352 154.912 88.8707 154.912 81.32H152.912H150.912C150.912 87.0813 146.873 91.352 142.032 91.352V93.352ZM152.912 81.32V83.32H166.48V81.32V79.32H152.912V81.32ZM166.48 81.32L164.482 81.2454C164.177 89.4097 161.516 95.1108 157.622 98.7756C153.715 102.453 148.355 104.28 142.288 104.28V106.28V108.28C149.15 108.28 155.566 106.203 160.363 101.688C165.173 97.1612 168.144 90.3823 168.479 81.3946L166.48 81.32ZM171.622 91.432L171.48 89.4371L169.622 89.5698V91.432H171.622ZM224.998 15.4H226.998V13.4H224.998V15.4ZM224.998 105V107H226.998V105H224.998ZM211.686 105H209.686V107H211.686V105ZM211.686 28.712H213.686V26.712H211.686V28.712ZM171.622 105H169.622V107H171.622V105ZM171.622 91.432L171.765 93.4269C173.729 93.2867 175.623 92.8033 176.891 91.232C178.089 89.7478 178.358 87.7225 178.358 85.544H176.358H174.358C174.358 87.5895 174.052 88.3802 173.778 88.72C173.574 88.9727 173.1 89.3213 171.48 89.4371L171.622 91.432ZM176.358 85.544H178.358V31.4H176.358H174.358V85.544H176.358ZM176.358 31.4H178.358C178.358 27.1595 179.717 23.6892 182.049 21.2898C184.372 18.8994 187.826 17.4 192.358 17.4V15.4V13.4C186.907 13.4 182.361 15.2286 179.18 18.5022C176.008 21.7668 174.358 26.2965 174.358 31.4H176.358ZM192.358 15.4V17.4H224.998V15.4V13.4H192.358V15.4ZM224.998 15.4H222.998V105H224.998H226.998V15.4H224.998ZM224.998 105V103H211.686V105V107H224.998V105ZM211.686 105H213.686V28.712H211.686H209.686V105H211.686ZM211.686 28.712V26.712H192.998V28.712V30.712H211.686V28.712ZM192.998 28.712V26.712C190.205 26.712 187.67 28.9149 187.67 31.912H189.67H191.67C191.67 31.3251 192.208 30.712 192.998 30.712V28.712ZM189.67 31.912H187.67V91.688H189.67H191.67V31.912H189.67ZM189.67 91.688H187.67C187.67 97.892 182.665 103 176.358 103V105V107C184.9 107 191.67 100.076 191.67 91.688H189.67ZM176.358 105V103H171.622V105V107H176.358V105ZM171.622 105H173.622V91.432H171.622H169.622V105H171.622ZM250.75 63.528L252.595 64.3021L253.449 62.2659L251.339 61.6164L250.75 63.528ZM283.518 15.4H285.518V13.4H283.518V15.4ZM283.518 105V107H285.518V105H283.518ZM270.206 105H268.206V107H270.206V105ZM270.206 65.704H272.206V63.704H270.206V65.704ZM263.806 65.704V63.704H262.465L261.956 64.9446L263.806 65.704ZM247.678 105V107H249.02L249.529 105.759L247.678 105ZM233.342 105L231.498 104.226L230.334 107H233.342V105ZM270.59 52.392V54.392H272.59V52.392H270.59ZM270.59 28.712H272.59V26.712H270.59V28.712ZM250.75 63.528L251.339 61.6164C242.176 58.7973 235.47 50.2159 235.47 39.976H233.47H231.47C231.47 52.0081 239.357 62.1147 250.162 65.4396L250.75 63.528ZM233.47 39.976H235.47C235.47 27.5058 245.59 17.4 257.918 17.4V15.4V13.4C243.367 13.4 231.47 25.3102 231.47 39.976H233.47ZM257.918 15.4V17.4H283.518V15.4V13.4H257.918V15.4ZM283.518 15.4H281.518V105H283.518H285.518V15.4H283.518ZM283.518 105V103H270.206V105V107H283.518V105ZM270.206 105H272.206V65.704H270.206H268.206V105H270.206ZM270.206 65.704V63.704H263.806V65.704V67.704H270.206V65.704ZM263.806 65.704L261.956 64.9446L245.828 104.241L247.678 105L249.529 105.759L265.657 66.4634L263.806 65.704ZM247.678 105V103H233.342V105V107H247.678V105ZM233.342 105L235.187 105.774L252.595 64.3021L250.75 63.528L248.906 62.7539L231.498 104.226L233.342 105ZM246.782 40.488H244.782C244.782 48.1206 251.054 54.392 258.686 54.392V52.392V50.392C253.263 50.392 248.782 45.9114 248.782 40.488H246.782ZM258.686 52.392V54.392H270.59V52.392V50.392H258.686V52.392ZM270.59 52.392H272.59V28.712H270.59H268.59V52.392H270.59ZM270.59 28.712V26.712H258.686V28.712V30.712H270.59V28.712ZM258.686 28.712V26.712C251.082 26.712 244.782 32.8274 244.782 40.488H246.782H248.782C248.782 35.0926 253.235 30.712 258.686 30.712V28.712ZM290.502 91.944V89.944H288.502V91.944H290.502ZM346.438 15.4H348.438V13.4H346.438V15.4ZM346.438 91.944H344.438V93.944H346.438V91.944ZM353.478 91.944H355.478V89.944H353.478V91.944ZM353.478 105V107H355.478V105H353.478ZM290.502 105H288.502V107H290.502V105ZM308.294 91.944L306.701 90.7352L304.267 93.944H308.294V91.944ZM333.126 91.944V93.944H335.126V91.944H333.126ZM333.126 28.456H335.126V26.456H333.126V28.456ZM290.502 91.944V93.944C295.831 93.944 299.798 89.8486 299.798 84.776H297.798H295.798C295.798 87.6394 293.622 89.944 290.502 89.944V91.944ZM297.798 84.776H299.798V28.584H297.798H295.798V84.776H297.798ZM297.798 28.584H299.798C299.798 22.4176 304.894 17.4 311.11 17.4V15.4V13.4C302.735 13.4 295.798 20.1584 295.798 28.584H297.798ZM311.11 15.4V17.4H346.438V15.4V13.4H311.11V15.4ZM346.438 15.4H344.438V91.944H346.438H348.438V15.4H346.438ZM346.438 91.944V93.944H353.478V91.944V89.944H346.438V91.944ZM353.478 91.944H351.478V105H353.478H355.478V91.944H353.478ZM353.478 105V103H290.502V105V107H353.478V105ZM290.502 105H292.502V91.944H290.502H288.502V105H290.502ZM308.294 91.944V93.944H333.126V91.944V89.944H308.294V91.944ZM333.126 91.944H335.126V28.456H333.126H331.126V91.944H333.126ZM333.126 28.456V26.456H314.31V28.456V30.456H333.126V28.456ZM314.31 28.456V26.456C311.414 26.456 309.11 28.7594 309.11 31.656H311.11H313.11C313.11 30.9686 313.623 30.456 314.31 30.456V28.456ZM311.11 31.656H309.11V79.016H311.11H313.11V31.656H311.11ZM311.11 79.016H309.11C309.11 82.7461 309.102 84.8246 308.794 86.4513C308.515 87.9197 307.982 89.0469 306.701 90.7352L308.294 91.944L309.888 93.1528C311.423 91.1291 312.298 89.4403 312.723 87.1967C313.119 85.1114 313.11 82.5819 313.11 79.016H311.11ZM429.509 105V107H431.509V105H429.509ZM429.509 15.4H431.509V13.4H429.509V15.4ZM416.325 15.4V13.4H414.325V15.4H416.325ZM416.325 105H414.325V107H416.325V105ZM360.517 105H358.517V107H360.517V105ZM360.517 15.4V13.4H358.517V15.4H360.517ZM373.829 15.4H375.829V13.4H373.829V15.4ZM373.829 52.904H371.829V54.904H373.829V52.904ZM373.957 66.216V64.216H371.957V66.216H373.957ZM373.957 91.688H371.957V93.688H373.957V91.688ZM429.509 105H431.509V15.4H429.509H427.509V105H429.509ZM429.509 15.4V13.4H416.325V15.4V17.4H429.509V15.4ZM416.325 15.4H414.325V105H416.325H418.325V15.4H416.325ZM416.325 105V107H429.509V105V103H416.325V105ZM383.685 52.904V54.904C396.923 54.904 407.797 65.5349 407.797 79.144H409.797H411.797C411.797 63.3131 399.12 50.904 383.685 50.904V52.904ZM409.797 79.144H407.797C407.797 92.3499 396.943 103 383.685 103V105V107C399.1 107 411.797 94.6101 411.797 79.144H409.797ZM383.685 105V103H360.517V105V107H383.685V105ZM360.517 105H362.517V15.4H360.517H358.517V105H360.517ZM360.517 15.4V17.4H373.829V15.4V13.4H360.517V15.4ZM373.829 15.4H371.829V52.904H373.829H375.829V15.4H373.829ZM373.829 52.904V54.904H383.685V52.904V50.904H373.829V52.904ZM383.685 91.688V93.688C391.804 93.688 398.485 87.1867 398.485 79.016H396.485H394.485C394.485 84.9253 389.647 89.688 383.685 89.688V91.688ZM396.485 79.016H398.485C398.485 70.7304 391.817 64.216 383.685 64.216V66.216V68.216C389.634 68.216 394.485 72.9656 394.485 79.016H396.485ZM383.685 66.216V64.216H373.957V66.216V68.216H383.685V66.216ZM373.957 66.216H371.957V91.688H373.957H375.957V66.216H373.957ZM373.957 91.688V93.688H383.685V91.688V89.688H373.957V91.688ZM452.394 66.088V64.088H450.394V66.088H452.394ZM452.394 91.688H450.394V93.688H452.394V91.688ZM452.394 28.712V26.712H450.394V28.712H452.394ZM452.394 52.648H450.394V54.648H452.394V52.648ZM439.082 105H437.082V107H439.082V105ZM439.082 15.4V13.4H437.082V15.4H439.082ZM490.154 40.104L492.154 40.0723L492.154 40.0676L490.154 40.104ZM481.194 58.92L479.949 57.3548L477.987 58.9155L479.945 60.4817L481.194 58.92ZM490.154 79.912L492.154 79.9487L492.154 79.9432L490.154 79.912ZM464.298 91.688V93.688C468.3 93.688 471.925 92.263 474.556 89.6513C477.192 87.0341 478.714 83.3391 478.714 79.016H476.714H474.714C474.714 82.3729 473.549 85.0139 471.737 86.8127C469.92 88.617 467.337 89.688 464.298 89.688V91.688ZM476.714 79.016H478.714C478.714 74.4683 477.212 70.6978 474.556 68.0607C471.907 65.431 468.271 64.088 464.298 64.088V66.088V68.088C467.366 68.088 469.938 69.113 471.737 70.8993C473.529 72.6782 474.714 75.3717 474.714 79.016H476.714ZM464.298 66.088V64.088H452.394V66.088V68.088H464.298V66.088ZM452.394 66.088H450.394V91.688H452.394H454.394V66.088H452.394ZM452.394 91.688V93.688H464.298V91.688V89.688H452.394V91.688ZM464.554 52.648V54.648C468.386 54.648 471.945 53.3786 474.561 50.8775C477.192 48.3616 478.714 44.7451 478.714 40.36H476.714H474.714C474.714 43.7828 473.549 46.3104 471.796 47.9865C470.028 49.6774 467.507 50.648 464.554 50.648V52.648ZM476.714 40.36H478.714C478.714 36.2457 477.157 32.7899 474.532 30.3759C471.926 27.9791 468.383 26.712 464.554 26.712V28.712V30.712C467.509 30.712 470.047 31.6849 471.825 33.3201C473.584 34.9381 474.714 37.3063 474.714 40.36H476.714ZM464.554 28.712V26.712H452.394V28.712V30.712H464.554V28.712ZM452.394 28.712H450.394V52.648H452.394H454.394V28.712H452.394ZM452.394 52.648V54.648H464.554V52.648V50.648H452.394V52.648ZM465.066 105V103H439.082V105V107H465.066V105ZM439.082 105H441.082V15.4H439.082H437.082V105H439.082ZM439.082 15.4V17.4H465.322V15.4V13.4H439.082V15.4ZM465.322 15.4V17.4C478.157 17.4 487.918 27.1233 488.155 40.1404L490.154 40.104L492.154 40.0676C491.879 24.9247 480.392 13.4 465.322 13.4V15.4ZM490.154 40.104L488.155 40.1357C488.272 47.5264 485.139 53.2271 479.949 57.3548L481.194 58.92L482.44 60.4852C488.514 55.6529 492.293 48.8096 492.154 40.0723L490.154 40.104ZM481.194 58.92L479.945 60.4817C485.13 64.6293 488.275 72.1782 488.155 79.8808L490.154 79.912L492.154 79.9432C492.29 71.2618 488.779 62.4267 482.444 57.3583L481.194 58.92ZM490.154 79.912L488.155 79.8753C487.918 92.7851 477.881 103 465.066 103V105V107C480.156 107 491.879 94.9429 492.154 79.9487L490.154 79.912ZM534.362 54.568L533.62 56.425L536.362 57.5221V54.568H534.362ZM512.858 37.672L510.867 37.4909L510.866 37.4984L510.865 37.5059L512.858 37.672ZM512.73 39.208V41.208H514.571L514.724 39.3741L512.73 39.208ZM499.418 39.208H497.418V41.208H499.418V39.208ZM553.818 91.432H555.818V89.432H553.818V91.432ZM553.818 105V107H555.818V105H553.818ZM538.842 101.416L540.257 100.002L538.974 98.7194L537.573 99.8705L538.842 101.416ZM534.362 88.488L535.842 89.8333L536.362 89.2612V88.488H534.362ZM534.362 70.312H536.362V69.5388L535.842 68.9666L534.362 70.312ZM524.25 106.28V104.28C510.373 104.28 499.242 93.1372 499.242 79.4H497.242H495.242C495.242 95.3588 508.176 108.28 524.25 108.28V106.28ZM497.242 79.4H499.242C499.242 65.6628 510.373 54.52 524.25 54.52V52.52V50.52C508.176 50.52 495.242 63.4412 495.242 79.4H497.242ZM524.25 52.52V54.52C527.414 54.52 530.618 55.2244 533.62 56.425L534.362 54.568L535.105 52.711C531.707 51.3516 527.999 50.52 524.25 50.52V52.52ZM534.362 54.568H536.362V37.672H534.362H532.362V54.568H534.362ZM534.362 37.672H536.362C536.362 30.3296 530.507 25.176 523.61 25.176V27.176V29.176C528.49 29.176 532.362 32.7264 532.362 37.672H534.362ZM523.61 27.176V25.176C516.5 25.176 511.454 31.0276 510.867 37.4909L512.858 37.672L514.85 37.8531C515.287 33.0524 518.945 29.176 523.61 29.176V27.176ZM512.858 37.672L510.865 37.5059L510.737 39.0419L512.73 39.208L514.724 39.3741L514.852 37.8381L512.858 37.672ZM512.73 39.208V37.208H499.418V39.208V41.208H512.73V39.208ZM499.418 39.208H501.418V37.672H499.418H497.418V39.208H499.418ZM499.418 37.672H501.418C501.418 25.5607 511.816 16.12 523.61 16.12V14.12V12.12C509.805 12.12 497.418 23.1593 497.418 37.672H499.418ZM523.61 14.12V16.12C535.61 16.12 545.674 24.4805 545.674 37.16H547.674H549.674C549.674 21.9354 537.467 12.12 523.61 12.12V14.12ZM547.674 37.16H545.674V86.824H547.674H549.674V37.16H547.674ZM547.674 86.824H545.674C545.674 88.795 546.169 90.5798 547.506 91.8341C548.817 93.0652 550.568 93.432 552.282 93.432V91.432V89.432C551.053 89.432 550.5 89.1588 550.243 88.9179C550.012 88.7002 549.674 88.181 549.674 86.824H547.674ZM552.282 91.432V93.432H553.818V91.432V89.432H552.282V91.432ZM553.818 91.432H551.818V105H553.818H555.818V91.432H553.818ZM553.818 105V103H547.802V105V107H553.818V105ZM547.802 105V103C544.74 103 542.051 101.796 540.257 100.002L538.842 101.416L537.428 102.83C539.986 105.388 543.697 107 547.802 107V105ZM538.842 101.416L537.573 99.8705C534.382 102.492 529.467 104.28 524.25 104.28V106.28V108.28C530.298 108.28 536.135 106.228 540.112 102.961L538.842 101.416ZM524.25 93.096V95.096C528.841 95.096 532.945 93.0207 535.842 89.8333L534.362 88.488L532.883 87.1427C530.66 89.5873 527.596 91.096 524.25 91.096V93.096ZM534.362 88.488H536.362V70.312H534.362H532.362V88.488H534.362ZM534.362 70.312L535.842 68.9666C532.945 65.7793 528.841 63.704 524.25 63.704V65.704V67.704C527.596 67.704 530.66 69.2127 532.883 71.6573L534.362 70.312ZM524.25 65.704V63.704C515.594 63.704 508.554 70.7434 508.554 79.4H510.554H512.554C512.554 72.9526 517.803 67.704 524.25 67.704V65.704ZM510.554 79.4H508.554C508.554 88.0566 515.594 95.096 524.25 95.096V93.096V91.096C517.803 91.096 512.554 85.8474 512.554 79.4H510.554ZM599.622 2.6L601.412 3.49018L602.849 0.599998H599.622V2.6ZM586.822 2.6V0.599998H585.595L585.039 1.69294L586.822 2.6ZM575.814 24.232L574.031 23.3249L572.552 26.232H575.814V24.232ZM588.87 24.232V26.232H590.109L590.66 25.1222L588.87 24.232ZM559.558 15.4V13.4H557.558V15.4H559.558ZM572.87 15.4H574.87V13.4H572.87V15.4ZM598.598 15.4V13.4H596.598V15.4H598.598ZM611.91 15.4H613.91V13.4H611.91V15.4ZM618.054 92.712H620.054V90.712H618.054V92.712ZM618.054 106.28V108.28H620.054V106.28H618.054ZM601.158 100.776L602.772 99.596L601.561 97.9387L599.936 99.1924L601.158 100.776ZM599.622 2.6V0.599998H586.822V2.6V4.6H599.622V2.6ZM586.822 2.6L585.039 1.69294L574.031 23.3249L575.814 24.232L577.596 25.1391L588.604 3.50706L586.822 2.6ZM575.814 24.232V26.232H588.87V24.232V22.232H575.814V24.232ZM588.87 24.232L590.66 25.1222L601.412 3.49018L599.622 2.6L597.831 1.70981L587.079 23.3418L588.87 24.232ZM559.558 79.4H561.558V15.4H559.558H557.558V79.4H559.558ZM559.558 15.4V17.4H572.87V15.4V13.4H559.558V15.4ZM572.87 15.4H570.87V79.4H572.87H574.87V15.4H572.87ZM572.87 79.4H570.87C570.87 87.6596 577.512 94.328 585.67 94.328V92.328V90.328C579.747 90.328 574.87 85.4764 574.87 79.4H572.87ZM585.67 92.328V94.328C594.39 94.328 600.598 87.2232 600.598 79.528H598.598H596.598C596.598 85.1448 592.053 90.328 585.67 90.328V92.328ZM598.598 79.528H600.598V15.4H598.598H596.598V79.528H598.598ZM598.598 15.4V17.4H611.91V15.4V13.4H598.598V15.4ZM611.91 15.4H609.91V87.08H611.91H613.91V15.4H611.91ZM611.91 87.08H609.91C609.91 89.2454 610.373 91.1957 611.582 92.6267C612.842 94.119 614.625 94.712 616.518 94.712V92.712V90.712C615.466 90.712 614.945 90.409 614.637 90.0453C614.278 89.6203 613.91 88.7546 613.91 87.08H611.91ZM616.518 92.712V94.712H618.054V92.712V90.712H616.518V92.712ZM618.054 92.712H616.054V106.28H618.054H620.054V92.712H618.054ZM618.054 106.28V104.28H611.91V106.28V108.28H618.054V106.28ZM611.91 106.28V104.28C608.228 104.28 604.847 102.436 602.772 99.596L601.158 100.776L599.543 101.956C602.332 105.772 606.887 108.28 611.91 108.28V106.28ZM601.158 100.776L599.936 99.1924C595.744 102.426 591.299 104.28 585.67 104.28V106.28V108.28C592.328 108.28 597.611 106.038 602.379 102.36L601.158 100.776ZM585.67 106.28V104.28C572.675 104.28 561.558 94.2764 561.558 79.4H559.558H557.558C557.558 96.5236 570.504 108.28 585.67 108.28V106.28ZM669.953 15.4H671.953V13.4H669.953V15.4ZM669.953 28.712V30.712H671.953V28.712H669.953ZM652.673 28.712V26.712H650.673V28.712H652.673ZM652.673 105V107H654.673V105H652.673ZM639.361 105H637.361V107H639.361V105ZM639.361 28.712H641.361V26.712H639.361V28.712ZM621.953 28.712H619.953V30.712H621.953V28.712ZM621.953 15.4V13.4H619.953V15.4H621.953ZM669.953 15.4H667.953V28.712H669.953H671.953V15.4H669.953ZM669.953 28.712V26.712H652.673V28.712V30.712H669.953V28.712ZM652.673 28.712H650.673V105H652.673H654.673V28.712H652.673ZM652.673 105V103H639.361V105V107H652.673V105ZM639.361 105H641.361V28.712H639.361H637.361V105H639.361ZM639.361 28.712V26.712H621.953V28.712V30.712H639.361V28.712ZM621.953 28.712H623.953V15.4H621.953H619.953V28.712H621.953ZM621.953 15.4V17.4H669.953V15.4V13.4H621.953V15.4ZM724.968 68.392V70.392H726.968V68.392H724.968ZM689 68.392V66.392H687V68.392H689ZM710.76 84.776V82.776H709.306L708.857 84.159L710.76 84.776ZM724.072 84.776L726.05 85.0676L726.388 82.776H724.072V84.776ZM689 55.08H687V57.08H689V55.08ZM711.656 55.08V57.08H713.656V55.08H711.656ZM699.752 106.28V104.28C687.503 104.28 677.688 94.0008 677.688 81.192H675.688H673.688C673.688 96.0312 685.12 108.28 699.752 108.28V106.28ZM675.688 81.192H677.688V39.592H675.688H673.688V81.192H675.688ZM675.688 39.592H677.688C677.688 26.5901 688.21 16.12 700.648 16.12V14.12V12.12C685.949 12.12 673.688 24.4339 673.688 39.592H675.688ZM700.648 14.12V16.12C713.018 16.12 722.968 26.5215 722.968 39.592H724.968H726.968C726.968 24.5025 715.413 12.12 700.648 12.12V14.12ZM724.968 39.592H722.968V68.392H724.968H726.968V39.592H724.968ZM724.968 68.392V66.392H689V68.392V70.392H724.968V68.392ZM689 68.392H687V81.192H689H691V68.392H689ZM689 81.192H687C687 88.58 692.145 95.096 699.752 95.096V93.096V91.096C694.814 91.096 691 86.86 691 81.192H689ZM699.752 93.096V95.096C705.978 95.096 710.895 90.8419 712.662 85.393L710.76 84.776L708.857 84.159C707.552 88.1821 704.021 91.096 699.752 91.096V93.096ZM710.76 84.776V86.776H724.072V84.776V82.776H710.76V84.776ZM724.072 84.776L722.093 84.4844C720.438 95.7145 710.868 104.28 699.752 104.28V106.28V108.28C712.955 108.28 724.121 98.1575 726.05 85.0676L724.072 84.776ZM689 55.08V57.08H711.656V55.08V53.08H689V55.08ZM711.656 55.08H713.656V39.336H711.656H709.656V55.08H711.656ZM711.656 39.336H713.656C713.656 31.8203 707.881 25.432 700.392 25.432V27.432V29.432C705.446 29.432 709.656 33.7957 709.656 39.336H711.656ZM700.392 27.432V25.432C692.93 25.432 687 31.7901 687 39.336H689H691C691 33.8259 695.309 29.432 700.392 29.432V27.432ZM689 39.336H687V55.08H689H691V39.336H689ZM766.597 105H764.597V107H766.597V105ZM766.597 15.4V13.4H764.597V15.4H766.597ZM779.909 15.4H781.909V13.4H779.909V15.4ZM779.909 53.416H777.909V55.416H779.909V53.416ZM785.285 53.416V55.416H786.542L787.087 54.2836L785.285 53.416ZM803.589 15.4V13.4H802.333L801.787 14.5324L803.589 15.4ZM818.309 15.4L820.112 16.2675L821.492 13.4H818.309V15.4ZM796.805 60.072L795.003 59.2045L794.587 60.0695L795.001 60.9355L796.805 60.072ZM818.309 105V107H821.484L820.113 104.137L818.309 105ZM803.589 105L801.785 105.863L802.329 107H803.589V105ZM785.285 66.728L787.09 65.8651L786.546 64.728H785.285V66.728ZM779.909 66.728V64.728H777.909V66.728H779.909ZM779.909 105V107H781.909V105H779.909ZM766.597 105H768.597V15.4H766.597H764.597V105H766.597ZM766.597 15.4V17.4H779.909V15.4V13.4H766.597V15.4ZM779.909 15.4H777.909V53.416H779.909H781.909V15.4H779.909ZM779.909 53.416V55.416H785.285V53.416V51.416H779.909V53.416ZM785.285 53.416L787.087 54.2836L805.391 16.2676L803.589 15.4L801.787 14.5324L783.483 52.5484L785.285 53.416ZM803.589 15.4V17.4H818.309V15.4V13.4H803.589V15.4ZM818.309 15.4L816.507 14.5325L795.003 59.2045L796.805 60.072L798.608 60.9395L820.112 16.2675L818.309 15.4ZM796.805 60.072L795.001 60.9355L816.505 105.863L818.309 105L820.113 104.137L798.609 59.2085L796.805 60.072ZM818.309 105V103H803.589V105V107H818.309V105ZM803.589 105L805.394 104.137L787.09 65.8651L785.285 66.728L783.481 67.5909L801.785 105.863L803.589 105ZM785.285 66.728V64.728H779.909V66.728V68.728H785.285V66.728ZM779.909 66.728H777.909V105H779.909H781.909V66.728H779.909ZM779.909 105V103H766.597V105V107H779.909V105ZM908.65 15.4H910.65V13.4H908.65V15.4ZM908.65 105V107H910.65V105H908.65ZM895.338 105H893.338V107H895.338V105ZM895.338 67.496H897.338V65.496H895.338V67.496ZM871.914 67.496V65.496H869.914V67.496H871.914ZM871.914 105V107H873.914V105H871.914ZM858.602 105H856.602V107H858.602V105ZM858.602 15.4V13.4H856.602V15.4H858.602ZM871.914 15.4H873.914V13.4H871.914V15.4ZM871.914 54.184H869.914V56.184H871.914V54.184ZM895.338 54.184V56.184H897.338V54.184H895.338ZM895.338 15.4V13.4H893.338V15.4H895.338ZM908.65 15.4H906.65V105H908.65H910.65V15.4H908.65ZM908.65 105V103H895.338V105V107H908.65V105ZM895.338 105H897.338V67.496H895.338H893.338V105H895.338ZM895.338 67.496V65.496H871.914V67.496V69.496H895.338V67.496ZM871.914 67.496H869.914V105H871.914H873.914V67.496H871.914ZM871.914 105V103H858.602V105V107H871.914V105ZM858.602 105H860.602V15.4H858.602H856.602V105H858.602ZM858.602 15.4V17.4H871.914V15.4V13.4H858.602V15.4ZM871.914 15.4H869.914V54.184H871.914H873.914V15.4H871.914ZM871.914 54.184V56.184H895.338V54.184V52.184H871.914V54.184ZM895.338 54.184H897.338V15.4H895.338H893.338V54.184H895.338ZM895.338 15.4V17.4H908.65V15.4V13.4H895.338V15.4ZM954.757 54.568L954.015 56.425L956.757 57.5221V54.568H954.757ZM933.253 37.672L931.262 37.4909L931.261 37.4984L931.26 37.5059L933.253 37.672ZM933.125 39.208V41.208H934.966L935.119 39.3741L933.125 39.208ZM919.813 39.208H917.813V41.208H919.813V39.208ZM974.213 91.432H976.213V89.432H974.213V91.432ZM974.213 105V107H976.213V105H974.213ZM959.237 101.416L960.652 100.002L959.369 98.7194L957.968 99.8705L959.237 101.416ZM954.757 88.488L956.237 89.8333L956.757 89.2612V88.488H954.757ZM954.757 70.312H956.757V69.5388L956.237 68.9666L954.757 70.312ZM944.645 106.28V104.28C930.768 104.28 919.637 93.1372 919.637 79.4H917.637H915.637C915.637 95.3588 928.571 108.28 944.645 108.28V106.28ZM917.637 79.4H919.637C919.637 65.6628 930.768 54.52 944.645 54.52V52.52V50.52C928.571 50.52 915.637 63.4412 915.637 79.4H917.637ZM944.645 52.52V54.52C947.809 54.52 951.013 55.2244 954.015 56.425L954.757 54.568L955.5 52.711C952.102 51.3516 948.394 50.52 944.645 50.52V52.52ZM954.757 54.568H956.757V37.672H954.757H952.757V54.568H954.757ZM954.757 37.672H956.757C956.757 30.3296 950.902 25.176 944.005 25.176V27.176V29.176C948.885 29.176 952.757 32.7264 952.757 37.672H954.757ZM944.005 27.176V25.176C936.895 25.176 931.849 31.0276 931.262 37.4909L933.253 37.672L935.245 37.8531C935.682 33.0524 939.34 29.176 944.005 29.176V27.176ZM933.253 37.672L931.26 37.5059L931.132 39.0419L933.125 39.208L935.119 39.3741L935.247 37.8381L933.253 37.672ZM933.125 39.208V37.208H919.813V39.208V41.208H933.125V39.208ZM919.813 39.208H921.813V37.672H919.813H917.813V39.208H919.813ZM919.813 37.672H921.813C921.813 25.5607 932.211 16.12 944.005 16.12V14.12V12.12C930.2 12.12 917.813 23.1593 917.813 37.672H919.813ZM944.005 14.12V16.12C956.005 16.12 966.069 24.4805 966.069 37.16H968.069H970.069C970.069 21.9354 957.862 12.12 944.005 12.12V14.12ZM968.069 37.16H966.069V86.824H968.069H970.069V37.16H968.069ZM968.069 86.824H966.069C966.069 88.795 966.564 90.5798 967.901 91.8341C969.212 93.0652 970.963 93.432 972.677 93.432V91.432V89.432C971.448 89.432 970.895 89.1588 970.638 88.9179C970.406 88.7002 970.069 88.181 970.069 86.824H968.069ZM972.677 91.432V93.432H974.213V91.432V89.432H972.677V91.432ZM974.213 91.432H972.213V105H974.213H976.213V91.432H974.213ZM974.213 105V103H968.197V105V107H974.213V105ZM968.197 105V103C965.135 103 962.446 101.796 960.652 100.002L959.237 101.416L957.823 102.83C960.381 105.388 964.092 107 968.197 107V105ZM959.237 101.416L957.968 99.8705C954.777 102.492 949.862 104.28 944.645 104.28V106.28V108.28C950.693 108.28 956.53 106.228 960.507 102.961L959.237 101.416ZM944.645 93.096V95.096C949.236 95.096 953.34 93.0207 956.237 89.8333L954.757 88.488L953.278 87.1427C951.055 89.5873 947.991 91.096 944.645 91.096V93.096ZM954.757 88.488H956.757V70.312H954.757H952.757V88.488H954.757ZM954.757 70.312L956.237 68.9666C953.34 65.7793 949.236 63.704 944.645 63.704V65.704V67.704C947.991 67.704 951.055 69.2127 953.278 71.6573L954.757 70.312ZM944.645 65.704V63.704C935.989 63.704 928.949 70.7434 928.949 79.4H930.949H932.949C932.949 72.9526 938.198 67.704 944.645 67.704V65.704ZM930.949 79.4H928.949C928.949 88.0566 935.989 95.096 944.645 95.096V93.096V91.096C938.198 91.096 932.949 85.8474 932.949 79.4H930.949ZM981.232 105H979.232V107H981.232V105ZM981.232 15.4V13.4H979.232V15.4H981.232ZM996.976 15.4L998.868 14.7506L998.404 13.4H996.976V15.4ZM1021.94 88.104L1020.04 88.7534L1021.94 94.2634L1023.83 88.7534L1021.94 88.104ZM1046.9 15.4V13.4H1045.47L1045 14.7506L1046.9 15.4ZM1062.64 15.4H1064.64V13.4H1062.64V15.4ZM1062.64 105V107H1064.64V105H1062.64ZM1049.58 105L1047.58 105.012L1047.6 107H1049.58V105ZM1049.2 43.048L1051.2 43.0356L1047.3 42.4203L1049.2 43.048ZM1028.72 105V107H1030.17L1030.62 105.628L1028.72 105ZM1015.15 105L1013.25 105.628L1013.71 107H1015.15V105ZM994.672 43.048L996.571 42.4203L992.672 43.0356L994.672 43.048ZM994.288 105V107H996.276L996.288 105.012L994.288 105ZM981.232 105H983.232V15.4H981.232H979.232V105H981.232ZM981.232 15.4V17.4H996.976V15.4V13.4H981.232V15.4ZM996.976 15.4L995.085 16.0494L1020.04 88.7534L1021.94 88.104L1023.83 87.4546L998.868 14.7506L996.976 15.4ZM1021.94 88.104L1023.83 88.7534L1048.79 16.0494L1046.9 15.4L1045 14.7506L1020.04 87.4546L1021.94 88.104ZM1046.9 15.4V17.4H1062.64V15.4V13.4H1046.9V15.4ZM1062.64 15.4H1060.64V105H1062.64H1064.64V15.4H1062.64ZM1062.64 105V103H1049.58V105V107H1062.64V105ZM1049.58 105L1051.58 104.988L1051.2 43.0356L1049.2 43.048L1047.2 43.0604L1047.58 105.012L1049.58 105ZM1049.2 43.048L1047.3 42.4203L1026.82 104.372L1028.72 105L1030.62 105.628L1051.1 43.6757L1049.2 43.048ZM1028.72 105V103H1015.15V105V107H1028.72V105ZM1015.15 105L1017.05 104.372L996.571 42.4203L994.672 43.048L992.774 43.6757L1013.25 105.628L1015.15 105ZM994.672 43.048L992.672 43.0356L992.288 104.988L994.288 105L996.288 105.012L996.672 43.0604L994.672 43.048ZM994.288 105V103H981.232V105V107H994.288V105ZM1085.08 78.12V80.12H1087.04L1087.08 78.1608L1085.08 78.12ZM1073.31 78.12L1071.31 78.1608L1071.35 80.12H1073.31V78.12ZM1072.67 46.76H1070.67V46.7804L1070.67 46.8008L1072.67 46.76ZM1072.67 15.4V13.4H1070.67V15.4H1072.67ZM1085.72 15.4H1087.72V13.4H1085.72V15.4ZM1085.72 46.76L1087.72 46.8008L1087.72 46.7804V46.76H1085.72ZM1085.08 78.12V76.12H1073.31V78.12V80.12H1085.08V78.12ZM1073.31 78.12L1075.31 78.0792L1074.67 46.7192L1072.67 46.76L1070.67 46.8008L1071.31 78.1608L1073.31 78.12ZM1072.67 46.76H1074.67V15.4H1072.67H1070.67V46.76H1072.67ZM1072.67 15.4V17.4H1085.72V15.4V13.4H1072.67V15.4ZM1085.72 15.4H1083.72V46.76H1085.72H1087.72V15.4H1085.72ZM1085.72 46.76L1083.72 46.7192L1083.08 78.0792L1085.08 78.12L1087.08 78.1608L1087.72 46.8008L1085.72 46.76ZM1079.19 106.28V108.28C1084.42 108.28 1088.62 104.034 1088.62 98.728H1086.62H1084.62C1084.62 101.87 1082.16 104.28 1079.19 104.28V106.28ZM1086.62 98.728H1088.62C1088.62 93.5274 1084.4 89.304 1079.19 89.304V91.304V93.304C1082.19 93.304 1084.62 95.7366 1084.62 98.728H1086.62ZM1079.19 91.304V89.304C1073.89 89.304 1069.64 93.5052 1069.64 98.728H1071.64H1073.64C1073.64 95.7588 1076.05 93.304 1079.19 93.304V91.304ZM1071.64 98.728H1069.64C1069.64 104.057 1073.87 108.28 1079.19 108.28V106.28V104.28C1076.08 104.28 1073.64 101.847 1073.64 98.728H1071.64Z" fill="#342A1E" mask="url(#path-1-outside-1_42_1384)"/>
</svg>
