<svg width="587" height="74" viewBox="0 0 587 74" fill="none" xmlns="http://www.w3.org/2000/svg">
<mask id="path-1-outside-1_316_29" maskUnits="userSpaceOnUse" x="0" y="0" width="587" height="74" fill="black">
<rect fill="white" width="587" height="74"/>
<path d="M39.6372 3.8V71H29.6532V42.872H12.0852V71H2.10124V3.8H12.0852V32.888H29.6532V3.8H39.6372ZM66.6335 71.96C55.4015 71.96 46.3775 62.936 46.3775 51.8C46.3775 40.664 55.4015 31.64 66.6335 31.64C69.2255 31.64 71.8175 32.216 74.2175 33.176V20.504C74.2175 15.896 70.5695 12.632 66.1535 12.632C61.7375 12.632 58.4735 16.28 58.0895 20.504L57.9935 21.656H48.0095V20.504C48.0095 10.52 56.5535 2.84 66.1535 2.84C75.8495 2.84 84.2015 9.65599 84.2015 20.12V57.368C84.2015 59.864 85.4495 60.824 87.6575 60.824H88.8095V71H84.2975C81.6095 71 79.2095 69.944 77.5775 68.312C74.8895 70.52 70.8575 71.96 66.6335 71.96ZM66.6335 62.072C69.6095 62.072 72.2975 60.728 74.2175 58.616V44.984C72.2975 42.872 69.6095 41.528 66.6335 41.528C60.9695 41.528 56.3615 46.136 56.3615 51.8C56.3615 57.464 60.9695 62.072 66.6335 62.072ZM104.826 71C98.4897 71 94.0737 66.584 94.0737 60.056V3.8H104.058V58.616C104.058 59.96 105.114 61.016 106.458 61.016H120.57V3.8H130.554V61.016H147.066V3.8H157.05V71H104.826ZM163.756 51.8V3.8H173.74V51.8C173.74 57.176 178.06 61.496 183.34 61.496C189.004 61.496 193.036 56.888 193.036 51.896V3.8H203.02V57.56C203.02 60.44 204.268 61.784 206.476 61.784H207.628V71.96H203.02C199.756 71.96 196.78 70.328 194.956 67.832C191.596 70.424 187.948 71.96 183.34 71.96C172.78 71.96 163.756 63.8 163.756 51.8ZM237.939 71V3.8H247.923V32.312H251.955L265.683 3.8H276.723L260.595 37.304L276.723 71H265.683L251.955 42.296H247.923V71H237.939ZM297.553 2.84C307.921 2.84 316.081 11 316.081 21.08V53.72C316.081 63.704 307.921 71.96 297.553 71.96C287.377 71.96 279.121 63.704 279.121 53.72V21.08C279.121 11 287.377 2.84 297.553 2.84ZM306.097 21.176C306.097 16.568 302.257 12.824 297.553 12.824C293.041 12.824 289.105 16.568 289.105 21.176V53.624C289.105 58.136 293.041 61.88 297.553 61.88C302.257 61.88 306.097 58.136 306.097 53.624V21.176ZM360.322 3.8V71H350.338V42.872H332.77V71H322.786V3.8H332.77V32.888H350.338V3.8H360.322ZM401.623 3.8V13.784H388.663V71H378.679V13.784H365.623V3.8H401.623ZM422.336 71.96C411.104 71.96 402.08 62.936 402.08 51.8C402.08 40.664 411.104 31.64 422.336 31.64C424.928 31.64 427.52 32.216 429.92 33.176V20.504C429.92 15.896 426.272 12.632 421.856 12.632C417.44 12.632 414.176 16.28 413.792 20.504L413.696 21.656H403.712V20.504C403.712 10.52 412.256 2.84 421.856 2.84C431.552 2.84 439.904 9.65599 439.904 20.12V57.368C439.904 59.864 441.152 60.824 443.36 60.824H444.512V71H440C437.312 71 434.912 69.944 433.28 68.312C430.592 70.52 426.56 71.96 422.336 71.96ZM422.336 62.072C425.312 62.072 428 60.728 429.92 58.616V44.984C428 42.872 425.312 41.528 422.336 41.528C416.672 41.528 412.064 46.136 412.064 51.8C412.064 57.464 416.672 62.072 422.336 62.072ZM449.776 71V3.8H459.76V32.312H463.792L477.52 3.8H488.56L472.432 37.304L488.56 71H477.52L463.792 42.296H459.76V71H449.776ZM527.394 3.8V13.784H514.434V71H504.45V13.784H491.394V3.8H527.394ZM584.399 71V3.8H574.511V71H584.399ZM550.031 31.928C560.783 31.928 569.615 40.568 569.615 51.608C569.615 62.36 560.783 71 550.031 71H532.655V3.8H542.639V31.928H550.031ZM550.031 61.016C555.311 61.016 559.631 56.792 559.631 51.512C559.631 46.136 555.311 41.912 550.031 41.912H542.735V61.016H550.031Z"/>
</mask>
<path d="M39.6372 3.8H41.6372V1.8H39.6372V3.8ZM39.6372 71V73H41.6372V71H39.6372ZM29.6532 71H27.6532V73H29.6532V71ZM29.6532 42.872H31.6532V40.872H29.6532V42.872ZM12.0852 42.872V40.872H10.0852V42.872H12.0852ZM12.0852 71V73H14.0852V71H12.0852ZM2.10124 71H0.101239V73H2.10124V71ZM2.10124 3.8V1.8H0.101239V3.8H2.10124ZM12.0852 3.8H14.0852V1.8H12.0852V3.8ZM12.0852 32.888H10.0852V34.888H12.0852V32.888ZM29.6532 32.888V34.888H31.6532V32.888H29.6532ZM29.6532 3.8V1.8H27.6532V3.8H29.6532ZM39.6372 3.8H37.6372V71H39.6372H41.6372V3.8H39.6372ZM39.6372 71V69H29.6532V71V73H39.6372V71ZM29.6532 71H31.6532V42.872H29.6532H27.6532V71H29.6532ZM29.6532 42.872V40.872H12.0852V42.872V44.872H29.6532V42.872ZM12.0852 42.872H10.0852V71H12.0852H14.0852V42.872H12.0852ZM12.0852 71V69H2.10124V71V73H12.0852V71ZM2.10124 71H4.10124V3.8H2.10124H0.101239V71H2.10124ZM2.10124 3.8V5.8H12.0852V3.8V1.8H2.10124V3.8ZM12.0852 3.8H10.0852V32.888H12.0852H14.0852V3.8H12.0852ZM12.0852 32.888V34.888H29.6532V32.888V30.888H12.0852V32.888ZM29.6532 32.888H31.6532V3.8H29.6532H27.6532V32.888H29.6532ZM29.6532 3.8V5.8H39.6372V3.8V1.8H29.6532V3.8ZM74.2175 33.176L73.4747 35.033L76.2175 36.1301V33.176H74.2175ZM58.0895 20.504L56.0977 20.3229L56.097 20.3304L56.0964 20.3379L58.0895 20.504ZM57.9935 21.656V23.656H59.8338L59.9866 21.8221L57.9935 21.656ZM48.0095 21.656H46.0095V23.656H48.0095V21.656ZM88.8095 60.824H90.8095V58.824H88.8095V60.824ZM88.8095 71V73H90.8095V71H88.8095ZM77.5775 68.312L78.9917 66.8978L77.7094 65.6154L76.308 66.7665L77.5775 68.312ZM74.2175 58.616L75.6974 59.9613L76.2175 59.3892V58.616H74.2175ZM74.2175 44.984H76.2175V44.2108L75.6974 43.6387L74.2175 44.984ZM66.6335 71.96V69.96C56.4999 69.96 48.3775 61.8252 48.3775 51.8H46.3775H44.3775C44.3775 64.0468 54.3031 73.96 66.6335 73.96V71.96ZM46.3775 51.8H48.3775C48.3775 41.7748 56.4999 33.64 66.6335 33.64V31.64V29.64C54.3031 29.64 44.3775 39.5532 44.3775 51.8H46.3775ZM66.6335 31.64V33.64C68.9334 33.64 71.2733 34.1524 73.4747 35.033L74.2175 33.176L74.9603 31.319C72.3617 30.2796 69.5175 29.64 66.6335 29.64V31.64ZM74.2175 33.176H76.2175V20.504H74.2175H72.2175V33.176H74.2175ZM74.2175 20.504H76.2175C76.2175 14.6976 71.5778 10.632 66.1535 10.632V12.632V14.632C69.5612 14.632 72.2175 17.0944 72.2175 20.504H74.2175ZM66.1535 12.632V10.632C60.5148 10.632 56.5573 15.2676 56.0977 20.3229L58.0895 20.504L60.0813 20.6851C60.3897 17.2924 62.9601 14.632 66.1535 14.632V12.632ZM58.0895 20.504L56.0964 20.3379L56.0004 21.4899L57.9935 21.656L59.9866 21.8221L60.0826 20.6701L58.0895 20.504ZM57.9935 21.656V19.656H48.0095V21.656V23.656H57.9935V21.656ZM48.0095 21.656H50.0095V20.504H48.0095H46.0095V21.656H48.0095ZM48.0095 20.504H50.0095C50.0095 11.7207 57.5594 4.84 66.1535 4.84V2.84V0.839996C55.5476 0.839996 46.0095 9.3193 46.0095 20.504H48.0095ZM66.1535 2.84V4.84C74.9207 4.84 82.2015 10.9285 82.2015 20.12H84.2015H86.2015C86.2015 8.38345 76.7782 0.839996 66.1535 0.839996V2.84ZM84.2015 20.12H82.2015V57.368H84.2015H86.2015V20.12H84.2015ZM84.2015 57.368H82.2015C82.2015 58.923 82.5925 60.4198 83.7326 61.4901C84.848 62.5372 86.3106 62.824 87.6575 62.824V60.824V58.824C86.7964 58.824 86.531 58.6308 86.4704 58.5739C86.4345 58.5402 86.2015 58.309 86.2015 57.368H84.2015ZM87.6575 60.824V62.824H88.8095V60.824V58.824H87.6575V60.824ZM88.8095 60.824H86.8095V71H88.8095H90.8095V60.824H88.8095ZM88.8095 71V69H84.2975V71V73H88.8095V71ZM84.2975 71V69C82.1308 69 80.2422 68.1483 78.9917 66.8978L77.5775 68.312L76.1633 69.7262C78.1768 71.7397 81.0882 73 84.2975 73V71ZM77.5775 68.312L76.308 66.7665C74.0127 68.652 70.4418 69.96 66.6335 69.96V71.96V73.96C71.2732 73.96 75.7663 72.388 78.847 69.8575L77.5775 68.312ZM66.6335 62.072V64.072C70.2318 64.072 73.4398 62.4447 75.6974 59.9613L74.2175 58.616L72.7376 57.2707C71.1552 59.0113 68.9872 60.072 66.6335 60.072V62.072ZM74.2175 58.616H76.2175V44.984H74.2175H72.2175V58.616H74.2175ZM74.2175 44.984L75.6974 43.6387C73.4398 41.1553 70.2318 39.528 66.6335 39.528V41.528V43.528C68.9872 43.528 71.1552 44.5887 72.7376 46.3293L74.2175 44.984ZM66.6335 41.528V39.528C59.8649 39.528 54.3615 45.0314 54.3615 51.8H56.3615H58.3615C58.3615 47.2406 62.0741 43.528 66.6335 43.528V41.528ZM56.3615 51.8H54.3615C54.3615 58.5686 59.8649 64.072 66.6335 64.072V62.072V60.072C62.0741 60.072 58.3615 56.3594 58.3615 51.8H56.3615ZM94.0737 3.8V1.8H92.0737V3.8H94.0737ZM104.058 3.8H106.058V1.8H104.058V3.8ZM120.57 61.016V63.016H122.57V61.016H120.57ZM120.57 3.8V1.8H118.57V3.8H120.57ZM130.554 3.8H132.554V1.8H130.554V3.8ZM130.554 61.016H128.554V63.016H130.554V61.016ZM147.066 61.016V63.016H149.066V61.016H147.066ZM147.066 3.8V1.8H145.066V3.8H147.066ZM157.05 3.8H159.05V1.8H157.05V3.8ZM157.05 71V73H159.05V71H157.05ZM104.826 71V69C102.135 69 99.9788 68.0714 98.4968 66.5707C97.0137 65.0688 96.0737 62.8588 96.0737 60.056H94.0737H92.0737C92.0737 63.7812 93.3418 67.0432 95.6507 69.3813C97.9607 71.7206 101.18 73 104.826 73V71ZM94.0737 60.056H96.0737V3.8H94.0737H92.0737V60.056H94.0737ZM94.0737 3.8V5.8H104.058V3.8V1.8H94.0737V3.8ZM104.058 3.8H102.058V58.616H104.058H106.058V3.8H104.058ZM104.058 58.616H102.058C102.058 61.0646 104.009 63.016 106.458 63.016V61.016V59.016C106.322 59.016 106.229 58.967 106.168 58.9058C106.107 58.8446 106.058 58.7515 106.058 58.616H104.058ZM106.458 61.016V63.016H120.57V61.016V59.016H106.458V61.016ZM120.57 61.016H122.57V3.8H120.57H118.57V61.016H120.57ZM120.57 3.8V5.8H130.554V3.8V1.8H120.57V3.8ZM130.554 3.8H128.554V61.016H130.554H132.554V3.8H130.554ZM130.554 61.016V63.016H147.066V61.016V59.016H130.554V61.016ZM147.066 61.016H149.066V3.8H147.066H145.066V61.016H147.066ZM147.066 3.8V5.8H157.05V3.8V1.8H147.066V3.8ZM157.05 3.8H155.05V71H157.05H159.05V3.8H157.05ZM157.05 71V69H104.826V71V73H157.05V71ZM163.756 3.8V1.8H161.756V3.8H163.756ZM173.74 3.8H175.74V1.8H173.74V3.8ZM193.036 3.8V1.8H191.036V3.8H193.036ZM203.02 3.8H205.02V1.8H203.02V3.8ZM207.628 61.784H209.628V59.784H207.628V61.784ZM207.628 71.96V73.96H209.628V71.96H207.628ZM194.956 67.832L196.571 66.652L195.36 64.9947L193.735 66.2484L194.956 67.832ZM163.756 51.8H165.756V3.8H163.756H161.756V51.8H163.756ZM163.756 3.8V5.8H173.74V3.8V1.8H163.756V3.8ZM173.74 3.8H171.74V51.8H173.74H175.74V3.8H173.74ZM173.74 51.8H171.74C171.74 58.2676 176.943 63.496 183.34 63.496V61.496V59.496C179.178 59.496 175.74 56.0844 175.74 51.8H173.74ZM183.34 61.496V63.496C190.173 63.496 195.036 57.9272 195.036 51.896H193.036H191.036C191.036 55.8488 187.835 59.496 183.34 59.496V61.496ZM193.036 51.896H195.036V3.8H193.036H191.036V51.896H193.036ZM193.036 3.8V5.8H203.02V3.8V1.8H193.036V3.8ZM203.02 3.8H201.02V57.56H203.02H205.02V3.8H203.02ZM203.02 57.56H201.02C201.02 59.2454 201.379 60.8437 202.392 62.0427C203.457 63.303 204.952 63.784 206.476 63.784V61.784V59.784C205.793 59.784 205.559 59.593 205.448 59.4613C205.285 59.2683 205.02 58.7546 205.02 57.56H203.02ZM206.476 61.784V63.784H207.628V61.784V59.784H206.476V61.784ZM207.628 61.784H205.628V71.96H207.628H209.628V61.784H207.628ZM207.628 71.96V69.96H203.02V71.96V73.96H207.628V71.96ZM203.02 71.96V69.96C200.427 69.96 198.038 68.6596 196.571 66.652L194.956 67.832L193.341 69.012C195.522 71.9964 199.085 73.96 203.02 73.96V71.96ZM194.956 67.832L193.735 66.2484C190.663 68.6183 187.434 69.96 183.34 69.96V71.96V73.96C188.463 73.96 192.53 72.2297 196.178 69.4156L194.956 67.832ZM183.34 71.96V69.96C173.866 69.96 165.756 62.6764 165.756 51.8H163.756H161.756C161.756 64.9236 171.695 73.96 183.34 73.96V71.96ZM237.939 71H235.939V73H237.939V71ZM237.939 3.8V1.8H235.939V3.8H237.939ZM247.923 3.8H249.923V1.8H247.923V3.8ZM247.923 32.312H245.923V34.312H247.923V32.312ZM251.955 32.312V34.312H253.212L253.757 33.1796L251.955 32.312ZM265.683 3.8V1.8H264.426L263.881 2.93236L265.683 3.8ZM276.723 3.8L278.525 4.66747L279.905 1.8H276.723V3.8ZM260.595 37.304L258.793 36.4365L258.376 37.3015L258.791 38.1675L260.595 37.304ZM276.723 71V73H279.897L278.527 70.1365L276.723 71ZM265.683 71L263.878 71.8629L264.422 73H265.683V71ZM251.955 42.296L253.759 41.4331L253.215 40.296H251.955V42.296ZM247.923 42.296V40.296H245.923V42.296H247.923ZM247.923 71V73H249.923V71H247.923ZM237.939 71H239.939V3.8H237.939H235.939V71H237.939ZM237.939 3.8V5.8H247.923V3.8V1.8H237.939V3.8ZM247.923 3.8H245.923V32.312H247.923H249.923V3.8H247.923ZM247.923 32.312V34.312H251.955V32.312V30.312H247.923V32.312ZM251.955 32.312L253.757 33.1796L267.485 4.66763L265.683 3.8L263.881 2.93236L250.153 31.4444L251.955 32.312ZM265.683 3.8V5.8H276.723V3.8V1.8H265.683V3.8ZM276.723 3.8L274.921 2.93252L258.793 36.4365L260.595 37.304L262.397 38.1715L278.525 4.66747L276.723 3.8ZM260.595 37.304L258.791 38.1675L274.919 71.8635L276.723 71L278.527 70.1365L262.399 36.4405L260.595 37.304ZM276.723 71V69H265.683V71V73H276.723V71ZM265.683 71L267.487 70.1371L253.759 41.4331L251.955 42.296L250.15 43.1589L263.878 71.8629L265.683 71ZM251.955 42.296V40.296H247.923V42.296V44.296H251.955V42.296ZM247.923 42.296H245.923V71H247.923H249.923V42.296H247.923ZM247.923 71V69H237.939V71V73H247.923V71ZM297.553 2.84V4.84C306.837 4.84 314.081 12.125 314.081 21.08H316.081H318.081C318.081 9.87503 309.005 0.839996 297.553 0.839996V2.84ZM316.081 21.08H314.081V53.72H316.081H318.081V21.08H316.081ZM316.081 53.72H314.081C314.081 62.5858 306.83 69.96 297.553 69.96V71.96V73.96C309.012 73.96 318.081 64.8222 318.081 53.72H316.081ZM297.553 71.96V69.96C288.468 69.96 281.121 62.5858 281.121 53.72H279.121H277.121C277.121 64.8222 286.286 73.96 297.553 73.96V71.96ZM279.121 53.72H281.121V21.08H279.121H277.121V53.72H279.121ZM279.121 21.08H281.121C281.121 12.125 288.461 4.84 297.553 4.84V2.84V0.839996C286.293 0.839996 277.121 9.87503 277.121 21.08H279.121ZM306.097 21.176H308.097C308.097 15.4193 303.317 10.824 297.553 10.824V12.824V14.824C301.197 14.824 304.097 17.7167 304.097 21.176H306.097ZM297.553 12.824V10.824C291.981 10.824 287.105 15.4193 287.105 21.176H289.105H291.105C291.105 17.7167 294.101 14.824 297.553 14.824V12.824ZM289.105 21.176H287.105V53.624H289.105H291.105V21.176H289.105ZM289.105 53.624H287.105C287.105 59.2995 291.997 63.88 297.553 63.88V61.88V59.88C294.086 59.88 291.105 56.9725 291.105 53.624H289.105ZM297.553 61.88V63.88C303.302 63.88 308.097 59.2995 308.097 53.624H306.097H304.097C304.097 56.9725 301.213 59.88 297.553 59.88V61.88ZM306.097 53.624H308.097V21.176H306.097H304.097V53.624H306.097ZM360.322 3.8H362.322V1.8H360.322V3.8ZM360.322 71V73H362.322V71H360.322ZM350.338 71H348.338V73H350.338V71ZM350.338 42.872H352.338V40.872H350.338V42.872ZM332.77 42.872V40.872H330.77V42.872H332.77ZM332.77 71V73H334.77V71H332.77ZM322.786 71H320.786V73H322.786V71ZM322.786 3.8V1.8H320.786V3.8H322.786ZM332.77 3.8H334.77V1.8H332.77V3.8ZM332.77 32.888H330.77V34.888H332.77V32.888ZM350.338 32.888V34.888H352.338V32.888H350.338ZM350.338 3.8V1.8H348.338V3.8H350.338ZM360.322 3.8H358.322V71H360.322H362.322V3.8H360.322ZM360.322 71V69H350.338V71V73H360.322V71ZM350.338 71H352.338V42.872H350.338H348.338V71H350.338ZM350.338 42.872V40.872H332.77V42.872V44.872H350.338V42.872ZM332.77 42.872H330.77V71H332.77H334.77V42.872H332.77ZM332.77 71V69H322.786V71V73H332.77V71ZM322.786 71H324.786V3.8H322.786H320.786V71H322.786ZM322.786 3.8V5.8H332.77V3.8V1.8H322.786V3.8ZM332.77 3.8H330.77V32.888H332.77H334.77V3.8H332.77ZM332.77 32.888V34.888H350.338V32.888V30.888H332.77V32.888ZM350.338 32.888H352.338V3.8H350.338H348.338V32.888H350.338ZM350.338 3.8V5.8H360.322V3.8V1.8H350.338V3.8ZM401.623 3.8H403.623V1.8H401.623V3.8ZM401.623 13.784V15.784H403.623V13.784H401.623ZM388.663 13.784V11.784H386.663V13.784H388.663ZM388.663 71V73H390.663V71H388.663ZM378.679 71H376.679V73H378.679V71ZM378.679 13.784H380.679V11.784H378.679V13.784ZM365.623 13.784H363.623V15.784H365.623V13.784ZM365.623 3.8V1.8H363.623V3.8H365.623ZM401.623 3.8H399.623V13.784H401.623H403.623V3.8H401.623ZM401.623 13.784V11.784H388.663V13.784V15.784H401.623V13.784ZM388.663 13.784H386.663V71H388.663H390.663V13.784H388.663ZM388.663 71V69H378.679V71V73H388.663V71ZM378.679 71H380.679V13.784H378.679H376.679V71H378.679ZM378.679 13.784V11.784H365.623V13.784V15.784H378.679V13.784ZM365.623 13.784H367.623V3.8H365.623H363.623V13.784H365.623ZM365.623 3.8V5.8H401.623V3.8V1.8H365.623V3.8ZM429.92 33.176L429.177 35.033L431.92 36.1301V33.176H429.92ZM413.792 20.504L411.8 20.3229L411.8 20.3304L411.799 20.3379L413.792 20.504ZM413.696 21.656V23.656H415.536L415.689 21.8221L413.696 21.656ZM403.712 21.656H401.712V23.656H403.712V21.656ZM444.512 60.824H446.512V58.824H444.512V60.824ZM444.512 71V73H446.512V71H444.512ZM433.28 68.312L434.694 66.8978L433.412 65.6154L432.011 66.7665L433.28 68.312ZM429.92 58.616L431.4 59.9613L431.92 59.3892V58.616H429.92ZM429.92 44.984H431.92V44.2108L431.4 43.6387L429.92 44.984ZM422.336 71.96V69.96C412.202 69.96 404.08 61.8252 404.08 51.8H402.08H400.08C400.08 64.0468 410.006 73.96 422.336 73.96V71.96ZM402.08 51.8H404.08C404.08 41.7748 412.202 33.64 422.336 33.64V31.64V29.64C410.006 29.64 400.08 39.5532 400.08 51.8H402.08ZM422.336 31.64V33.64C424.636 33.64 426.976 34.1524 429.177 35.033L429.92 33.176L430.663 31.319C428.064 30.2796 425.22 29.64 422.336 29.64V31.64ZM429.92 33.176H431.92V20.504H429.92H427.92V33.176H429.92ZM429.92 20.504H431.92C431.92 14.6976 427.28 10.632 421.856 10.632V12.632V14.632C425.264 14.632 427.92 17.0944 427.92 20.504H429.92ZM421.856 12.632V10.632C416.217 10.632 412.26 15.2676 411.8 20.3229L413.792 20.504L415.784 20.6851C416.092 17.2924 418.663 14.632 421.856 14.632V12.632ZM413.792 20.504L411.799 20.3379L411.703 21.4899L413.696 21.656L415.689 21.8221L415.785 20.6701L413.792 20.504ZM413.696 21.656V19.656H403.712V21.656V23.656H413.696V21.656ZM403.712 21.656H405.712V20.504H403.712H401.712V21.656H403.712ZM403.712 20.504H405.712C405.712 11.7207 413.262 4.84 421.856 4.84V2.84V0.839996C411.25 0.839996 401.712 9.3193 401.712 20.504H403.712ZM421.856 2.84V4.84C430.623 4.84 437.904 10.9285 437.904 20.12H439.904H441.904C441.904 8.38345 432.481 0.839996 421.856 0.839996V2.84ZM439.904 20.12H437.904V57.368H439.904H441.904V20.12H439.904ZM439.904 57.368H437.904C437.904 58.923 438.295 60.4198 439.435 61.4901C440.55 62.5372 442.013 62.824 443.36 62.824V60.824V58.824C442.499 58.824 442.234 58.6308 442.173 58.5739C442.137 58.5402 441.904 58.309 441.904 57.368H439.904ZM443.36 60.824V62.824H444.512V60.824V58.824H443.36V60.824ZM444.512 60.824H442.512V71H444.512H446.512V60.824H444.512ZM444.512 71V69H440V71V73H444.512V71ZM440 71V69C437.833 69 435.945 68.1483 434.694 66.8978L433.28 68.312L431.866 69.7262C433.879 71.7397 436.791 73 440 73V71ZM433.28 68.312L432.011 66.7665C429.715 68.652 426.144 69.96 422.336 69.96V71.96V73.96C426.976 73.96 431.469 72.388 434.549 69.8575L433.28 68.312ZM422.336 62.072V64.072C425.934 64.072 429.142 62.4447 431.4 59.9613L429.92 58.616L428.44 57.2707C426.858 59.0113 424.69 60.072 422.336 60.072V62.072ZM429.92 58.616H431.92V44.984H429.92H427.92V58.616H429.92ZM429.92 44.984L431.4 43.6387C429.142 41.1553 425.934 39.528 422.336 39.528V41.528V43.528C424.69 43.528 426.858 44.5887 428.44 46.3293L429.92 44.984ZM422.336 41.528V39.528C415.567 39.528 410.064 45.0314 410.064 51.8H412.064H414.064C414.064 47.2406 417.777 43.528 422.336 43.528V41.528ZM412.064 51.8H410.064C410.064 58.5686 415.567 64.072 422.336 64.072V62.072V60.072C417.777 60.072 414.064 56.3594 414.064 51.8H412.064ZM449.776 71H447.776V73H449.776V71ZM449.776 3.8V1.8H447.776V3.8H449.776ZM459.76 3.8H461.76V1.8H459.76V3.8ZM459.76 32.312H457.76V34.312H459.76V32.312ZM463.792 32.312V34.312H465.049L465.594 33.1796L463.792 32.312ZM477.52 3.8V1.8H476.263L475.718 2.93236L477.52 3.8ZM488.56 3.8L490.362 4.66747L491.743 1.8H488.56V3.8ZM472.432 37.304L470.63 36.4365L470.214 37.3015L470.628 38.1675L472.432 37.304ZM488.56 71V73H491.735L490.364 70.1365L488.56 71ZM477.52 71L475.716 71.8629L476.26 73H477.52V71ZM463.792 42.296L465.596 41.4331L465.053 40.296H463.792V42.296ZM459.76 42.296V40.296H457.76V42.296H459.76ZM459.76 71V73H461.76V71H459.76ZM449.776 71H451.776V3.8H449.776H447.776V71H449.776ZM449.776 3.8V5.8H459.76V3.8V1.8H449.776V3.8ZM459.76 3.8H457.76V32.312H459.76H461.76V3.8H459.76ZM459.76 32.312V34.312H463.792V32.312V30.312H459.76V32.312ZM463.792 32.312L465.594 33.1796L479.322 4.66763L477.52 3.8L475.718 2.93236L461.99 31.4444L463.792 32.312ZM477.52 3.8V5.8H488.56V3.8V1.8H477.52V3.8ZM488.56 3.8L486.758 2.93252L470.63 36.4365L472.432 37.304L474.234 38.1715L490.362 4.66747L488.56 3.8ZM472.432 37.304L470.628 38.1675L486.756 71.8635L488.56 71L490.364 70.1365L474.236 36.4405L472.432 37.304ZM488.56 71V69H477.52V71V73H488.56V71ZM477.52 71L479.324 70.1371L465.596 41.4331L463.792 42.296L461.988 43.1589L475.716 71.8629L477.52 71ZM463.792 42.296V40.296H459.76V42.296V44.296H463.792V42.296ZM459.76 42.296H457.76V71H459.76H461.76V42.296H459.76ZM459.76 71V69H449.776V71V73H459.76V71ZM527.394 3.8H529.394V1.8H527.394V3.8ZM527.394 13.784V15.784H529.394V13.784H527.394ZM514.434 13.784V11.784H512.434V13.784H514.434ZM514.434 71V73H516.434V71H514.434ZM504.45 71H502.45V73H504.45V71ZM504.45 13.784H506.45V11.784H504.45V13.784ZM491.394 13.784H489.394V15.784H491.394V13.784ZM491.394 3.8V1.8H489.394V3.8H491.394ZM527.394 3.8H525.394V13.784H527.394H529.394V3.8H527.394ZM527.394 13.784V11.784H514.434V13.784V15.784H527.394V13.784ZM514.434 13.784H512.434V71H514.434H516.434V13.784H514.434ZM514.434 71V69H504.45V71V73H514.434V71ZM504.45 71H506.45V13.784H504.45H502.45V71H504.45ZM504.45 13.784V11.784H491.394V13.784V15.784H504.45V13.784ZM491.394 13.784H493.394V3.8H491.394H489.394V13.784H491.394ZM491.394 3.8V5.8H527.394V3.8V1.8H491.394V3.8ZM584.399 71V73H586.399V71H584.399ZM584.399 3.8H586.399V1.8H584.399V3.8ZM574.511 3.8V1.8H572.511V3.8H574.511ZM574.511 71H572.511V73H574.511V71ZM532.655 71H530.655V73H532.655V71ZM532.655 3.8V1.8H530.655V3.8H532.655ZM542.639 3.8H544.639V1.8H542.639V3.8ZM542.639 31.928H540.639V33.928H542.639V31.928ZM542.735 41.912V39.912H540.735V41.912H542.735ZM542.735 61.016H540.735V63.016H542.735V61.016ZM584.399 71H586.399V3.8H584.399H582.399V71H584.399ZM584.399 3.8V1.8H574.511V3.8V5.8H584.399V3.8ZM574.511 3.8H572.511V71H574.511H576.511V3.8H574.511ZM574.511 71V73H584.399V71V69H574.511V71ZM550.031 31.928V33.928C559.685 33.928 567.615 41.6789 567.615 51.608H569.615H571.615C571.615 39.4571 561.881 29.928 550.031 29.928V31.928ZM569.615 51.608H567.615C567.615 61.2299 559.704 69 550.031 69V71V73C561.862 73 571.615 63.4901 571.615 51.608H569.615ZM550.031 71V69H532.655V71V73H550.031V71ZM532.655 71H534.655V3.8H532.655H530.655V71H532.655ZM532.655 3.8V5.8H542.639V3.8V1.8H532.655V3.8ZM542.639 3.8H540.639V31.928H542.639H544.639V3.8H542.639ZM542.639 31.928V33.928H550.031V31.928V29.928H542.639V31.928ZM550.031 61.016V63.016C556.389 63.016 561.631 57.9227 561.631 51.512H559.631H557.631C557.631 55.6613 554.233 59.016 550.031 59.016V61.016ZM559.631 51.512H561.631C561.631 45.0184 556.402 39.912 550.031 39.912V41.912V43.912C554.219 43.912 557.631 47.2536 557.631 51.512H559.631ZM550.031 41.912V39.912H542.735V41.912V43.912H550.031V41.912ZM542.735 41.912H540.735V61.016H542.735H544.735V41.912H542.735ZM542.735 61.016V63.016H550.031V61.016V59.016H542.735V61.016Z" fill="#342A1E" mask="url(#path-1-outside-1_316_29)"/>
</svg>
