<svg width="138" height="35" viewBox="0 0 138 35" fill="none" xmlns="http://www.w3.org/2000/svg">
<path d="M0.9 34.5V0.899998H5.892V15.156H7.908L14.772 0.899998H20.292L12.228 17.652L20.292 34.5H14.772L7.908 20.148H5.892V34.5H0.9ZM30.7073 0.419998C35.8913 0.419998 39.9713 4.5 39.9713 9.54V25.86C39.9713 30.852 35.8913 34.98 30.7073 34.98C25.6193 34.98 21.4913 30.852 21.4913 25.86V9.54C21.4913 4.5 25.6193 0.419998 30.7073 0.419998ZM34.9793 9.588C34.9793 7.284 33.0593 5.412 30.7073 5.412C28.4513 5.412 26.4833 7.284 26.4833 9.588V25.812C26.4833 28.068 28.4513 29.94 30.7073 29.94C33.0593 29.94 34.9793 28.068 34.9793 25.812V9.588ZM41.4038 15.876C41.4038 9.828 46.1078 5.604 51.7718 5.604H55.2278V0.419998H60.2198V5.604H63.6758C69.3878 5.604 74.0438 9.828 74.0438 15.876C74.0438 21.972 69.3878 26.196 63.6758 26.196H60.2198V34.5H55.2278V26.196H51.7238C46.0598 26.196 41.4038 21.972 41.4038 15.876ZM46.3958 15.876C46.3958 19.428 49.0358 21.204 51.9638 21.204H55.2278V10.5H51.9638C49.0358 10.5 46.3958 12.372 46.3958 15.876ZM63.4358 21.252C66.3638 21.252 69.0518 19.428 69.0518 15.78C69.0518 12.372 66.3638 10.5 63.4358 10.5H60.2198V21.252H63.4358ZM84.5171 34.98C79.4771 34.98 75.4931 30.756 75.4931 25.572V9.972C75.4931 4.692 79.7651 0.419998 84.8531 0.419998C89.9411 0.419998 93.9731 4.692 93.9731 9.972V20.772H80.4851V25.572C80.4851 28.02 82.1651 30.036 84.5171 30.036C86.4851 30.036 88.0691 28.692 88.6451 26.916H93.6371C92.9651 31.476 89.0771 34.98 84.5171 34.98ZM80.4851 15.78H88.9811V9.876C88.9811 7.428 87.1091 5.412 84.7571 5.412C82.4051 5.412 80.4851 7.428 80.4851 9.876V15.78ZM105.635 34.98C100.595 34.98 96.6113 30.756 96.6113 25.572V9.972C96.6113 4.692 100.883 0.419998 105.971 0.419998C111.059 0.419998 115.091 4.692 115.091 9.972V20.772H101.603V25.572C101.603 28.02 103.283 30.036 105.635 30.036C107.603 30.036 109.187 28.692 109.763 26.916H114.755C114.083 31.476 110.195 34.98 105.635 34.98ZM101.603 15.78H110.099V9.876C110.099 7.428 108.227 5.412 105.875 5.412C103.523 5.412 101.603 7.428 101.603 9.876V15.78ZM118.209 34.5V0.899998H123.201V15.156H125.217L132.081 0.899998H137.601L129.537 17.652L137.601 34.5H132.081L125.217 20.148H123.201V34.5H118.209Z" fill="#FEFBF8"/>
</svg>
