<svg width="138" height="36" viewBox="0 0 138 36" fill="none" xmlns="http://www.w3.org/2000/svg">
<path d="M0.4 35V1.4H5.392V15.656H7.408L14.272 1.4H19.792L11.728 18.152L19.792 35H14.272L7.408 20.648H5.392V35H0.4ZM30.2073 0.919998C35.3913 0.919998 39.4713 5 39.4713 10.04V26.36C39.4713 31.352 35.3913 35.48 30.2073 35.48C25.1193 35.48 20.9913 31.352 20.9913 26.36V10.04C20.9913 5 25.1193 0.919998 30.2073 0.919998ZM34.4793 10.088C34.4793 7.784 32.5593 5.912 30.2073 5.912C27.9513 5.912 25.9833 7.784 25.9833 10.088V26.312C25.9833 28.568 27.9513 30.44 30.2073 30.44C32.5593 30.44 34.4793 28.568 34.4793 26.312V10.088ZM40.9038 16.376C40.9038 10.328 45.6078 6.104 51.2718 6.104H54.7278V0.919998H59.7198V6.104H63.1758C68.8878 6.104 73.5438 10.328 73.5438 16.376C73.5438 22.472 68.8878 26.696 63.1758 26.696H59.7198V35H54.7278V26.696H51.2238C45.5598 26.696 40.9038 22.472 40.9038 16.376ZM45.8958 16.376C45.8958 19.928 48.5358 21.704 51.4638 21.704H54.7278V11H51.4638C48.5358 11 45.8958 12.872 45.8958 16.376ZM62.9358 21.752C65.8638 21.752 68.5518 19.928 68.5518 16.28C68.5518 12.872 65.8638 11 62.9358 11H59.7198V21.752H62.9358ZM84.0171 35.48C78.9771 35.48 74.9931 31.256 74.9931 26.072V10.472C74.9931 5.192 79.2651 0.919998 84.3531 0.919998C89.4411 0.919998 93.4731 5.192 93.4731 10.472V21.272H79.9851V26.072C79.9851 28.52 81.6651 30.536 84.0171 30.536C85.9851 30.536 87.5691 29.192 88.1451 27.416H93.1371C92.4651 31.976 88.5771 35.48 84.0171 35.48ZM79.9851 16.28H88.4811V10.376C88.4811 7.928 86.6091 5.912 84.2571 5.912C81.9051 5.912 79.9851 7.928 79.9851 10.376V16.28ZM105.135 35.48C100.095 35.48 96.1113 31.256 96.1113 26.072V10.472C96.1113 5.192 100.383 0.919998 105.471 0.919998C110.559 0.919998 114.591 5.192 114.591 10.472V21.272H101.103V26.072C101.103 28.52 102.783 30.536 105.135 30.536C107.103 30.536 108.687 29.192 109.263 27.416H114.255C113.583 31.976 109.695 35.48 105.135 35.48ZM101.103 16.28H109.599V10.376C109.599 7.928 107.727 5.912 105.375 5.912C103.023 5.912 101.103 7.928 101.103 10.376V16.28ZM117.709 35V1.4H122.701V15.656H124.717L131.581 1.4H137.101L129.037 18.152L137.101 35H131.581L124.717 20.648H122.701V35H117.709Z" fill="#564735"/>
</svg>
