<svg width="597" height="97" viewBox="0 0 597 97" fill="none" xmlns="http://www.w3.org/2000/svg">
<mask id="path-1-outside-1_34_269" maskUnits="userSpaceOnUse" x="0" y="0" width="597" height="97" fill="black">
<rect fill="white" width="597" height="97"/>
<path d="M52.688 3.39999V93H39.376V55.496H15.952V93H2.63999V3.39999H15.952V42.184H39.376V3.39999H52.688ZM88.683 94.28C73.707 94.28 61.675 82.248 61.675 67.4C61.675 52.552 73.707 40.52 88.683 40.52C92.139 40.52 95.595 41.288 98.795 42.568V25.672C98.795 19.528 93.931 15.176 88.043 15.176C82.155 15.176 77.803 20.04 77.291 25.672L77.163 27.208H63.851V25.672C63.851 12.36 75.243 2.12 88.043 2.12C100.971 2.12 112.107 11.208 112.107 25.16V74.824C112.107 78.152 113.771 79.432 116.715 79.432H118.251V93H112.235C108.651 93 105.451 91.592 103.275 89.416C99.691 92.36 94.315 94.28 88.683 94.28ZM88.683 81.096C92.651 81.096 96.235 79.304 98.795 76.488V58.312C96.235 55.496 92.651 53.704 88.683 53.704C81.131 53.704 74.987 59.848 74.987 67.4C74.987 74.952 81.131 81.096 88.683 81.096ZM139.606 93C131.158 93 125.27 87.112 125.27 78.408V3.39999H138.582V76.488C138.582 78.28 139.99 79.688 141.782 79.688H160.598V3.39999H173.91V79.688H195.926V3.39999H209.238V93H139.606ZM242.244 94.28C228.804 94.28 218.18 83.016 218.18 69.192V27.592C218.18 13.512 229.572 2.12 243.14 2.12C256.708 2.12 267.46 13.512 267.46 27.592V56.392H231.492V69.192C231.492 75.72 235.972 81.096 242.244 81.096C247.492 81.096 251.716 77.512 253.252 72.776H266.564C264.772 84.936 254.404 94.28 242.244 94.28ZM231.492 43.08H254.148V27.336C254.148 20.808 249.156 15.432 242.884 15.432C236.612 15.432 231.492 20.808 231.492 27.336V43.08ZM309.09 93V3.39999H324.834L349.794 76.104L374.754 3.39999H390.498V93H377.442L377.058 31.048L356.578 93H343.01L322.53 31.048L322.146 93H309.09ZM423.564 94.28C410.124 94.28 399.5 83.016 399.5 69.192V27.592C399.5 13.512 410.892 2.12 424.46 2.12C438.028 2.12 448.78 13.512 448.78 27.592V56.392H412.812V69.192C412.812 75.72 417.292 81.096 423.564 81.096C428.812 81.096 433.036 77.512 434.572 72.776H447.884C446.092 84.936 435.724 94.28 423.564 94.28ZM412.812 43.08H435.468V27.336C435.468 20.808 430.476 15.432 424.204 15.432C417.932 15.432 412.812 20.808 412.812 27.336V43.08ZM507.143 3.39999V93H493.831V55.496H470.407V93H457.095V3.39999H470.407V42.184H493.831V3.39999H507.143ZM570.402 94.28C557.09 94.28 546.21 83.4 546.21 70.088V53.576H534.69V93H521.378V53.576H514.21V40.264H521.378V3.272H534.69V40.264H546.21V26.312C546.21 13 557.09 2.12 570.402 2.12C583.842 2.12 594.594 13 594.594 26.312V70.088C594.594 83.4 583.842 94.28 570.402 94.28ZM559.522 70.088C559.522 76.104 564.386 80.968 570.402 80.968C576.418 80.968 581.41 76.104 581.41 70.088V26.312C581.41 20.296 576.418 15.432 570.402 15.432C564.386 15.432 559.522 20.296 559.522 26.312V70.088Z"/>
</mask>
<path d="M52.688 3.39999H54.688V1.39999H52.688V3.39999ZM52.688 93V95H54.688V93H52.688ZM39.376 93H37.376V95H39.376V93ZM39.376 55.496H41.376V53.496H39.376V55.496ZM15.952 55.496V53.496H13.952V55.496H15.952ZM15.952 93V95H17.952V93H15.952ZM2.63999 93H0.63999V95H2.63999V93ZM2.63999 3.39999V1.39999H0.63999V3.39999H2.63999ZM15.952 3.39999H17.952V1.39999H15.952V3.39999ZM15.952 42.184H13.952V44.184H15.952V42.184ZM39.376 42.184V44.184H41.376V42.184H39.376ZM39.376 3.39999V1.39999H37.376V3.39999H39.376ZM52.688 3.39999H50.688V93H52.688H54.688V3.39999H52.688ZM52.688 93V91H39.376V93V95H52.688V93ZM39.376 93H41.376V55.496H39.376H37.376V93H39.376ZM39.376 55.496V53.496H15.952V55.496V57.496H39.376V55.496ZM15.952 55.496H13.952V93H15.952H17.952V55.496H15.952ZM15.952 93V91H2.63999V93V95H15.952V93ZM2.63999 93H4.63999V3.39999H2.63999H0.63999V93H2.63999ZM2.63999 3.39999V5.39999H15.952V3.39999V1.39999H2.63999V3.39999ZM15.952 3.39999H13.952V42.184H15.952H17.952V3.39999H15.952ZM15.952 42.184V44.184H39.376V42.184V40.184H15.952V42.184ZM39.376 42.184H41.376V3.39999H39.376H37.376V42.184H39.376ZM39.376 3.39999V5.39999H52.688V3.39999V1.39999H39.376V3.39999ZM98.795 42.568L98.0522 44.425L100.795 45.5221V42.568H98.795ZM77.291 25.672L75.2992 25.4909L75.2985 25.4984L75.2979 25.5059L77.291 25.672ZM77.163 27.208V29.208H79.0033L79.1561 27.3741L77.163 27.208ZM63.851 27.208H61.851V29.208H63.851V27.208ZM118.251 79.432H120.251V77.432H118.251V79.432ZM118.251 93V95H120.251V93H118.251ZM103.275 89.416L104.689 88.0018L103.407 86.7194L102.006 87.8705L103.275 89.416ZM98.795 76.488L100.275 77.8333L100.795 77.2612V76.488H98.795ZM98.795 58.312H100.795V57.5388L100.275 56.9666L98.795 58.312ZM88.683 94.28V92.28C74.8054 92.28 63.675 81.1372 63.675 67.4H61.675H59.675C59.675 83.3588 72.6086 96.28 88.683 96.28V94.28ZM61.675 67.4H63.675C63.675 53.6628 74.8054 42.52 88.683 42.52V40.52V38.52C72.6086 38.52 59.675 51.4412 59.675 67.4H61.675ZM88.683 40.52V42.52C91.8469 42.52 95.0508 43.2244 98.0522 44.425L98.795 42.568L99.5378 40.711C96.1392 39.3516 92.431 38.52 88.683 38.52V40.52ZM98.795 42.568H100.795V25.672H98.795H96.795V42.568H98.795ZM98.795 25.672H100.795C100.795 18.3296 94.9393 13.176 88.043 13.176V15.176V17.176C92.9227 17.176 96.795 20.7264 96.795 25.672H98.795ZM88.043 15.176V13.176C80.9323 13.176 75.8868 19.0276 75.2992 25.4909L77.291 25.672L79.2828 25.8531C79.7192 21.0524 83.3776 17.176 88.043 17.176V15.176ZM77.291 25.672L75.2979 25.5059L75.1699 27.0419L77.163 27.208L79.1561 27.3741L79.2841 25.8381L77.291 25.672ZM77.163 27.208V25.208H63.851V27.208V29.208H77.163V27.208ZM63.851 27.208H65.851V25.672H63.851H61.851V27.208H63.851ZM63.851 25.672H65.851C65.851 13.5607 76.2489 4.12 88.043 4.12V2.12V0.119995C74.2371 0.119995 61.851 11.1593 61.851 25.672H63.851ZM88.043 2.12V4.12C100.042 4.12 110.107 12.4805 110.107 25.16H112.107H114.107C114.107 9.93545 101.9 0.119995 88.043 0.119995V2.12ZM112.107 25.16H110.107V74.824H112.107H114.107V25.16H112.107ZM112.107 74.824H110.107C110.107 76.795 110.602 78.5798 111.938 79.8341C113.249 81.0652 115 81.432 116.715 81.432V79.432V77.432C115.486 77.432 114.933 77.1588 114.676 76.9179C114.444 76.7002 114.107 76.181 114.107 74.824H112.107ZM116.715 79.432V81.432H118.251V79.432V77.432H116.715V79.432ZM118.251 79.432H116.251V93H118.251H120.251V79.432H118.251ZM118.251 93V91H112.235V93V95H118.251V93ZM112.235 93V91C109.172 91 106.484 89.7963 104.689 88.0018L103.275 89.416L101.861 90.8302C104.418 93.3877 108.13 95 112.235 95V93ZM103.275 89.416L102.006 87.8705C98.8142 90.492 93.8993 92.28 88.683 92.28V94.28V96.28C94.7307 96.28 100.568 94.228 104.544 90.9615L103.275 89.416ZM88.683 81.096V83.096C93.2733 83.096 97.3773 81.0207 100.275 77.8333L98.795 76.488L97.3151 75.1427C95.0927 77.5873 92.0287 79.096 88.683 79.096V81.096ZM98.795 76.488H100.795V58.312H98.795H96.795V76.488H98.795ZM98.795 58.312L100.275 56.9666C97.3773 53.7793 93.2733 51.704 88.683 51.704V53.704V55.704C92.0287 55.704 95.0927 57.2127 97.3151 59.6573L98.795 58.312ZM88.683 53.704V51.704C80.0264 51.704 72.987 58.7434 72.987 67.4H74.987H76.987C76.987 60.9526 82.2356 55.704 88.683 55.704V53.704ZM74.987 67.4H72.987C72.987 76.0566 80.0264 83.096 88.683 83.096V81.096V79.096C82.2356 79.096 76.987 73.8474 76.987 67.4H74.987ZM125.27 3.39999V1.39999H123.27V3.39999H125.27ZM138.582 3.39999H140.582V1.39999H138.582V3.39999ZM160.598 79.688V81.688H162.598V79.688H160.598ZM160.598 3.39999V1.39999H158.598V3.39999H160.598ZM173.91 3.39999H175.91V1.39999H173.91V3.39999ZM173.91 79.688H171.91V81.688H173.91V79.688ZM195.926 79.688V81.688H197.926V79.688H195.926ZM195.926 3.39999V1.39999H193.926V3.39999H195.926ZM209.238 3.39999H211.238V1.39999H209.238V3.39999ZM209.238 93V95H211.238V93H209.238ZM139.606 93V91C135.86 91 132.807 89.7034 130.693 87.5627C128.578 85.4208 127.27 82.2988 127.27 78.408H125.27H123.27C123.27 83.2212 124.906 87.3952 127.847 90.3733C130.789 93.3526 134.904 95 139.606 95V93ZM125.27 78.408H127.27V3.39999H125.27H123.27V78.408H125.27ZM125.27 3.39999V5.39999H138.582V3.39999V1.39999H125.27V3.39999ZM138.582 3.39999H136.582V76.488H138.582H140.582V3.39999H138.582ZM138.582 76.488H136.582C136.582 79.3846 138.885 81.688 141.782 81.688V79.688V77.688C141.095 77.688 140.582 77.1754 140.582 76.488H138.582ZM141.782 79.688V81.688H160.598V79.688V77.688H141.782V79.688ZM160.598 79.688H162.598V3.39999H160.598H158.598V79.688H160.598ZM160.598 3.39999V5.39999H173.91V3.39999V1.39999H160.598V3.39999ZM173.91 3.39999H171.91V79.688H173.91H175.91V3.39999H173.91ZM173.91 79.688V81.688H195.926V79.688V77.688H173.91V79.688ZM195.926 79.688H197.926V3.39999H195.926H193.926V79.688H195.926ZM195.926 3.39999V5.39999H209.238V3.39999V1.39999H195.926V3.39999ZM209.238 3.39999H207.238V93H209.238H211.238V3.39999H209.238ZM209.238 93V91H139.606V93V95H209.238V93ZM267.46 56.392V58.392H269.46V56.392H267.46ZM231.492 56.392V54.392H229.492V56.392H231.492ZM253.252 72.776V70.776H251.798L251.35 72.159L253.252 72.776ZM266.564 72.776L268.543 73.0676L268.88 70.776H266.564V72.776ZM231.492 43.08H229.492V45.08H231.492V43.08ZM254.148 43.08V45.08H256.148V43.08H254.148ZM242.244 94.28V92.28C229.996 92.28 220.18 82.0008 220.18 69.192H218.18H216.18C216.18 84.0312 227.612 96.28 242.244 96.28V94.28ZM218.18 69.192H220.18V27.592H218.18H216.18V69.192H218.18ZM218.18 27.592H220.18C220.18 14.5901 230.703 4.12 243.14 4.12V2.12V0.119995C228.441 0.119995 216.18 12.4339 216.18 27.592H218.18ZM243.14 2.12V4.12C255.511 4.12 265.46 14.5215 265.46 27.592H267.46H269.46C269.46 12.5025 257.905 0.119995 243.14 0.119995V2.12ZM267.46 27.592H265.46V56.392H267.46H269.46V27.592H267.46ZM267.46 56.392V54.392H231.492V56.392V58.392H267.46V56.392ZM231.492 56.392H229.492V69.192H231.492H233.492V56.392H231.492ZM231.492 69.192H229.492C229.492 76.58 234.638 83.096 242.244 83.096V81.096V79.096C237.306 79.096 233.492 74.86 233.492 69.192H231.492ZM242.244 81.096V83.096C248.471 83.096 253.387 78.8419 255.154 73.393L253.252 72.776L251.35 72.159C250.045 76.1821 246.513 79.096 242.244 79.096V81.096ZM253.252 72.776V74.776H266.564V72.776V70.776H253.252V72.776ZM266.564 72.776L264.585 72.4844C262.93 83.7145 253.361 92.28 242.244 92.28V94.28V96.28C255.447 96.28 266.614 86.1575 268.543 73.0676L266.564 72.776ZM231.492 43.08V45.08H254.148V43.08V41.08H231.492V43.08ZM254.148 43.08H256.148V27.336H254.148H252.148V43.08H254.148ZM254.148 27.336H256.148C256.148 19.8203 250.374 13.432 242.884 13.432V15.432V17.432C247.938 17.432 252.148 21.7957 252.148 27.336H254.148ZM242.884 15.432V13.432C235.423 13.432 229.492 19.7901 229.492 27.336H231.492H233.492C233.492 21.8259 237.801 17.432 242.884 17.432V15.432ZM231.492 27.336H229.492V43.08H231.492H233.492V27.336H231.492ZM309.09 93H307.09V95H309.09V93ZM309.09 3.39999V1.39999H307.09V3.39999H309.09ZM324.834 3.39999L326.726 2.75058L326.262 1.39999H324.834V3.39999ZM349.794 76.104L347.902 76.7534L349.794 82.2634L351.686 76.7534L349.794 76.104ZM374.754 3.39999V1.39999H373.326L372.862 2.75058L374.754 3.39999ZM390.498 3.39999H392.498V1.39999H390.498V3.39999ZM390.498 93V95H392.498V93H390.498ZM377.442 93L375.442 93.0124L375.454 95H377.442V93ZM377.058 31.048L379.058 31.0356L375.159 30.4203L377.058 31.048ZM356.578 93V95H358.023L358.477 93.6277L356.578 93ZM343.01 93L341.111 93.6277L341.565 95H343.01V93ZM322.53 31.048L324.429 30.4203L320.53 31.0356L322.53 31.048ZM322.146 93V95H324.134L324.146 93.0124L322.146 93ZM309.09 93H311.09V3.39999H309.09H307.09V93H309.09ZM309.09 3.39999V5.39999H324.834V3.39999V1.39999H309.09V3.39999ZM324.834 3.39999L322.942 4.04941L347.902 76.7534L349.794 76.104L351.686 75.4546L326.726 2.75058L324.834 3.39999ZM349.794 76.104L351.686 76.7534L376.646 4.04941L374.754 3.39999L372.862 2.75058L347.902 75.4546L349.794 76.104ZM374.754 3.39999V5.39999H390.498V3.39999V1.39999H374.754V3.39999ZM390.498 3.39999H388.498V93H390.498H392.498V3.39999H390.498ZM390.498 93V91H377.442V93V95H390.498V93ZM377.442 93L379.442 92.9876L379.058 31.0356L377.058 31.048L375.058 31.0604L375.442 93.0124L377.442 93ZM377.058 31.048L375.159 30.4203L354.679 92.3723L356.578 93L358.477 93.6277L378.957 31.6757L377.058 31.048ZM356.578 93V91H343.01V93V95H356.578V93ZM343.01 93L344.909 92.3723L324.429 30.4203L322.53 31.048L320.631 31.6757L341.111 93.6277L343.01 93ZM322.53 31.048L320.53 31.0356L320.146 92.9876L322.146 93L324.146 93.0124L324.53 31.0604L322.53 31.048ZM322.146 93V91H309.09V93V95H322.146V93ZM448.78 56.392V58.392H450.78V56.392H448.78ZM412.812 56.392V54.392H410.812V56.392H412.812ZM434.572 72.776V70.776H433.118L432.67 72.159L434.572 72.776ZM447.884 72.776L449.863 73.0676L450.2 70.776H447.884V72.776ZM412.812 43.08H410.812V45.08H412.812V43.08ZM435.468 43.08V45.08H437.468V43.08H435.468ZM423.564 94.28V92.28C411.316 92.28 401.5 82.0008 401.5 69.192H399.5H397.5C397.5 84.0312 408.932 96.28 423.564 96.28V94.28ZM399.5 69.192H401.5V27.592H399.5H397.5V69.192H399.5ZM399.5 27.592H401.5C401.5 14.5901 412.023 4.12 424.46 4.12V2.12V0.119995C409.761 0.119995 397.5 12.4339 397.5 27.592H399.5ZM424.46 2.12V4.12C436.831 4.12 446.78 14.5215 446.78 27.592H448.78H450.78C450.78 12.5025 439.225 0.119995 424.46 0.119995V2.12ZM448.78 27.592H446.78V56.392H448.78H450.78V27.592H448.78ZM448.78 56.392V54.392H412.812V56.392V58.392H448.78V56.392ZM412.812 56.392H410.812V69.192H412.812H414.812V56.392H412.812ZM412.812 69.192H410.812C410.812 76.58 415.958 83.096 423.564 83.096V81.096V79.096C418.626 79.096 414.812 74.86 414.812 69.192H412.812ZM423.564 81.096V83.096C429.791 83.096 434.707 78.8419 436.474 73.393L434.572 72.776L432.67 72.159C431.365 76.1821 427.833 79.096 423.564 79.096V81.096ZM434.572 72.776V74.776H447.884V72.776V70.776H434.572V72.776ZM447.884 72.776L445.905 72.4844C444.25 83.7145 434.681 92.28 423.564 92.28V94.28V96.28C436.767 96.28 447.934 86.1575 449.863 73.0676L447.884 72.776ZM412.812 43.08V45.08H435.468V43.08V41.08H412.812V43.08ZM435.468 43.08H437.468V27.336H435.468H433.468V43.08H435.468ZM435.468 27.336H437.468C437.468 19.8203 431.694 13.432 424.204 13.432V15.432V17.432C429.258 17.432 433.468 21.7957 433.468 27.336H435.468ZM424.204 15.432V13.432C416.743 13.432 410.812 19.7901 410.812 27.336H412.812H414.812C414.812 21.8259 419.121 17.432 424.204 17.432V15.432ZM412.812 27.336H410.812V43.08H412.812H414.812V27.336H412.812ZM507.143 3.39999H509.143V1.39999H507.143V3.39999ZM507.143 93V95H509.143V93H507.143ZM493.831 93H491.831V95H493.831V93ZM493.831 55.496H495.831V53.496H493.831V55.496ZM470.407 55.496V53.496H468.407V55.496H470.407ZM470.407 93V95H472.407V93H470.407ZM457.095 93H455.095V95H457.095V93ZM457.095 3.39999V1.39999H455.095V3.39999H457.095ZM470.407 3.39999H472.407V1.39999H470.407V3.39999ZM470.407 42.184H468.407V44.184H470.407V42.184ZM493.831 42.184V44.184H495.831V42.184H493.831ZM493.831 3.39999V1.39999H491.831V3.39999H493.831ZM507.143 3.39999H505.143V93H507.143H509.143V3.39999H507.143ZM507.143 93V91H493.831V93V95H507.143V93ZM493.831 93H495.831V55.496H493.831H491.831V93H493.831ZM493.831 55.496V53.496H470.407V55.496V57.496H493.831V55.496ZM470.407 55.496H468.407V93H470.407H472.407V55.496H470.407ZM470.407 93V91H457.095V93V95H470.407V93ZM457.095 93H459.095V3.39999H457.095H455.095V93H457.095ZM457.095 3.39999V5.39999H470.407V3.39999V1.39999H457.095V3.39999ZM470.407 3.39999H468.407V42.184H470.407H472.407V3.39999H470.407ZM470.407 42.184V44.184H493.831V42.184V40.184H470.407V42.184ZM493.831 42.184H495.831V3.39999H493.831H491.831V42.184H493.831ZM493.831 3.39999V5.39999H507.143V3.39999V1.39999H493.831V3.39999ZM546.21 53.576H548.21V51.576H546.21V53.576ZM534.69 53.576V51.576H532.69V53.576H534.69ZM534.69 93V95H536.69V93H534.69ZM521.378 93H519.378V95H521.378V93ZM521.378 53.576H523.378V51.576H521.378V53.576ZM514.21 53.576H512.21V55.576H514.21V53.576ZM514.21 40.264V38.264H512.21V40.264H514.21ZM521.378 40.264V42.264H523.378V40.264H521.378ZM521.378 3.272V1.272H519.378V3.272H521.378ZM534.69 3.272H536.69V1.272H534.69V3.272ZM534.69 40.264H532.69V42.264H534.69V40.264ZM546.21 40.264V42.264H548.21V40.264H546.21ZM570.402 94.28V92.28C558.195 92.28 548.21 82.2954 548.21 70.088H546.21H544.21C544.21 84.5046 555.985 96.28 570.402 96.28V94.28ZM546.21 70.088H548.21V53.576H546.21H544.21V70.088H546.21ZM546.21 53.576V51.576H534.69V53.576V55.576H546.21V53.576ZM534.69 53.576H532.69V93H534.69H536.69V53.576H534.69ZM534.69 93V91H521.378V93V95H534.69V93ZM521.378 93H523.378V53.576H521.378H519.378V93H521.378ZM521.378 53.576V51.576H514.21V53.576V55.576H521.378V53.576ZM514.21 53.576H516.21V40.264H514.21H512.21V53.576H514.21ZM514.21 40.264V42.264H521.378V40.264V38.264H514.21V40.264ZM521.378 40.264H523.378V3.272H521.378H519.378V40.264H521.378ZM521.378 3.272V5.272H534.69V3.272V1.272H521.378V3.272ZM534.69 3.272H532.69V40.264H534.69H536.69V3.272H534.69ZM534.69 40.264V42.264H546.21V40.264V38.264H534.69V40.264ZM546.21 40.264H548.21V26.312H546.21H544.21V40.264H546.21ZM546.21 26.312H548.21C548.21 14.1046 558.195 4.12 570.402 4.12V2.12V0.119995C555.985 0.119995 544.21 11.8954 544.21 26.312H546.21ZM570.402 2.12V4.12C582.731 4.12 592.594 14.0977 592.594 26.312H594.594H596.594C596.594 11.9023 584.953 0.119995 570.402 0.119995V2.12ZM594.594 26.312H592.594V70.088H594.594H596.594V26.312H594.594ZM594.594 70.088H592.594C592.594 82.3023 582.731 92.28 570.402 92.28V94.28V96.28C584.953 96.28 596.594 84.4977 596.594 70.088H594.594ZM559.522 70.088H557.522C557.522 77.2086 563.281 82.968 570.402 82.968V80.968V78.968C565.491 78.968 561.522 74.9994 561.522 70.088H559.522ZM570.402 80.968V82.968C577.492 82.968 583.41 77.2389 583.41 70.088H581.41H579.41C579.41 74.9691 575.344 78.968 570.402 78.968V80.968ZM581.41 70.088H583.41V26.312H581.41H579.41V70.088H581.41ZM581.41 26.312H583.41C583.41 19.1611 577.492 13.432 570.402 13.432V15.432V17.432C575.344 17.432 579.41 21.4309 579.41 26.312H581.41ZM570.402 15.432V13.432C563.281 13.432 557.522 19.1914 557.522 26.312H559.522H561.522C561.522 21.4006 565.491 17.432 570.402 17.432V15.432ZM559.522 26.312H557.522V70.088H559.522H561.522V26.312H559.522Z" fill="#342A1E" mask="url(#path-1-outside-1_34_269)"/>
</svg>
