<svg width="553" height="128" viewBox="0 0 553 128" fill="none" xmlns="http://www.w3.org/2000/svg">
<mask id="path-1-outside-1_172_156" maskUnits="userSpaceOnUse" x="0" y="31" width="553" height="75" fill="black">
<rect fill="white" y="31" width="553" height="75"/>
<path d="M2.16062 64.752C2.16062 52.656 11.5686 44.208 22.8966 44.208H29.8086V33.84H39.7926V44.208H46.7046C58.1286 44.208 67.4406 52.656 67.4406 64.752C67.4406 76.944 58.1286 85.392 46.7046 85.392H39.7926V102H29.8086V85.392H22.8006C11.4726 85.392 2.16062 76.944 2.16062 64.752ZM12.1446 64.752C12.1446 71.856 17.4246 75.408 23.2806 75.408H29.8086V54H23.2806C17.4246 54 12.1446 57.744 12.1446 64.752ZM46.2246 75.504C52.0806 75.504 57.4566 71.856 57.4566 64.56C57.4566 57.744 52.0806 54 46.2246 54H39.7926V75.504H46.2246ZM88.7714 33.84C99.1394 33.84 107.299 42 107.299 52.08V84.72C107.299 94.704 99.1394 102.96 88.7714 102.96C78.5954 102.96 70.3394 94.704 70.3394 84.72V52.08C70.3394 42 78.5954 33.84 88.7714 33.84ZM97.3154 52.176C97.3154 47.568 93.4754 43.824 88.7714 43.824C84.2594 43.824 80.3234 47.568 80.3234 52.176V84.624C80.3234 89.136 84.2594 92.88 88.7714 92.88C93.4754 92.88 97.3154 89.136 97.3154 84.624V52.176ZM132.628 34.704C143.092 34.704 151.54 43.152 151.54 53.616C151.54 63.984 143.092 72.432 132.628 72.432H123.988V102H114.004V34.704H132.628ZM132.628 62.448C137.524 62.448 141.556 58.512 141.556 53.616C141.556 48.624 137.524 44.688 132.628 44.688H123.988V62.448H132.628ZM156.334 102V34.8H168.142L186.862 89.328L205.582 34.8H217.39V102H207.598L207.31 55.536L191.95 102H181.774L166.414 55.536L166.126 102H156.334ZM244.398 102.96C233.166 102.96 224.142 93.936 224.142 82.8C224.142 71.664 233.166 62.64 244.398 62.64C246.99 62.64 249.582 63.216 251.982 64.176V51.504C251.982 46.896 248.334 43.632 243.918 43.632C239.502 43.632 236.238 47.28 235.854 51.504L235.758 52.656H225.774V51.504C225.774 41.52 234.318 33.84 243.918 33.84C253.614 33.84 261.966 40.656 261.966 51.12V88.368C261.966 90.864 263.214 91.824 265.422 91.824H266.574V102H262.062C259.374 102 256.974 100.944 255.342 99.312C252.654 101.52 248.622 102.96 244.398 102.96ZM244.398 93.072C247.374 93.072 250.062 91.728 251.982 89.616V75.984C250.062 73.872 247.374 72.528 244.398 72.528C238.734 72.528 234.126 77.136 234.126 82.8C234.126 88.464 238.734 93.072 244.398 93.072ZM321.976 68.4C327.256 71.76 330.712 77.712 330.712 84.24C330.712 94.224 322.648 103.056 312.568 103.056C302.584 103.056 294.424 94.224 294.424 84.24H304.408C304.408 88.752 308.056 92.592 312.568 92.592C317.08 92.592 320.728 88.752 320.728 84.24C320.728 79.728 317.08 76.272 312.568 76.272V60.048C317.08 60.048 320.728 56.4 320.728 51.888C320.728 47.376 317.08 43.728 312.568 43.728C308.056 43.728 304.408 47.376 304.408 51.888H294.424C294.424 41.904 302.584 33.744 312.568 33.744C322.648 33.744 330.712 41.904 330.712 51.888C330.712 58.512 327.256 65.04 321.976 68.4ZM354.888 102.96C343.656 102.96 334.632 93.936 334.632 82.8C334.632 71.664 343.656 62.64 354.888 62.64C357.48 62.64 360.072 63.216 362.472 64.176V51.504C362.472 46.896 358.824 43.632 354.408 43.632C349.992 43.632 346.728 47.28 346.344 51.504L346.248 52.656H336.264V51.504C336.264 41.52 344.808 33.84 354.408 33.84C364.104 33.84 372.456 40.656 372.456 51.12V88.368C372.456 90.864 373.704 91.824 375.912 91.824H377.064V102H372.552C369.864 102 367.464 100.944 365.832 99.312C363.144 101.52 359.112 102.96 354.888 102.96ZM354.888 93.072C357.864 93.072 360.552 91.728 362.472 89.616V75.984C360.552 73.872 357.864 72.528 354.888 72.528C349.224 72.528 344.616 77.136 344.616 82.8C344.616 88.464 349.224 93.072 354.888 93.072ZM382.328 102V34.8H392.312V63.312H396.344L410.072 34.8H421.112L404.984 68.304L421.112 102H410.072L396.344 73.296H392.312V102H382.328ZM442.735 102.96C431.503 102.96 422.479 93.936 422.479 82.8C422.479 71.664 431.503 62.64 442.735 62.64C445.327 62.64 447.919 63.216 450.319 64.176V51.504C450.319 46.896 446.671 43.632 442.255 43.632C437.839 43.632 434.575 47.28 434.191 51.504L434.095 52.656H424.111V51.504C424.111 41.52 432.655 33.84 442.255 33.84C451.951 33.84 460.303 40.656 460.303 51.12V88.368C460.303 90.864 461.551 91.824 463.759 91.824H464.911V102H460.399C457.711 102 455.311 100.944 453.679 99.312C450.991 101.52 446.959 102.96 442.735 102.96ZM442.735 93.072C445.711 93.072 448.399 91.728 450.319 89.616V75.984C448.399 73.872 445.711 72.528 442.735 72.528C437.071 72.528 432.463 77.136 432.463 82.8C432.463 88.464 437.071 93.072 442.735 93.072ZM495.328 68.4C500.608 71.76 504.064 77.712 504.064 84.24C504.064 94.224 496 103.056 485.92 103.056C475.936 103.056 467.776 94.224 467.776 84.24H477.76C477.76 88.752 481.408 92.592 485.92 92.592C490.432 92.592 494.08 88.752 494.08 84.24C494.08 79.728 490.432 76.272 485.92 76.272V60.048C490.432 60.048 494.08 56.4 494.08 51.888C494.08 47.376 490.432 43.728 485.92 43.728C481.408 43.728 477.76 47.376 477.76 51.888H467.776C467.776 41.904 475.936 33.744 485.92 33.744C496 33.744 504.064 41.904 504.064 51.888C504.064 58.512 500.608 65.04 495.328 68.4ZM528.239 102.96C517.007 102.96 507.983 93.936 507.983 82.8C507.983 71.664 517.007 62.64 528.239 62.64C530.831 62.64 533.423 63.216 535.823 64.176V51.504C535.823 46.896 532.175 43.632 527.759 43.632C523.343 43.632 520.079 47.28 519.695 51.504L519.599 52.656H509.615V51.504C509.615 41.52 518.159 33.84 527.759 33.84C537.455 33.84 545.807 40.656 545.807 51.12V88.368C545.807 90.864 547.055 91.824 549.263 91.824H550.415V102H545.903C543.215 102 540.815 100.944 539.183 99.312C536.495 101.52 532.463 102.96 528.239 102.96ZM528.239 93.072C531.215 93.072 533.903 91.728 535.823 89.616V75.984C533.903 73.872 531.215 72.528 528.239 72.528C522.575 72.528 517.967 77.136 517.967 82.8C517.967 88.464 522.575 93.072 528.239 93.072Z"/>
</mask>
<path d="M29.8086 44.208V46.208H31.8086V44.208H29.8086ZM29.8086 33.84V31.84H27.8086V33.84H29.8086ZM39.7926 33.84H41.7926V31.84H39.7926V33.84ZM39.7926 44.208H37.7926V46.208H39.7926V44.208ZM39.7926 85.392V83.392H37.7926V85.392H39.7926ZM39.7926 102V104H41.7926V102H39.7926ZM29.8086 102H27.8086V104H29.8086V102ZM29.8086 85.392H31.8086V83.392H29.8086V85.392ZM29.8086 75.408V77.408H31.8086V75.408H29.8086ZM29.8086 54H31.8086V52H29.8086V54ZM39.7926 54V52H37.7926V54H39.7926ZM39.7926 75.504H37.7926V77.504H39.7926V75.504ZM2.16062 64.752H4.16062C4.16062 53.8333 12.599 46.208 22.8966 46.208V44.208V42.208C10.5382 42.208 0.160623 51.4787 0.160623 64.752H2.16062ZM22.8966 44.208V46.208H29.8086V44.208V42.208H22.8966V44.208ZM29.8086 44.208H31.8086V33.84H29.8086H27.8086V44.208H29.8086ZM29.8086 33.84V35.84H39.7926V33.84V31.84H29.8086V33.84ZM39.7926 33.84H37.7926V44.208H39.7926H41.7926V33.84H39.7926ZM39.7926 44.208V46.208H46.7046V44.208V42.208H39.7926V44.208ZM46.7046 44.208V46.208C57.0921 46.208 65.4406 53.8274 65.4406 64.752H67.4406H69.4406C69.4406 51.4846 59.1652 42.208 46.7046 42.208V44.208ZM67.4406 64.752H65.4406C65.4406 75.7787 57.0858 83.392 46.7046 83.392V85.392V87.392C59.1715 87.392 69.4406 78.1093 69.4406 64.752H67.4406ZM46.7046 85.392V83.392H39.7926V85.392V87.392H46.7046V85.392ZM39.7926 85.392H37.7926V102H39.7926H41.7926V85.392H39.7926ZM39.7926 102V100H29.8086V102V104H39.7926V102ZM29.8086 102H31.8086V85.392H29.8086H27.8086V102H29.8086ZM29.8086 85.392V83.392H22.8006V85.392V87.392H29.8086V85.392ZM22.8006 85.392V83.392C12.5216 83.392 4.16062 75.7847 4.16062 64.752H2.16062H0.160623C0.160623 78.1033 10.4236 87.392 22.8006 87.392V85.392ZM12.1446 64.752H10.1446C10.1446 68.8431 11.6865 72.0741 14.2078 74.2562C16.6889 76.4037 19.9665 77.408 23.2806 77.408V75.408V73.408C20.7387 73.408 18.4483 72.6363 16.8255 71.2317C15.2428 69.8619 14.1446 67.7649 14.1446 64.752H12.1446ZM23.2806 75.408V77.408H29.8086V75.408V73.408H23.2806V75.408ZM29.8086 75.408H31.8086V54H29.8086H27.8086V75.408H29.8086ZM29.8086 54V52H23.2806V54V56H29.8086V54ZM23.2806 54V52C19.9407 52 16.6633 53.0673 14.1928 55.2488C11.6888 57.46 10.1446 60.7046 10.1446 64.752H12.1446H14.1446C14.1446 61.7914 15.2405 59.66 16.8404 58.2472C18.474 56.8047 20.7645 56 23.2806 56V54ZM46.2246 75.504V77.504C49.5509 77.504 52.8549 76.4686 55.3567 74.2705C57.896 72.0394 59.4566 68.7405 59.4566 64.56H57.4566H55.4566C55.4566 67.6755 54.3292 69.8486 52.7165 71.2655C51.0663 72.7154 48.7543 73.504 46.2246 73.504V75.504ZM57.4566 64.56H59.4566C59.4566 60.5789 57.8658 57.3824 55.3418 55.2086C52.8535 53.0655 49.5624 52 46.2246 52V54V56C48.7429 56 51.0677 56.8065 52.7314 58.2394C54.3594 59.6416 55.4566 61.7251 55.4566 64.56H57.4566ZM46.2246 54V52H39.7926V54V56H46.2246V54ZM39.7926 54H37.7926V75.504H39.7926H41.7926V54H39.7926ZM39.7926 75.504V77.504H46.2246V75.504V73.504H39.7926V75.504ZM88.7714 33.84V35.84C98.0553 35.84 105.299 43.125 105.299 52.08H107.299H109.299C109.299 40.875 100.223 31.84 88.7714 31.84V33.84ZM107.299 52.08H105.299V84.72H107.299H109.299V52.08H107.299ZM107.299 84.72H105.299C105.299 93.5858 98.0484 100.96 88.7714 100.96V102.96V104.96C100.23 104.96 109.299 95.8222 109.299 84.72H107.299ZM88.7714 102.96V100.96C79.6863 100.96 72.3394 93.5858 72.3394 84.72H70.3394H68.3394C68.3394 95.8222 77.5044 104.96 88.7714 104.96V102.96ZM70.3394 84.72H72.3394V52.08H70.3394H68.3394V84.72H70.3394ZM70.3394 52.08H72.3394C72.3394 43.125 79.6794 35.84 88.7714 35.84V33.84V31.84C77.5113 31.84 68.3394 40.875 68.3394 52.08H70.3394ZM97.3154 52.176H99.3154C99.3154 46.4193 94.5353 41.824 88.7714 41.824V43.824V45.824C92.4154 45.824 95.3154 48.7167 95.3154 52.176H97.3154ZM88.7714 43.824V41.824C83.1994 41.824 78.3234 46.4193 78.3234 52.176H80.3234H82.3234C82.3234 48.7167 85.3193 45.824 88.7714 45.824V43.824ZM80.3234 52.176H78.3234V84.624H80.3234H82.3234V52.176H80.3234ZM80.3234 84.624H78.3234C78.3234 90.2995 83.2147 94.88 88.7714 94.88V92.88V90.88C85.3041 90.88 82.3234 87.9725 82.3234 84.624H80.3234ZM88.7714 92.88V94.88C94.5201 94.88 99.3154 90.2995 99.3154 84.624H97.3154H95.3154C95.3154 87.9725 92.4307 90.88 88.7714 90.88V92.88ZM97.3154 84.624H99.3154V52.176H97.3154H95.3154V84.624H97.3154ZM123.988 72.432V70.432H121.988V72.432H123.988ZM123.988 102V104H125.988V102H123.988ZM114.004 102H112.004V104H114.004V102ZM114.004 34.704V32.704H112.004V34.704H114.004ZM123.988 44.688V42.688H121.988V44.688H123.988ZM123.988 62.448H121.988V64.448H123.988V62.448ZM132.628 34.704V36.704C141.988 36.704 149.54 44.2566 149.54 53.616H151.54H153.54C153.54 42.0474 144.197 32.704 132.628 32.704V34.704ZM151.54 53.616H149.54C149.54 62.8728 141.994 70.432 132.628 70.432V72.432V74.432C144.19 74.432 153.54 65.0952 153.54 53.616H151.54ZM132.628 72.432V70.432H123.988V72.432V74.432H132.628V72.432ZM123.988 72.432H121.988V102H123.988H125.988V72.432H123.988ZM123.988 102V100H114.004V102V104H123.988V102ZM114.004 102H116.004V34.704H114.004H112.004V102H114.004ZM114.004 34.704V36.704H132.628V34.704V32.704H114.004V34.704ZM132.628 62.448V64.448C138.601 64.448 143.556 59.6446 143.556 53.616H141.556H139.556C139.556 57.3794 136.448 60.448 132.628 60.448V62.448ZM141.556 53.616H143.556C143.556 47.5054 138.615 42.688 132.628 42.688V44.688V46.688C136.434 46.688 139.556 49.7426 139.556 53.616H141.556ZM132.628 44.688V42.688H123.988V44.688V46.688H132.628V44.688ZM123.988 44.688H121.988V62.448H123.988H125.988V44.688H123.988ZM123.988 62.448V64.448H132.628V62.448V60.448H123.988V62.448ZM156.334 102H154.334V104H156.334V102ZM156.334 34.8V32.8H154.334V34.8H156.334ZM168.142 34.8L170.034 34.1506L169.57 32.8H168.142V34.8ZM186.862 89.328L184.971 89.9774L186.862 95.4874L188.754 89.9774L186.862 89.328ZM205.582 34.8V32.8H204.154L203.691 34.1506L205.582 34.8ZM217.39 34.8H219.39V32.8H217.39V34.8ZM217.39 102V104H219.39V102H217.39ZM207.598 102L205.598 102.012L205.611 104H207.598V102ZM207.31 55.536L209.31 55.5236L205.411 54.9083L207.31 55.536ZM191.95 102V104H193.396L193.849 102.628L191.95 102ZM181.774 102L179.875 102.628L180.329 104H181.774V102ZM166.414 55.536L168.313 54.9083L164.414 55.5236L166.414 55.536ZM166.126 102V104H168.114L168.126 102.012L166.126 102ZM156.334 102H158.334V34.8H156.334H154.334V102H156.334ZM156.334 34.8V36.8H168.142V34.8V32.8H156.334V34.8ZM168.142 34.8L166.251 35.4494L184.971 89.9774L186.862 89.328L188.754 88.6786L170.034 34.1506L168.142 34.8ZM186.862 89.328L188.754 89.9774L207.474 35.4494L205.582 34.8L203.691 34.1506L184.971 88.6786L186.862 89.328ZM205.582 34.8V36.8H217.39V34.8V32.8H205.582V34.8ZM217.39 34.8H215.39V102H217.39H219.39V34.8H217.39ZM217.39 102V100H207.598V102V104H217.39V102ZM207.598 102L209.598 101.988L209.31 55.5236L207.31 55.536L205.31 55.5484L205.598 102.012L207.598 102ZM207.31 55.536L205.411 54.9083L190.051 101.372L191.95 102L193.849 102.628L209.209 56.1637L207.31 55.536ZM191.95 102V100H181.774V102V104H191.95V102ZM181.774 102L183.673 101.372L168.313 54.9083L166.414 55.536L164.515 56.1637L179.875 102.628L181.774 102ZM166.414 55.536L164.414 55.5236L164.126 101.988L166.126 102L168.126 102.012L168.414 55.5484L166.414 55.536ZM166.126 102V100H156.334V102V104H166.126V102ZM251.982 64.176L251.239 66.033L253.982 67.1301V64.176H251.982ZM235.854 51.504L233.862 51.3229L233.861 51.3304L233.861 51.3379L235.854 51.504ZM235.758 52.656V54.656H237.598L237.751 52.8221L235.758 52.656ZM225.774 52.656H223.774V54.656H225.774V52.656ZM266.574 91.824H268.574V89.824H266.574V91.824ZM266.574 102V104H268.574V102H266.574ZM255.342 99.312L256.756 97.8978L255.474 96.6154L254.072 97.7665L255.342 99.312ZM251.982 89.616L253.462 90.9613L253.982 90.3892V89.616H251.982ZM251.982 75.984H253.982V75.2108L253.462 74.6386L251.982 75.984ZM244.398 102.96V100.96C234.264 100.96 226.142 92.8252 226.142 82.8H224.142H222.142C222.142 95.0468 232.068 104.96 244.398 104.96V102.96ZM224.142 82.8H226.142C226.142 72.7748 234.264 64.64 244.398 64.64V62.64V60.64C232.068 60.64 222.142 70.5532 222.142 82.8H224.142ZM244.398 62.64V64.64C246.698 64.64 249.038 65.1524 251.239 66.033L251.982 64.176L252.725 62.319C250.126 61.2796 247.282 60.64 244.398 60.64V62.64ZM251.982 64.176H253.982V51.504H251.982H249.982V64.176H251.982ZM251.982 51.504H253.982C253.982 45.6976 249.342 41.632 243.918 41.632V43.632V45.632C247.326 45.632 249.982 48.0944 249.982 51.504H251.982ZM243.918 43.632V41.632C238.279 41.632 234.322 46.2676 233.862 51.3229L235.854 51.504L237.846 51.6851C238.154 48.2924 240.725 45.632 243.918 45.632V43.632ZM235.854 51.504L233.861 51.3379L233.765 52.4899L235.758 52.656L237.751 52.8221L237.847 51.6701L235.854 51.504ZM235.758 52.656V50.656H225.774V52.656V54.656H235.758V52.656ZM225.774 52.656H227.774V51.504H225.774H223.774V52.656H225.774ZM225.774 51.504H227.774C227.774 42.7207 235.324 35.84 243.918 35.84V33.84V31.84C233.312 31.84 223.774 40.3193 223.774 51.504H225.774ZM243.918 33.84V35.84C252.685 35.84 259.966 41.9285 259.966 51.12H261.966H263.966C263.966 39.3834 254.543 31.84 243.918 31.84V33.84ZM261.966 51.12H259.966V88.368H261.966H263.966V51.12H261.966ZM261.966 88.368H259.966C259.966 89.923 260.357 91.4198 261.497 92.4901C262.612 93.5372 264.075 93.824 265.422 93.824V91.824V89.824C264.561 89.824 264.295 89.6308 264.235 89.5739C264.199 89.5402 263.966 89.309 263.966 88.368H261.966ZM265.422 91.824V93.824H266.574V91.824V89.824H265.422V91.824ZM266.574 91.824H264.574V102H266.574H268.574V91.824H266.574ZM266.574 102V100H262.062V102V104H266.574V102ZM262.062 102V100C259.895 100 258.007 99.1483 256.756 97.8978L255.342 99.312L253.928 100.726C255.941 102.74 258.853 104 262.062 104V102ZM255.342 99.312L254.072 97.7665C251.777 99.652 248.206 100.96 244.398 100.96V102.96V104.96C249.038 104.96 253.531 103.388 256.611 100.857L255.342 99.312ZM244.398 93.072V95.072C247.996 95.072 251.204 93.4447 253.462 90.9613L251.982 89.616L250.502 88.2707C248.92 90.0113 246.752 91.072 244.398 91.072V93.072ZM251.982 89.616H253.982V75.984H251.982H249.982V89.616H251.982ZM251.982 75.984L253.462 74.6386C251.204 72.1553 247.996 70.528 244.398 70.528V72.528V74.528C246.752 74.528 248.92 75.5887 250.502 77.3293L251.982 75.984ZM244.398 72.528V70.528C237.629 70.528 232.126 76.0314 232.126 82.8H234.126H236.126C236.126 78.2406 239.838 74.528 244.398 74.528V72.528ZM234.126 82.8H232.126C232.126 89.5686 237.629 95.072 244.398 95.072V93.072V91.072C239.838 91.072 236.126 87.3594 236.126 82.8H234.126ZM321.976 68.4L320.903 66.7127L318.251 68.4L320.903 70.0873L321.976 68.4ZM294.424 84.24V82.24H292.424V84.24H294.424ZM304.408 84.24H306.408V82.24H304.408V84.24ZM312.568 76.272H310.568V78.272H312.568V76.272ZM312.568 60.048V58.048H310.568V60.048H312.568ZM304.408 51.888V53.888H306.408V51.888H304.408ZM294.424 51.888H292.424V53.888H294.424V51.888ZM321.976 68.4L320.903 70.0873C325.627 73.0935 328.712 78.4201 328.712 84.24H330.712H332.712C332.712 77.0039 328.886 70.4265 323.05 66.7127L321.976 68.4ZM330.712 84.24H328.712C328.712 93.2216 321.444 101.056 312.568 101.056V103.056V105.056C323.852 105.056 332.712 95.2264 332.712 84.24H330.712ZM312.568 103.056V101.056C303.782 101.056 296.424 93.2145 296.424 84.24H294.424H292.424C292.424 95.2335 301.387 105.056 312.568 105.056V103.056ZM294.424 84.24V86.24H304.408V84.24V82.24H294.424V84.24ZM304.408 84.24H302.408C302.408 89.7958 306.892 94.592 312.568 94.592V92.592V90.592C309.221 90.592 306.408 87.7082 306.408 84.24H304.408ZM312.568 92.592V94.592C318.245 94.592 322.728 89.7958 322.728 84.24H320.728H318.728C318.728 87.7082 315.916 90.592 312.568 90.592V92.592ZM320.728 84.24H322.728C322.728 78.5616 318.122 74.272 312.568 74.272V76.272V78.272C316.039 78.272 318.728 80.8944 318.728 84.24H320.728ZM312.568 76.272H314.568V60.048H312.568H310.568V76.272H312.568ZM312.568 60.048V62.048C318.185 62.048 322.728 57.5046 322.728 51.888H320.728H318.728C318.728 55.2954 315.976 58.048 312.568 58.048V60.048ZM320.728 51.888H322.728C322.728 46.2714 318.185 41.728 312.568 41.728V43.728V45.728C315.976 45.728 318.728 48.4806 318.728 51.888H320.728ZM312.568 43.728V41.728C306.952 41.728 302.408 46.2714 302.408 51.888H304.408H306.408C306.408 48.4806 309.161 45.728 312.568 45.728V43.728ZM304.408 51.888V49.888H294.424V51.888V53.888H304.408V51.888ZM294.424 51.888H296.424C296.424 43.0086 303.689 35.744 312.568 35.744V33.744V31.744C301.48 31.744 292.424 40.7994 292.424 51.888H294.424ZM312.568 33.744V35.744C321.537 35.744 328.712 43.0017 328.712 51.888H330.712H332.712C332.712 40.8063 323.76 31.744 312.568 31.744V33.744ZM330.712 51.888H328.712C328.712 57.8755 325.567 63.7445 320.903 66.7127L321.976 68.4L323.05 70.0873C328.946 66.3355 332.712 59.1485 332.712 51.888H330.712ZM362.472 64.176L361.729 66.033L364.472 67.1301V64.176H362.472ZM346.344 51.504L344.352 51.3229L344.351 51.3304L344.351 51.3379L346.344 51.504ZM346.248 52.656V54.656H348.088L348.241 52.8221L346.248 52.656ZM336.264 52.656H334.264V54.656H336.264V52.656ZM377.064 91.824H379.064V89.824H377.064V91.824ZM377.064 102V104H379.064V102H377.064ZM365.832 99.312L367.246 97.8978L365.964 96.6154L364.562 97.7665L365.832 99.312ZM362.472 89.616L363.952 90.9613L364.472 90.3892V89.616H362.472ZM362.472 75.984H364.472V75.2108L363.952 74.6386L362.472 75.984ZM354.888 102.96V100.96C344.754 100.96 336.632 92.8252 336.632 82.8H334.632H332.632C332.632 95.0468 342.557 104.96 354.888 104.96V102.96ZM334.632 82.8H336.632C336.632 72.7748 344.754 64.64 354.888 64.64V62.64V60.64C342.557 60.64 332.632 70.5532 332.632 82.8H334.632ZM354.888 62.64V64.64C357.188 64.64 359.528 65.1524 361.729 66.033L362.472 64.176L363.215 62.319C360.616 61.2796 357.772 60.64 354.888 60.64V62.64ZM362.472 64.176H364.472V51.504H362.472H360.472V64.176H362.472ZM362.472 51.504H364.472C364.472 45.6976 359.832 41.632 354.408 41.632V43.632V45.632C357.816 45.632 360.472 48.0944 360.472 51.504H362.472ZM354.408 43.632V41.632C348.769 41.632 344.812 46.2676 344.352 51.3229L346.344 51.504L348.336 51.6851C348.644 48.2924 351.215 45.632 354.408 45.632V43.632ZM346.344 51.504L344.351 51.3379L344.255 52.4899L346.248 52.656L348.241 52.8221L348.337 51.6701L346.344 51.504ZM346.248 52.656V50.656H336.264V52.656V54.656H346.248V52.656ZM336.264 52.656H338.264V51.504H336.264H334.264V52.656H336.264ZM336.264 51.504H338.264C338.264 42.7207 345.814 35.84 354.408 35.84V33.84V31.84C343.802 31.84 334.264 40.3193 334.264 51.504H336.264ZM354.408 33.84V35.84C363.175 35.84 370.456 41.9285 370.456 51.12H372.456H374.456C374.456 39.3834 365.033 31.84 354.408 31.84V33.84ZM372.456 51.12H370.456V88.368H372.456H374.456V51.12H372.456ZM372.456 88.368H370.456C370.456 89.923 370.847 91.4198 371.987 92.4901C373.102 93.5372 374.565 93.824 375.912 93.824V91.824V89.824C375.051 89.824 374.785 89.6308 374.725 89.5739C374.689 89.5402 374.456 89.309 374.456 88.368H372.456ZM375.912 91.824V93.824H377.064V91.824V89.824H375.912V91.824ZM377.064 91.824H375.064V102H377.064H379.064V91.824H377.064ZM377.064 102V100H372.552V102V104H377.064V102ZM372.552 102V100C370.385 100 368.497 99.1483 367.246 97.8978L365.832 99.312L364.418 100.726C366.431 102.74 369.343 104 372.552 104V102ZM365.832 99.312L364.562 97.7665C362.267 99.652 358.696 100.96 354.888 100.96V102.96V104.96C359.528 104.96 364.021 103.388 367.101 100.857L365.832 99.312ZM354.888 93.072V95.072C358.486 95.072 361.694 93.4447 363.952 90.9613L362.472 89.616L360.992 88.2707C359.41 90.0113 357.242 91.072 354.888 91.072V93.072ZM362.472 89.616H364.472V75.984H362.472H360.472V89.616H362.472ZM362.472 75.984L363.952 74.6386C361.694 72.1553 358.486 70.528 354.888 70.528V72.528V74.528C357.242 74.528 359.41 75.5887 360.992 77.3293L362.472 75.984ZM354.888 72.528V70.528C348.119 70.528 342.616 76.0314 342.616 82.8H344.616H346.616C346.616 78.2406 350.328 74.528 354.888 74.528V72.528ZM344.616 82.8H342.616C342.616 89.5686 348.119 95.072 354.888 95.072V93.072V91.072C350.328 91.072 346.616 87.3594 346.616 82.8H344.616ZM382.328 102H380.328V104H382.328V102ZM382.328 34.8V32.8H380.328V34.8H382.328ZM392.312 34.8H394.312V32.8H392.312V34.8ZM392.312 63.312H390.312V65.312H392.312V63.312ZM396.344 63.312V65.312H397.601L398.146 64.1796L396.344 63.312ZM410.072 34.8V32.8H408.815L408.27 33.9324L410.072 34.8ZM421.112 34.8L422.914 35.6675L424.295 32.8H421.112V34.8ZM404.984 68.304L403.182 67.4365L402.766 68.3015L403.18 69.1675L404.984 68.304ZM421.112 102V104H424.287L422.916 101.137L421.112 102ZM410.072 102L408.268 102.863L408.812 104H410.072V102ZM396.344 73.296L398.148 72.4331L397.605 71.296H396.344V73.296ZM392.312 73.296V71.296H390.312V73.296H392.312ZM392.312 102V104H394.312V102H392.312ZM382.328 102H384.328V34.8H382.328H380.328V102H382.328ZM382.328 34.8V36.8H392.312V34.8V32.8H382.328V34.8ZM392.312 34.8H390.312V63.312H392.312H394.312V34.8H392.312ZM392.312 63.312V65.312H396.344V63.312V61.312H392.312V63.312ZM396.344 63.312L398.146 64.1796L411.874 35.6676L410.072 34.8L408.27 33.9324L394.542 62.4444L396.344 63.312ZM410.072 34.8V36.8H421.112V34.8V32.8H410.072V34.8ZM421.112 34.8L419.31 33.9325L403.182 67.4365L404.984 68.304L406.786 69.1715L422.914 35.6675L421.112 34.8ZM404.984 68.304L403.18 69.1675L419.308 102.863L421.112 102L422.916 101.137L406.788 67.4405L404.984 68.304ZM421.112 102V100H410.072V102V104H421.112V102ZM410.072 102L411.876 101.137L398.148 72.4331L396.344 73.296L394.54 74.1589L408.268 102.863L410.072 102ZM396.344 73.296V71.296H392.312V73.296V75.296H396.344V73.296ZM392.312 73.296H390.312V102H392.312H394.312V73.296H392.312ZM392.312 102V100H382.328V102V104H392.312V102ZM450.319 64.176L449.577 66.033L452.319 67.1301V64.176H450.319ZM434.191 51.504L432.2 51.3229L432.199 51.3304L432.198 51.3379L434.191 51.504ZM434.095 52.656V54.656H435.936L436.088 52.8221L434.095 52.656ZM424.111 52.656H422.111V54.656H424.111V52.656ZM464.911 91.824H466.911V89.824H464.911V91.824ZM464.911 102V104H466.911V102H464.911ZM453.679 99.312L455.094 97.8978L453.811 96.6154L452.41 97.7665L453.679 99.312ZM450.319 89.616L451.799 90.9613L452.319 90.3892V89.616H450.319ZM450.319 75.984H452.319V75.2108L451.799 74.6386L450.319 75.984ZM442.735 102.96V100.96C432.602 100.96 424.479 92.8252 424.479 82.8H422.479H420.479C420.479 95.0468 430.405 104.96 442.735 104.96V102.96ZM422.479 82.8H424.479C424.479 72.7748 432.602 64.64 442.735 64.64V62.64V60.64C430.405 60.64 420.479 70.5532 420.479 82.8H422.479ZM442.735 62.64V64.64C445.035 64.64 447.375 65.1524 449.577 66.033L450.319 64.176L451.062 62.319C448.464 61.2796 445.619 60.64 442.735 60.64V62.64ZM450.319 64.176H452.319V51.504H450.319H448.319V64.176H450.319ZM450.319 51.504H452.319C452.319 45.6976 447.68 41.632 442.255 41.632V43.632V45.632C445.663 45.632 448.319 48.0944 448.319 51.504H450.319ZM442.255 43.632V41.632C436.617 41.632 432.659 46.2676 432.2 51.3229L434.191 51.504L436.183 51.6851C436.492 48.2924 439.062 45.632 442.255 45.632V43.632ZM434.191 51.504L432.198 51.3379L432.102 52.4899L434.095 52.656L436.088 52.8221L436.184 51.6701L434.191 51.504ZM434.095 52.656V50.656H424.111V52.656V54.656H434.095V52.656ZM424.111 52.656H426.111V51.504H424.111H422.111V52.656H424.111ZM424.111 51.504H426.111C426.111 42.7207 433.661 35.84 442.255 35.84V33.84V31.84C431.649 31.84 422.111 40.3193 422.111 51.504H424.111ZM442.255 33.84V35.84C451.023 35.84 458.303 41.9285 458.303 51.12H460.303H462.303C462.303 39.3834 452.88 31.84 442.255 31.84V33.84ZM460.303 51.12H458.303V88.368H460.303H462.303V51.12H460.303ZM460.303 88.368H458.303C458.303 89.923 458.694 91.4198 459.835 92.4901C460.95 93.5372 462.412 93.824 463.759 93.824V91.824V89.824C462.898 89.824 462.633 89.6308 462.572 89.5739C462.536 89.5402 462.303 89.309 462.303 88.368H460.303ZM463.759 91.824V93.824H464.911V91.824V89.824H463.759V91.824ZM464.911 91.824H462.911V102H464.911H466.911V91.824H464.911ZM464.911 102V100H460.399V102V104H464.911V102ZM460.399 102V100C458.233 100 456.344 99.1483 455.094 97.8978L453.679 99.312L452.265 100.726C454.279 102.74 457.19 104 460.399 104V102ZM453.679 99.312L452.41 97.7665C450.115 99.652 446.544 100.96 442.735 100.96V102.96V104.96C447.375 104.96 451.868 103.388 454.949 100.857L453.679 99.312ZM442.735 93.072V95.072C446.334 95.072 449.542 93.4447 451.799 90.9613L450.319 89.616L448.84 88.2707C447.257 90.0113 445.089 91.072 442.735 91.072V93.072ZM450.319 89.616H452.319V75.984H450.319H448.319V89.616H450.319ZM450.319 75.984L451.799 74.6386C449.542 72.1553 446.334 70.528 442.735 70.528V72.528V74.528C445.089 74.528 447.257 75.5887 448.84 77.3293L450.319 75.984ZM442.735 72.528V70.528C435.967 70.528 430.463 76.0314 430.463 82.8H432.463H434.463C434.463 78.2406 438.176 74.528 442.735 74.528V72.528ZM432.463 82.8H430.463C430.463 89.5686 435.967 95.072 442.735 95.072V93.072V91.072C438.176 91.072 434.463 87.3594 434.463 82.8H432.463ZM495.328 68.4L494.254 66.7127L491.602 68.4L494.254 70.0873L495.328 68.4ZM467.776 84.24V82.24H465.776V84.24H467.776ZM477.76 84.24H479.76V82.24H477.76V84.24ZM485.92 76.272H483.92V78.272H485.92V76.272ZM485.92 60.048V58.048H483.92V60.048H485.92ZM477.76 51.888V53.888H479.76V51.888H477.76ZM467.776 51.888H465.776V53.888H467.776V51.888ZM495.328 68.4L494.254 70.0873C498.978 73.0935 502.064 78.4201 502.064 84.24H504.064H506.064C506.064 77.0039 502.237 70.4265 496.401 66.7127L495.328 68.4ZM504.064 84.24H502.064C502.064 93.2216 494.796 101.056 485.92 101.056V103.056V105.056C497.204 105.056 506.064 95.2264 506.064 84.24H504.064ZM485.92 103.056V101.056C477.133 101.056 469.776 93.2145 469.776 84.24H467.776H465.776C465.776 95.2335 474.738 105.056 485.92 105.056V103.056ZM467.776 84.24V86.24H477.76V84.24V82.24H467.776V84.24ZM477.76 84.24H475.76C475.76 89.7958 480.243 94.592 485.92 94.592V92.592V90.592C482.572 90.592 479.76 87.7082 479.76 84.24H477.76ZM485.92 92.592V94.592C491.596 94.592 496.08 89.7958 496.08 84.24H494.08H492.08C492.08 87.7082 489.267 90.592 485.92 90.592V92.592ZM494.08 84.24H496.08C496.08 78.5616 491.473 74.272 485.92 74.272V76.272V78.272C489.39 78.272 492.08 80.8944 492.08 84.24H494.08ZM485.92 76.272H487.92V60.048H485.92H483.92V76.272H485.92ZM485.92 60.048V62.048C491.536 62.048 496.08 57.5046 496.08 51.888H494.08H492.08C492.08 55.2954 489.327 58.048 485.92 58.048V60.048ZM494.08 51.888H496.08C496.08 46.2714 491.536 41.728 485.92 41.728V43.728V45.728C489.327 45.728 492.08 48.4806 492.08 51.888H494.08ZM485.92 43.728V41.728C480.303 41.728 475.76 46.2714 475.76 51.888H477.76H479.76C479.76 48.4806 482.512 45.728 485.92 45.728V43.728ZM477.76 51.888V49.888H467.776V51.888V53.888H477.76V51.888ZM467.776 51.888H469.776C469.776 43.0086 477.04 35.744 485.92 35.744V33.744V31.744C474.831 31.744 465.776 40.7994 465.776 51.888H467.776ZM485.92 33.744V35.744C494.888 35.744 502.064 43.0017 502.064 51.888H504.064H506.064C506.064 40.8063 497.111 31.744 485.92 31.744V33.744ZM504.064 51.888H502.064C502.064 57.8755 498.918 63.7445 494.254 66.7127L495.328 68.4L496.401 70.0873C502.297 66.3355 506.064 59.1485 506.064 51.888H504.064ZM535.823 64.176L535.08 66.033L537.823 67.1301V64.176H535.823ZM519.695 51.504L517.703 51.3229L517.703 51.3304L517.702 51.3379L519.695 51.504ZM519.599 52.656V54.656H521.439L521.592 52.8221L519.599 52.656ZM509.615 52.656H507.615V54.656H509.615V52.656ZM550.415 91.824H552.415V89.824H550.415V91.824ZM550.415 102V104H552.415V102H550.415ZM539.183 99.312L540.597 97.8978L539.315 96.6154L537.914 97.7665L539.183 99.312ZM535.823 89.616L537.303 90.9613L537.823 90.3892V89.616H535.823ZM535.823 75.984H537.823V75.2108L537.303 74.6386L535.823 75.984ZM528.239 102.96V100.96C518.106 100.96 509.983 92.8252 509.983 82.8H507.983H505.983C505.983 95.0468 515.909 104.96 528.239 104.96V102.96ZM507.983 82.8H509.983C509.983 72.7748 518.106 64.64 528.239 64.64V62.64V60.64C515.909 60.64 505.983 70.5532 505.983 82.8H507.983ZM528.239 62.64V64.64C530.539 64.64 532.879 65.1524 535.08 66.033L535.823 64.176L536.566 62.319C533.967 61.2796 531.123 60.64 528.239 60.64V62.64ZM535.823 64.176H537.823V51.504H535.823H533.823V64.176H535.823ZM535.823 51.504H537.823C537.823 45.6976 533.183 41.632 527.759 41.632V43.632V45.632C531.167 45.632 533.823 48.0944 533.823 51.504H535.823ZM527.759 43.632V41.632C522.12 41.632 518.163 46.2676 517.703 51.3229L519.695 51.504L521.687 51.6851C521.995 48.2924 524.566 45.632 527.759 45.632V43.632ZM519.695 51.504L517.702 51.3379L517.606 52.4899L519.599 52.656L521.592 52.8221L521.688 51.6701L519.695 51.504ZM519.599 52.656V50.656H509.615V52.656V54.656H519.599V52.656ZM509.615 52.656H511.615V51.504H509.615H507.615V52.656H509.615ZM509.615 51.504H511.615C511.615 42.7207 519.165 35.84 527.759 35.84V33.84V31.84C517.153 31.84 507.615 40.3193 507.615 51.504H509.615ZM527.759 33.84V35.84C536.526 35.84 543.807 41.9285 543.807 51.12H545.807H547.807C547.807 39.3834 538.384 31.84 527.759 31.84V33.84ZM545.807 51.12H543.807V88.368H545.807H547.807V51.12H545.807ZM545.807 88.368H543.807C543.807 89.923 544.198 91.4198 545.338 92.4901C546.454 93.5372 547.916 93.824 549.263 93.824V91.824V89.824C548.402 89.824 548.137 89.6308 548.076 89.5739C548.04 89.5402 547.807 89.309 547.807 88.368H545.807ZM549.263 91.824V93.824H550.415V91.824V89.824H549.263V91.824ZM550.415 91.824H548.415V102H550.415H552.415V91.824H550.415ZM550.415 102V100H545.903V102V104H550.415V102ZM545.903 102V100C543.736 100 541.848 99.1483 540.597 97.8978L539.183 99.312L537.769 100.726C539.782 102.74 542.694 104 545.903 104V102ZM539.183 99.312L537.914 97.7665C535.618 99.652 532.047 100.96 528.239 100.96V102.96V104.96C532.879 104.96 537.372 103.388 540.453 100.857L539.183 99.312ZM528.239 93.072V95.072C531.837 95.072 535.045 93.4447 537.303 90.9613L535.823 89.616L534.343 88.2707C532.761 90.0113 530.593 91.072 528.239 91.072V93.072ZM535.823 89.616H537.823V75.984H535.823H533.823V89.616H535.823ZM535.823 75.984L537.303 74.6386C535.045 72.1553 531.837 70.528 528.239 70.528V72.528V74.528C530.593 74.528 532.761 75.5887 534.343 77.3293L535.823 75.984ZM528.239 72.528V70.528C521.471 70.528 515.967 76.0314 515.967 82.8H517.967H519.967C519.967 78.2406 523.68 74.528 528.239 74.528V72.528ZM517.967 82.8H515.967C515.967 89.5686 521.471 95.072 528.239 95.072V93.072V91.072C523.68 91.072 519.967 87.3594 519.967 82.8H517.967Z" fill="#342A1E" mask="url(#path-1-outside-1_172_156)"/>
</svg>
