<svg width="477" height="74" viewBox="0 0 477 74" fill="none" xmlns="http://www.w3.org/2000/svg">
<mask id="path-1-outside-1_251_7" maskUnits="userSpaceOnUse" x="0" y="0" width="477" height="74" fill="black">
<rect fill="white" width="477" height="74"/>
<path d="M20.6959 3.704C31.1599 3.704 39.6079 12.152 39.6079 22.616C39.6079 32.984 31.1599 41.432 20.6959 41.432H12.0559V71H2.07188V3.704H20.6959ZM20.6959 31.448C25.5919 31.448 29.6239 27.512 29.6239 22.616C29.6239 17.624 25.5919 13.688 20.6959 13.688H12.0559V31.448H20.6959ZM61.4899 71.96C51.4099 71.96 43.4419 63.512 43.4419 53.144V21.944C43.4419 11.384 51.9859 2.84 62.1619 2.84C72.3379 2.84 80.4019 11.384 80.4019 21.944V43.544H53.4259V53.144C53.4259 58.04 56.7859 62.072 61.4899 62.072C65.4259 62.072 68.5939 59.384 69.7459 55.832H79.7299C78.3859 64.952 70.6099 71.96 61.4899 71.96ZM53.4259 33.56H70.4179V21.752C70.4179 16.856 66.6739 12.824 61.9699 12.824C57.2659 12.824 53.4259 16.856 53.4259 21.752V33.56ZM103.63 71.96C93.9341 71.96 85.1981 66.392 85.1981 52.952C85.1981 30.968 111.598 35.192 111.598 21.176C111.598 15.704 108.238 12.728 103.63 12.728C99.1181 12.728 95.4701 15.608 95.4701 21.176H85.4861C85.4861 9.944 93.9341 2.936 103.63 2.936C113.902 2.936 121.774 10.424 121.774 21.176C121.774 43.64 95.3741 38.744 95.3741 52.952C95.3741 58.712 99.0221 62.264 103.438 62.264C108.046 62.264 111.598 58.232 111.598 53.24H121.774C121.294 66.104 113.326 71.96 103.63 71.96ZM127.071 51.8V3.8H137.055V51.8C137.055 57.176 141.375 61.496 146.655 61.496C152.319 61.496 156.351 56.888 156.351 51.896V3.8H166.335V57.56C166.335 60.44 167.583 61.784 169.791 61.784H170.943V71.96H166.335C163.071 71.96 160.095 70.328 158.271 67.832C154.911 70.424 151.263 71.96 146.655 71.96C136.095 71.96 127.071 63.8 127.071 51.8ZM175.307 20.984C175.307 10.904 183.467 2.84 193.451 2.84C203.531 2.84 211.691 10.904 211.691 20.984V22.328H201.803L201.707 20.984C201.323 15.896 197.963 12.728 193.451 12.728C188.939 12.728 185.291 16.376 185.291 20.984V53.816C185.291 58.328 188.939 61.976 193.451 61.976C197.963 61.976 201.323 58.904 201.707 53.816L201.803 52.472H211.787L211.691 53.816C210.923 64.28 203.531 71.96 193.451 71.96C183.467 71.96 175.307 63.8 175.307 53.816V20.984ZM250.697 3.8V13.784H237.737V71H227.753V13.784H214.697V3.8H250.697ZM274.582 3.704C285.046 3.704 293.494 12.152 293.494 22.616C293.494 32.984 285.046 41.432 274.582 41.432H265.942V71H255.958V3.704H274.582ZM274.582 31.448C279.478 31.448 283.51 27.512 283.51 22.616C283.51 17.624 279.478 13.688 274.582 13.688H265.942V31.448H274.582ZM315.709 71.96C304.477 71.96 295.453 62.936 295.453 51.8C295.453 40.664 304.477 31.64 315.709 31.64C318.301 31.64 320.893 32.216 323.293 33.176V20.504C323.293 15.896 319.645 12.632 315.229 12.632C310.813 12.632 307.549 16.28 307.165 20.504L307.069 21.656H297.085V20.504C297.085 10.52 305.629 2.84 315.229 2.84C324.925 2.84 333.277 9.65599 333.277 20.12V57.368C333.277 59.864 334.525 60.824 336.733 60.824H337.885V71H333.373C330.685 71 328.285 69.944 326.653 68.312C323.965 70.52 319.933 71.96 315.709 71.96ZM315.709 62.072C318.685 62.072 321.373 60.728 323.293 58.616V44.984C321.373 42.872 318.685 41.528 315.709 41.528C310.045 41.528 305.437 46.136 305.437 51.8C305.437 57.464 310.045 62.072 315.709 62.072ZM343.149 59V3.8H353.133V58.616C353.133 59.96 354.285 61.016 355.629 61.016H369.645V3.8H379.629V61.016H385.293V71H355.149C347.661 71 343.149 66.008 343.149 59ZM389.582 51.8V3.8H399.566V51.8C399.566 57.176 403.886 61.496 409.166 61.496C414.83 61.496 418.862 56.888 418.862 51.896V3.8H428.846V57.56C428.846 60.44 430.094 61.784 432.302 61.784H433.454V71.96H428.846C425.582 71.96 422.606 70.328 420.782 67.832C417.422 70.424 413.774 71.96 409.166 71.96C398.606 71.96 389.582 63.8 389.582 51.8ZM450.394 39.896C442.906 37.592 437.434 30.584 437.434 22.232C437.434 12.056 445.69 3.8 455.77 3.8H474.97V71H464.986V41.528H460.186L448.09 71H437.338L450.394 39.896ZM447.418 22.616C447.418 27.512 451.45 31.544 456.346 31.544H465.274V13.784H456.346C451.45 13.784 447.418 17.72 447.418 22.616Z"/>
</mask>
<path d="M12.0559 41.432V39.432H10.0559V41.432H12.0559ZM12.0559 71V73H14.0559V71H12.0559ZM2.07188 71H0.0718812V73H2.07188V71ZM2.07188 3.704V1.704H0.0718812V3.704H2.07188ZM12.0559 13.688V11.688H10.0559V13.688H12.0559ZM12.0559 31.448H10.0559V33.448H12.0559V31.448ZM20.6959 3.704V5.704C30.0553 5.704 37.6079 13.2566 37.6079 22.616H39.6079H41.6079C41.6079 11.0474 32.2645 1.704 20.6959 1.704V3.704ZM39.6079 22.616H37.6079C37.6079 31.8728 30.0619 39.432 20.6959 39.432V41.432V43.432C32.2578 43.432 41.6079 34.0952 41.6079 22.616H39.6079ZM20.6959 41.432V39.432H12.0559V41.432V43.432H20.6959V41.432ZM12.0559 41.432H10.0559V71H12.0559H14.0559V41.432H12.0559ZM12.0559 71V69H2.07188V71V73H12.0559V71ZM2.07188 71H4.07188V3.704H2.07188H0.0718812V71H2.07188ZM2.07188 3.704V5.704H20.6959V3.704V1.704H2.07188V3.704ZM20.6959 31.448V33.448C26.6682 33.448 31.6239 28.6446 31.6239 22.616H29.6239H27.6239C27.6239 26.3794 24.5156 29.448 20.6959 29.448V31.448ZM29.6239 22.616H31.6239C31.6239 16.5054 26.6824 11.688 20.6959 11.688V13.688V15.688C24.5014 15.688 27.6239 18.7426 27.6239 22.616H29.6239ZM20.6959 13.688V11.688H12.0559V13.688V15.688H20.6959V13.688ZM12.0559 13.688H10.0559V31.448H12.0559H14.0559V13.688H12.0559ZM12.0559 31.448V33.448H20.6959V31.448V29.448H12.0559V31.448ZM80.4019 43.544V45.544H82.4019V43.544H80.4019ZM53.4259 43.544V41.544H51.4259V43.544H53.4259ZM69.7459 55.832V53.832H68.292L67.8434 55.215L69.7459 55.832ZM79.7299 55.832L81.7085 56.1236L82.0462 53.832H79.7299V55.832ZM53.4259 33.56H51.4259V35.56H53.4259V33.56ZM70.4179 33.56V35.56H72.4179V33.56H70.4179ZM61.4899 71.96V69.96C52.6017 69.96 45.4419 62.4968 45.4419 53.144H43.4419H41.4419C41.4419 64.5272 50.218 73.96 61.4899 73.96V71.96ZM43.4419 53.144H45.4419V21.944H43.4419H41.4419V53.144H43.4419ZM43.4419 21.944H45.4419C45.4419 12.4621 53.1167 4.84 62.1619 4.84V2.84V0.839996C50.855 0.839996 41.4419 10.3059 41.4419 21.944H43.4419ZM62.1619 2.84V4.84C71.1406 4.84 78.4019 12.3935 78.4019 21.944H80.4019H82.4019C82.4019 10.3745 73.5352 0.839996 62.1619 0.839996V2.84ZM80.4019 21.944H78.4019V43.544H80.4019H82.4019V21.944H80.4019ZM80.4019 43.544V41.544H53.4259V43.544V45.544H80.4019V43.544ZM53.4259 43.544H51.4259V53.144H53.4259H55.4259V43.544H53.4259ZM53.4259 53.144H51.4259C51.4259 58.9 55.4517 64.072 61.4899 64.072V62.072V60.072C58.1201 60.072 55.4259 57.18 55.4259 53.144H53.4259ZM61.4899 62.072V64.072C66.4046 64.072 70.2651 60.7139 71.6483 56.449L69.7459 55.832L67.8434 55.215C66.9227 58.0541 64.4471 60.072 61.4899 60.072V62.072ZM69.7459 55.832V57.832H79.7299V55.832V53.832H69.7459V55.832ZM79.7299 55.832L77.7513 55.5404C76.5443 63.7305 69.5668 69.96 61.4899 69.96V71.96V73.96C71.6529 73.96 80.2275 66.1735 81.7085 56.1236L79.7299 55.832ZM53.4259 33.56V35.56H70.4179V33.56V31.56H53.4259V33.56ZM70.4179 33.56H72.4179V21.752H70.4179H68.4179V33.56H70.4179ZM70.4179 21.752H72.4179C72.4179 15.8683 67.8918 10.824 61.9699 10.824V12.824V14.824C65.456 14.824 68.4179 17.8437 68.4179 21.752H70.4179ZM61.9699 12.824V10.824C56.0766 10.824 51.4259 15.8381 51.4259 21.752H53.4259H55.4259C55.4259 17.8739 58.4552 14.824 61.9699 14.824V12.824ZM53.4259 21.752H51.4259V33.56H53.4259H55.4259V21.752H53.4259ZM95.4701 21.176V23.176H97.4701V21.176H95.4701ZM85.4861 21.176H83.4861V23.176H85.4861V21.176ZM111.598 53.24V51.24H109.598V53.24H111.598ZM121.774 53.24L123.773 53.3146L123.85 51.24H121.774V53.24ZM103.63 71.96V69.96C99.1449 69.96 95.0601 68.6726 92.1198 66.0128C89.2161 63.3861 87.1981 59.2135 87.1981 52.952H85.1981H83.1981C83.1981 60.1305 85.5482 65.4619 89.4364 68.9792C93.2882 72.4634 98.4194 73.96 103.63 73.96V71.96ZM85.1981 52.952H87.1981C87.1981 47.9069 88.6944 44.5137 90.8476 41.9781C93.0573 39.3761 96.0609 37.5515 99.3234 35.8491C102.45 34.2178 106.036 32.6073 108.698 30.5432C111.509 28.3649 113.598 25.4696 113.598 21.176H111.598H109.598C109.598 23.8904 108.388 25.7231 106.248 27.3818C103.961 29.1547 100.947 30.4902 97.4729 32.3029C94.1354 34.0445 90.539 36.1619 87.7987 39.3889C85.0019 42.6823 83.1981 47.0051 83.1981 52.952H85.1981ZM111.598 21.176H113.598C113.598 18.024 112.621 15.3667 110.762 13.4918C108.906 11.6201 106.368 10.728 103.63 10.728V12.728V14.728C105.5 14.728 106.946 15.3239 107.922 16.3082C108.895 17.2893 109.598 18.856 109.598 21.176H111.598ZM103.63 12.728V10.728C100.953 10.728 98.3854 11.5867 96.4736 13.4208C94.5444 15.2715 93.4701 17.9363 93.4701 21.176H95.4701H97.4701C97.4701 18.8477 98.2198 17.2885 99.2427 16.3072C100.283 15.3093 101.795 14.728 103.63 14.728V12.728ZM95.4701 21.176V19.176H85.4861V21.176V23.176H95.4701V21.176ZM85.4861 21.176H87.4861C87.4861 11.145 94.9397 4.936 103.63 4.936V2.936V0.935995C92.9286 0.935995 83.4861 8.74295 83.4861 21.176H85.4861ZM103.63 2.936V4.936C112.819 4.936 119.774 11.5495 119.774 21.176H121.774H123.774C123.774 9.2985 114.986 0.935995 103.63 0.935995V2.936ZM121.774 21.176H119.774C119.774 26.3528 118.271 29.7918 116.123 32.3273C113.92 34.9283 110.925 36.7188 107.667 38.3777C104.549 39.965 100.952 41.5258 98.2853 43.5625C95.459 45.7208 93.3741 48.6152 93.3741 52.952H95.3741H97.3741C97.3741 50.1848 98.5893 48.3632 100.713 46.7415C102.996 44.9982 105.999 43.715 109.482 41.9423C112.823 40.2412 116.428 38.1557 119.175 34.9127C121.978 31.6042 123.774 27.2312 123.774 21.176H121.774ZM95.3741 52.952H93.3741C93.3741 59.6358 97.7451 64.264 103.438 64.264V62.264V60.264C100.299 60.264 97.3741 57.7881 97.3741 52.952H95.3741ZM103.438 62.264V64.264C109.35 64.264 113.598 59.1267 113.598 53.24H111.598H109.598C109.598 57.3373 106.743 60.264 103.438 60.264V62.264ZM111.598 53.24V55.24H121.774V53.24V51.24H111.598V53.24ZM121.774 53.24L119.776 53.1654C119.551 59.1857 117.593 63.3268 114.787 65.9676C111.968 68.6207 108.08 69.96 103.63 69.96V71.96V73.96C108.876 73.96 113.82 72.3713 117.529 68.8804C121.251 65.3772 123.517 60.1583 123.773 53.3146L121.774 53.24ZM127.071 3.8V1.8H125.071V3.8H127.071ZM137.055 3.8H139.055V1.8H137.055V3.8ZM156.351 3.8V1.8H154.351V3.8H156.351ZM166.335 3.8H168.335V1.8H166.335V3.8ZM170.943 61.784H172.943V59.784H170.943V61.784ZM170.943 71.96V73.96H172.943V71.96H170.943ZM158.271 67.832L159.885 66.652L158.674 64.9947L157.049 66.2484L158.271 67.832ZM127.071 51.8H129.071V3.8H127.071H125.071V51.8H127.071ZM127.071 3.8V5.8H137.055V3.8V1.8H127.071V3.8ZM137.055 3.8H135.055V51.8H137.055H139.055V3.8H137.055ZM137.055 51.8H135.055C135.055 58.2676 140.257 63.496 146.655 63.496V61.496V59.496C142.492 59.496 139.055 56.0844 139.055 51.8H137.055ZM146.655 61.496V63.496C153.487 63.496 158.351 57.9272 158.351 51.896H156.351H154.351C154.351 55.8488 151.15 59.496 146.655 59.496V61.496ZM156.351 51.896H158.351V3.8H156.351H154.351V51.896H156.351ZM156.351 3.8V5.8H166.335V3.8V1.8H156.351V3.8ZM166.335 3.8H164.335V57.56H166.335H168.335V3.8H166.335ZM166.335 57.56H164.335C164.335 59.2454 164.694 60.8437 165.707 62.0427C166.772 63.303 168.266 63.784 169.791 63.784V61.784V59.784C169.107 59.784 168.874 59.593 168.762 59.4613C168.599 59.2683 168.335 58.7546 168.335 57.56H166.335ZM169.791 61.784V63.784H170.943V61.784V59.784H169.791V61.784ZM170.943 61.784H168.943V71.96H170.943H172.943V61.784H170.943ZM170.943 71.96V69.96H166.335V71.96V73.96H170.943V71.96ZM166.335 71.96V69.96C163.742 69.96 161.352 68.6596 159.885 66.652L158.271 67.832L156.656 69.012C158.837 71.9964 162.4 73.96 166.335 73.96V71.96ZM158.271 67.832L157.049 66.2484C153.977 68.6183 150.748 69.96 146.655 69.96V71.96V73.96C151.777 73.96 155.844 72.2297 159.492 69.4156L158.271 67.832ZM146.655 71.96V69.96C137.18 69.96 129.071 62.6764 129.071 51.8H127.071H125.071C125.071 64.9236 135.009 73.96 146.655 73.96V71.96ZM211.691 22.328V24.328H213.691V22.328H211.691ZM201.803 22.328L199.808 22.4705L199.941 24.328H201.803V22.328ZM201.707 20.984L203.702 20.8415L203.701 20.8335L201.707 20.984ZM201.707 53.816L203.701 53.9665L203.702 53.9585L201.707 53.816ZM201.803 52.472V50.472H199.941L199.808 52.3295L201.803 52.472ZM211.787 52.472L213.782 52.6145L213.935 50.472H211.787V52.472ZM211.691 53.816L213.686 53.9624L213.686 53.9585L211.691 53.816ZM175.307 20.984H177.307C177.307 12.0155 184.565 4.84 193.451 4.84V2.84V0.839996C182.369 0.839996 173.307 9.79254 173.307 20.984H175.307ZM193.451 2.84V4.84C202.44 4.84 209.691 12.0223 209.691 20.984H211.691H213.691C213.691 9.78569 204.622 0.839996 193.451 0.839996V2.84ZM211.691 20.984H209.691V22.328H211.691H213.691V20.984H211.691ZM211.691 22.328V20.328H201.803V22.328V24.328H211.691V22.328ZM201.803 22.328L203.798 22.1855L203.702 20.8415L201.707 20.984L199.712 21.1265L199.808 22.4705L201.803 22.328ZM201.707 20.984L203.701 20.8335C203.478 17.8801 202.376 15.3378 200.529 13.522C198.677 11.7 196.193 10.728 193.451 10.728V12.728V14.728C195.221 14.728 196.673 15.34 197.725 16.3739C198.782 17.4142 199.551 18.9999 199.713 21.1345L201.707 20.984ZM193.451 12.728V10.728C187.819 10.728 183.291 15.2867 183.291 20.984H185.291H187.291C187.291 17.4653 190.059 14.728 193.451 14.728V12.728ZM185.291 20.984H183.291V53.816H185.291H187.291V20.984H185.291ZM185.291 53.816H183.291C183.291 59.4326 187.834 63.976 193.451 63.976V61.976V59.976C190.043 59.976 187.291 57.2234 187.291 53.816H185.291ZM193.451 61.976V63.976C196.175 63.976 198.658 63.0399 200.517 61.2418C202.373 59.4474 203.478 56.9227 203.701 53.9665L201.707 53.816L199.713 53.6655C199.552 55.7973 198.785 57.3526 197.737 58.3662C196.692 59.3761 195.238 59.976 193.451 59.976V61.976ZM201.707 53.816L203.702 53.9585L203.798 52.6145L201.803 52.472L199.808 52.3295L199.712 53.6735L201.707 53.816ZM201.803 52.472V54.472H211.787V52.472V50.472H201.803V52.472ZM211.787 52.472L209.792 52.3295L209.696 53.6735L211.691 53.816L213.686 53.9585L213.782 52.6145L211.787 52.472ZM211.691 53.816L209.696 53.6696C208.994 63.2383 202.339 69.96 193.451 69.96V71.96V73.96C204.722 73.96 212.852 65.3217 213.686 53.9624L211.691 53.816ZM193.451 71.96V69.96C184.571 69.96 177.307 62.6954 177.307 53.816H175.307H173.307C173.307 64.9046 182.362 73.96 193.451 73.96V71.96ZM175.307 53.816H177.307V20.984H175.307H173.307V53.816H175.307ZM250.697 3.8H252.697V1.8H250.697V3.8ZM250.697 13.784V15.784H252.697V13.784H250.697ZM237.737 13.784V11.784H235.737V13.784H237.737ZM237.737 71V73H239.737V71H237.737ZM227.753 71H225.753V73H227.753V71ZM227.753 13.784H229.753V11.784H227.753V13.784ZM214.697 13.784H212.697V15.784H214.697V13.784ZM214.697 3.8V1.8H212.697V3.8H214.697ZM250.697 3.8H248.697V13.784H250.697H252.697V3.8H250.697ZM250.697 13.784V11.784H237.737V13.784V15.784H250.697V13.784ZM237.737 13.784H235.737V71H237.737H239.737V13.784H237.737ZM237.737 71V69H227.753V71V73H237.737V71ZM227.753 71H229.753V13.784H227.753H225.753V71H227.753ZM227.753 13.784V11.784H214.697V13.784V15.784H227.753V13.784ZM214.697 13.784H216.697V3.8H214.697H212.697V13.784H214.697ZM214.697 3.8V5.8H250.697V3.8V1.8H214.697V3.8ZM265.942 41.432V39.432H263.942V41.432H265.942ZM265.942 71V73H267.942V71H265.942ZM255.958 71H253.958V73H255.958V71ZM255.958 3.704V1.704H253.958V3.704H255.958ZM265.942 13.688V11.688H263.942V13.688H265.942ZM265.942 31.448H263.942V33.448H265.942V31.448ZM274.582 3.704V5.704C283.942 5.704 291.494 13.2566 291.494 22.616H293.494H295.494C295.494 11.0474 286.151 1.704 274.582 1.704V3.704ZM293.494 22.616H291.494C291.494 31.8728 283.948 39.432 274.582 39.432V41.432V43.432C286.144 43.432 295.494 34.0952 295.494 22.616H293.494ZM274.582 41.432V39.432H265.942V41.432V43.432H274.582V41.432ZM265.942 41.432H263.942V71H265.942H267.942V41.432H265.942ZM265.942 71V69H255.958V71V73H265.942V71ZM255.958 71H257.958V3.704H255.958H253.958V71H255.958ZM255.958 3.704V5.704H274.582V3.704V1.704H255.958V3.704ZM274.582 31.448V33.448C280.554 33.448 285.51 28.6446 285.51 22.616H283.51H281.51C281.51 26.3794 278.402 29.448 274.582 29.448V31.448ZM283.51 22.616H285.51C285.51 16.5054 280.569 11.688 274.582 11.688V13.688V15.688C278.388 15.688 281.51 18.7426 281.51 22.616H283.51ZM274.582 13.688V11.688H265.942V13.688V15.688H274.582V13.688ZM265.942 13.688H263.942V31.448H265.942H267.942V13.688H265.942ZM265.942 31.448V33.448H274.582V31.448V29.448H265.942V31.448ZM323.293 33.176L322.55 35.033L325.293 36.1301V33.176H323.293ZM307.165 20.504L305.173 20.3229L305.173 20.3304L305.172 20.3379L307.165 20.504ZM307.069 21.656V23.656H308.909L309.062 21.8221L307.069 21.656ZM297.085 21.656H295.085V23.656H297.085V21.656ZM337.885 60.824H339.885V58.824H337.885V60.824ZM337.885 71V73H339.885V71H337.885ZM326.653 68.312L328.067 66.8978L326.785 65.6154L325.384 66.7665L326.653 68.312ZM323.293 58.616L324.773 59.9613L325.293 59.3892V58.616H323.293ZM323.293 44.984H325.293V44.2108L324.773 43.6387L323.293 44.984ZM315.709 71.96V69.96C305.576 69.96 297.453 61.8252 297.453 51.8H295.453H293.453C293.453 64.0468 303.379 73.96 315.709 73.96V71.96ZM295.453 51.8H297.453C297.453 41.7748 305.576 33.64 315.709 33.64V31.64V29.64C303.379 29.64 293.453 39.5532 293.453 51.8H295.453ZM315.709 31.64V33.64C318.009 33.64 320.349 34.1524 322.55 35.033L323.293 33.176L324.036 31.319C321.437 30.2796 318.593 29.64 315.709 29.64V31.64ZM323.293 33.176H325.293V20.504H323.293H321.293V33.176H323.293ZM323.293 20.504H325.293C325.293 14.6976 320.653 10.632 315.229 10.632V12.632V14.632C318.637 14.632 321.293 17.0944 321.293 20.504H323.293ZM315.229 12.632V10.632C309.59 10.632 305.633 15.2676 305.173 20.3229L307.165 20.504L309.157 20.6851C309.465 17.2924 312.036 14.632 315.229 14.632V12.632ZM307.165 20.504L305.172 20.3379L305.076 21.4899L307.069 21.656L309.062 21.8221L309.158 20.6701L307.165 20.504ZM307.069 21.656V19.656H297.085V21.656V23.656H307.069V21.656ZM297.085 21.656H299.085V20.504H297.085H295.085V21.656H297.085ZM297.085 20.504H299.085C299.085 11.7207 306.635 4.84 315.229 4.84V2.84V0.839996C304.623 0.839996 295.085 9.3193 295.085 20.504H297.085ZM315.229 2.84V4.84C323.996 4.84 331.277 10.9285 331.277 20.12H333.277H335.277C335.277 8.38345 325.854 0.839996 315.229 0.839996V2.84ZM333.277 20.12H331.277V57.368H333.277H335.277V20.12H333.277ZM333.277 57.368H331.277C331.277 58.923 331.668 60.4198 332.808 61.4901C333.924 62.5372 335.386 62.824 336.733 62.824V60.824V58.824C335.872 58.824 335.607 58.6308 335.546 58.5739C335.51 58.5402 335.277 58.309 335.277 57.368H333.277ZM336.733 60.824V62.824H337.885V60.824V58.824H336.733V60.824ZM337.885 60.824H335.885V71H337.885H339.885V60.824H337.885ZM337.885 71V69H333.373V71V73H337.885V71ZM333.373 71V69C331.206 69 329.318 68.1483 328.067 66.8978L326.653 68.312L325.239 69.7262C327.252 71.7397 330.164 73 333.373 73V71ZM326.653 68.312L325.384 66.7665C323.088 68.652 319.517 69.96 315.709 69.96V71.96V73.96C320.349 73.96 324.842 72.388 327.923 69.8575L326.653 68.312ZM315.709 62.072V64.072C319.307 64.072 322.515 62.4447 324.773 59.9613L323.293 58.616L321.813 57.2707C320.231 59.0113 318.063 60.072 315.709 60.072V62.072ZM323.293 58.616H325.293V44.984H323.293H321.293V58.616H323.293ZM323.293 44.984L324.773 43.6387C322.515 41.1553 319.307 39.528 315.709 39.528V41.528V43.528C318.063 43.528 320.231 44.5887 321.813 46.3293L323.293 44.984ZM315.709 41.528V39.528C308.941 39.528 303.437 45.0314 303.437 51.8H305.437H307.437C307.437 47.2406 311.15 43.528 315.709 43.528V41.528ZM305.437 51.8H303.437C303.437 58.5686 308.941 64.072 315.709 64.072V62.072V60.072C311.15 60.072 307.437 56.3594 307.437 51.8H305.437ZM343.149 3.8V1.8H341.149V3.8H343.149ZM353.133 3.8H355.133V1.8H353.133V3.8ZM369.645 61.016V63.016H371.645V61.016H369.645ZM369.645 3.8V1.8H367.645V3.8H369.645ZM379.629 3.8H381.629V1.8H379.629V3.8ZM379.629 61.016H377.629V63.016H379.629V61.016ZM385.293 61.016H387.293V59.016H385.293V61.016ZM385.293 71V73H387.293V71H385.293ZM343.149 59H345.149V3.8H343.149H341.149V59H343.149ZM343.149 3.8V5.8H353.133V3.8V1.8H343.149V3.8ZM353.133 3.8H351.133V58.616H353.133H355.133V3.8H353.133ZM353.133 58.616H351.133C351.133 61.1651 353.284 63.016 355.629 63.016V61.016V59.016C355.483 59.016 355.347 58.9577 355.253 58.8681C355.164 58.7835 355.133 58.6963 355.133 58.616H353.133ZM355.629 61.016V63.016H369.645V61.016V59.016H355.629V61.016ZM369.645 61.016H371.645V3.8H369.645H367.645V61.016H369.645ZM369.645 3.8V5.8H379.629V3.8V1.8H369.645V3.8ZM379.629 3.8H377.629V61.016H379.629H381.629V3.8H379.629ZM379.629 61.016V63.016H385.293V61.016V59.016H379.629V61.016ZM385.293 61.016H383.293V71H385.293H387.293V61.016H385.293ZM385.293 71V69H355.149V71V73H385.293V71ZM355.149 71V69C351.865 69 349.411 67.9166 347.776 66.2342C346.132 64.5428 345.149 62.0725 345.149 59H343.149H341.149C341.149 62.9355 342.423 66.4652 344.907 69.0218C347.4 71.5874 350.945 73 355.149 73V71ZM389.582 3.8V1.8H387.582V3.8H389.582ZM399.566 3.8H401.566V1.8H399.566V3.8ZM418.862 3.8V1.8H416.862V3.8H418.862ZM428.846 3.8H430.846V1.8H428.846V3.8ZM433.454 61.784H435.454V59.784H433.454V61.784ZM433.454 71.96V73.96H435.454V71.96H433.454ZM420.782 67.832L422.397 66.652L421.186 64.9947L419.56 66.2484L420.782 67.832ZM389.582 51.8H391.582V3.8H389.582H387.582V51.8H389.582ZM389.582 3.8V5.8H399.566V3.8V1.8H389.582V3.8ZM399.566 3.8H397.566V51.8H399.566H401.566V3.8H399.566ZM399.566 51.8H397.566C397.566 58.2676 402.768 63.496 409.166 63.496V61.496V59.496C405.003 59.496 401.566 56.0844 401.566 51.8H399.566ZM409.166 61.496V63.496C415.999 63.496 420.862 57.9272 420.862 51.896H418.862H416.862C416.862 55.8488 413.661 59.496 409.166 59.496V61.496ZM418.862 51.896H420.862V3.8H418.862H416.862V51.896H418.862ZM418.862 3.8V5.8H428.846V3.8V1.8H418.862V3.8ZM428.846 3.8H426.846V57.56H428.846H430.846V3.8H428.846ZM428.846 57.56H426.846C426.846 59.2454 427.205 60.8437 428.218 62.0427C429.283 63.303 430.777 63.784 432.302 63.784V61.784V59.784C431.618 59.784 431.385 59.593 431.274 59.4613C431.111 59.2683 430.846 58.7546 430.846 57.56H428.846ZM432.302 61.784V63.784H433.454V61.784V59.784H432.302V61.784ZM433.454 61.784H431.454V71.96H433.454H435.454V61.784H433.454ZM433.454 71.96V69.96H428.846V71.96V73.96H433.454V71.96ZM428.846 71.96V69.96C426.253 69.96 423.864 68.6596 422.397 66.652L420.782 67.832L419.167 69.012C421.348 71.9964 424.911 73.96 428.846 73.96V71.96ZM420.782 67.832L419.56 66.2484C416.488 68.6183 413.259 69.96 409.166 69.96V71.96V73.96C414.288 73.96 418.356 72.2297 422.003 69.4156L420.782 67.832ZM409.166 71.96V69.96C399.691 69.96 391.582 62.6764 391.582 51.8H389.582H387.582C387.582 64.9236 397.52 73.96 409.166 73.96V71.96ZM450.394 39.896L452.238 40.6701L453.093 38.6339L450.982 37.9844L450.394 39.896ZM474.97 3.8H476.97V1.8H474.97V3.8ZM474.97 71V73H476.97V71H474.97ZM464.986 71H462.986V73H464.986V71ZM464.986 41.528H466.986V39.528H464.986V41.528ZM460.186 41.528V39.528H458.845L458.336 40.7686L460.186 41.528ZM448.09 71V73H449.431L449.94 71.7594L448.09 71ZM437.338 71L435.494 70.2259L434.33 73H437.338V71ZM465.274 31.544V33.544H467.274V31.544H465.274ZM465.274 13.784H467.274V11.784H465.274V13.784ZM450.394 39.896L450.982 37.9844C444.316 35.9333 439.434 29.6879 439.434 22.232H437.434H435.434C435.434 31.4801 441.496 39.2507 449.806 41.8076L450.394 39.896ZM437.434 22.232H439.434C439.434 13.1538 446.801 5.8 455.77 5.8V3.8V1.8C444.579 1.8 435.434 10.9582 435.434 22.232H437.434ZM455.77 3.8V5.8H474.97V3.8V1.8H455.77V3.8ZM474.97 3.8H472.97V71H474.97H476.97V3.8H474.97ZM474.97 71V69H464.986V71V73H474.97V71ZM464.986 71H466.986V41.528H464.986H462.986V71H464.986ZM464.986 41.528V39.528H460.186V41.528V43.528H464.986V41.528ZM460.186 41.528L458.336 40.7686L446.24 70.2406L448.09 71L449.94 71.7594L462.036 42.2874L460.186 41.528ZM448.09 71V69H437.338V71V73H448.09V71ZM437.338 71L439.182 71.7741L452.238 40.6701L450.394 39.896L448.55 39.1219L435.494 70.2259L437.338 71ZM447.418 22.616H445.418C445.418 28.6166 450.346 33.544 456.346 33.544V31.544V29.544C452.555 29.544 449.418 26.4074 449.418 22.616H447.418ZM456.346 31.544V33.544H465.274V31.544V29.544H456.346V31.544ZM465.274 31.544H467.274V13.784H465.274H463.274V31.544H465.274ZM465.274 13.784V11.784H456.346V13.784V15.784H465.274V13.784ZM456.346 13.784V11.784C450.374 11.784 445.418 16.5874 445.418 22.616H447.418H449.418C449.418 18.8526 452.526 15.784 456.346 15.784V13.784Z" fill="#342A1E" mask="url(#path-1-outside-1_251_7)"/>
</svg>
