<svg width="51" height="54" viewBox="0 0 51 54" fill="none" xmlns="http://www.w3.org/2000/svg">
<path d="M0 44.1339V23.9863H45L44.6213 44.1339L29.979 53.9863H14.9579L0 44.1339Z" fill="#BEA88E"/>
<path d="M51 31.2422L44 30.9863C52.377 32.5218 51.918 42.5021 44 43.9863H51V31.2422Z" fill="#BEA88E"/>
<path d="M20 1.99414C20.394 1.99414 20.7841 2.12347 21.1481 2.37474C21.512 2.62602 21.8427 2.99431 22.1213 3.45861C22.3999 3.9229 22.6209 4.4741 22.7716 5.08072C22.9224 5.68735 23 6.33753 23 6.99414C23 7.65075 22.9224 8.30093 22.7716 8.90756C22.6209 9.51419 22.3999 10.0654 22.1213 10.5297C21.8427 10.994 21.512 11.3623 21.1481 11.6135C20.7841 11.8648 20.394 11.9941 20 11.9941L20 6.99414V1.99414Z" fill="#BEA88E"/>
<path d="M20 21.9941C19.606 21.9941 19.2159 21.8648 18.8519 21.6135C18.488 21.3623 18.1573 20.994 17.8787 20.5297C17.6001 20.0654 17.3791 19.5142 17.2284 18.9076C17.0776 18.3009 17 17.6507 17 16.9941C17 16.3375 17.0776 15.6874 17.2284 15.0807C17.3791 14.4741 17.6001 13.9229 17.8787 13.4586C18.1573 12.9943 18.488 12.626 18.8519 12.3747C19.2159 12.1235 19.606 11.9941 20 11.9941L20 16.9941V21.9941Z" fill="#BEA88E"/>
<path d="M25.8068 -0.000904083C26.1806 -0.000904083 26.5506 0.126012 26.8959 0.372596C27.2412 0.619181 27.5549 0.980606 27.8192 1.43624C28.0834 1.89187 28.2931 2.43278 28.4361 3.02808C28.5791 3.62339 28.6527 4.26144 28.6527 4.9058C28.6527 5.55016 28.5791 6.1882 28.4361 6.78351C28.2931 7.37882 28.0834 7.91973 27.8192 8.37536C27.5549 8.83099 27.2412 9.19241 26.8959 9.439C26.5506 9.68558 26.1806 9.8125 25.8068 9.8125L25.8068 4.9058V-0.000904083Z" fill="#BEA88E"/>
<path d="M25.8074 19.6259C25.4337 19.6259 25.0636 19.499 24.7184 19.2524C24.3731 19.0058 24.0594 18.6444 23.7951 18.1888C23.5308 17.7331 23.3212 17.1922 23.1782 16.5969C23.0352 16.0016 22.9615 15.3636 22.9615 14.7192C22.9615 14.0748 23.0352 13.4368 23.1782 12.8415C23.3212 12.2462 23.5308 11.7053 23.7951 11.2496C24.0594 10.794 24.3731 10.4326 24.7184 10.186C25.0636 9.93942 25.4337 9.8125 25.8074 9.8125L25.8074 14.7192V19.6259Z" fill="#BEA88E"/>
<path d="M45 23.9863C45 24.7743 44.418 25.5545 43.2873 26.2824C42.1566 27.0104 40.4992 27.6718 38.4099 28.229C36.3206 28.7861 33.8402 29.2281 31.1104 29.5296C28.3806 29.8311 25.4547 29.9863 22.5 29.9863C19.5453 29.9863 16.6194 29.8311 13.8896 29.5296C11.1598 29.2281 8.67941 28.7861 6.5901 28.229C4.50078 27.6718 2.84344 27.0104 1.71271 26.2824C0.581979 25.5545 -2.58312e-07 24.7743 0 23.9863L22.5 23.9863H45Z" fill="#342A1E"/>
</svg>
