<svg width="445" height="97" viewBox="0 0 445 97" fill="none" xmlns="http://www.w3.org/2000/svg">
<mask id="path-1-outside-1_42_1548" maskUnits="userSpaceOnUse" x="0" y="-1" width="445" height="98" fill="black">
<rect fill="white" y="-1" width="445" height="98"/>
<path d="M2.76749 93V3.39999H18.5115L43.4715 76.104L68.4315 3.39999H84.1755V93H71.1195L70.7355 31.048L50.2555 93H36.6875L16.2075 31.048L15.8235 93H2.76749ZM120.185 94.28C105.209 94.28 93.1775 82.248 93.1775 67.4C93.1775 52.552 105.209 40.52 120.185 40.52C123.641 40.52 127.097 41.288 130.297 42.568V25.672C130.297 19.528 125.433 15.176 119.545 15.176C113.657 15.176 109.305 20.04 108.793 25.672L108.665 27.208H95.3535V25.672C95.3535 12.36 106.745 2.12 119.545 2.12C132.473 2.12 143.609 11.208 143.609 25.16V74.824C143.609 78.152 145.273 79.432 148.217 79.432H149.753V93H143.737C140.153 93 136.953 91.592 134.777 89.416C131.193 92.36 125.817 94.28 120.185 94.28ZM120.185 81.096C124.153 81.096 127.737 79.304 130.297 76.488V58.312C127.737 55.496 124.153 53.704 120.185 53.704C112.633 53.704 106.489 59.848 106.489 67.4C106.489 74.952 112.633 81.096 120.185 81.096ZM179.428 94.28C166.5 94.28 154.852 86.856 154.852 68.936C154.852 39.624 190.052 45.256 190.052 26.568C190.052 19.272 185.572 15.304 179.428 15.304C173.412 15.304 168.548 19.144 168.548 26.568H155.236C155.236 11.592 166.5 2.24799 179.428 2.24799C193.125 2.24799 203.62 12.232 203.62 26.568C203.62 56.52 168.42 49.992 168.42 68.936C168.42 76.616 173.284 81.352 179.172 81.352C185.316 81.352 190.052 75.976 190.052 69.32H203.62C202.98 86.472 192.356 94.28 179.428 94.28ZM237.691 94.28C222.715 94.28 210.683 82.248 210.683 67.4C210.683 52.552 222.715 40.52 237.691 40.52C241.147 40.52 244.603 41.288 247.803 42.568V25.672C247.803 19.528 242.939 15.176 237.051 15.176C231.163 15.176 226.811 20.04 226.299 25.672L226.171 27.208H212.859V25.672C212.859 12.36 224.251 2.12 237.051 2.12C249.979 2.12 261.115 11.208 261.115 25.16V74.824C261.115 78.152 262.779 79.432 265.723 79.432H267.259V93H261.243C257.659 93 254.459 91.592 252.283 89.416C248.699 92.36 243.323 94.28 237.691 94.28ZM237.691 81.096C241.659 81.096 245.243 79.304 247.803 76.488V58.312C245.243 55.496 241.659 53.704 237.691 53.704C230.139 53.704 223.995 59.848 223.995 67.4C223.995 74.952 230.139 81.096 237.691 81.096ZM307.814 48.2C314.854 52.68 319.462 60.616 319.462 69.32C319.462 82.632 308.71 94.408 295.27 94.408C281.958 94.408 271.078 82.632 271.078 69.32H284.39C284.39 75.336 289.254 80.456 295.27 80.456C301.286 80.456 306.15 75.336 306.15 69.32C306.15 63.304 301.286 58.696 295.27 58.696V37.064C301.286 37.064 306.15 32.2 306.15 26.184C306.15 20.168 301.286 15.304 295.27 15.304C289.254 15.304 284.39 20.168 284.39 26.184H271.078C271.078 12.872 281.958 1.992 295.27 1.992C308.71 1.992 319.462 12.872 319.462 26.184C319.462 35.016 314.854 43.72 307.814 48.2ZM326.563 67.4V3.39999H339.875V67.4C339.875 74.568 345.635 80.328 352.675 80.328C360.227 80.328 365.603 74.184 365.603 67.528V3.39999H378.915V75.08C378.915 78.92 380.579 80.712 383.523 80.712H385.059V94.28H378.915C374.563 94.28 370.595 92.104 368.163 88.776C363.683 92.232 358.819 94.28 352.675 94.28C338.595 94.28 326.563 83.4 326.563 67.4ZM442.206 3.39999V93H428.894V55.496H405.47V93H392.158V3.39999H405.47V42.184H428.894V3.39999H442.206Z"/>
</mask>
<path d="M2.76749 93H0.767493V95H2.76749V93ZM2.76749 3.39999V1.39999H0.767493V3.39999H2.76749ZM18.5115 3.39999L20.4031 2.75058L19.9395 1.39999H18.5115V3.39999ZM43.4715 76.104L41.5799 76.7534L43.4715 82.2634L45.3631 76.7534L43.4715 76.104ZM68.4315 3.39999V1.39999H67.0035L66.5399 2.75058L68.4315 3.39999ZM84.1755 3.39999H86.1755V1.39999H84.1755V3.39999ZM84.1755 93V95H86.1755V93H84.1755ZM71.1195 93L69.1195 93.0124L69.1319 95H71.1195V93ZM70.7355 31.048L72.7355 31.0356L68.8366 30.4203L70.7355 31.048ZM50.2555 93V95H51.7008L52.1544 93.6277L50.2555 93ZM36.6875 93L34.7886 93.6277L35.2422 95H36.6875V93ZM16.2075 31.048L18.1064 30.4203L14.2075 31.0356L16.2075 31.048ZM15.8235 93V95H17.8111L17.8235 93.0124L15.8235 93ZM2.76749 93H4.76749V3.39999H2.76749H0.767493V93H2.76749ZM2.76749 3.39999V5.39999H18.5115V3.39999V1.39999H2.76749V3.39999ZM18.5115 3.39999L16.6199 4.04941L41.5799 76.7534L43.4715 76.104L45.3631 75.4546L20.4031 2.75058L18.5115 3.39999ZM43.4715 76.104L45.3631 76.7534L70.3231 4.04941L68.4315 3.39999L66.5399 2.75058L41.5799 75.4546L43.4715 76.104ZM68.4315 3.39999V5.39999H84.1755V3.39999V1.39999H68.4315V3.39999ZM84.1755 3.39999H82.1755V93H84.1755H86.1755V3.39999H84.1755ZM84.1755 93V91H71.1195V93V95H84.1755V93ZM71.1195 93L73.1195 92.9876L72.7355 31.0356L70.7355 31.048L68.7355 31.0604L69.1195 93.0124L71.1195 93ZM70.7355 31.048L68.8366 30.4203L48.3566 92.3723L50.2555 93L52.1544 93.6277L72.6344 31.6757L70.7355 31.048ZM50.2555 93V91H36.6875V93V95H50.2555V93ZM36.6875 93L38.5864 92.3723L18.1064 30.4203L16.2075 31.048L14.3086 31.6757L34.7886 93.6277L36.6875 93ZM16.2075 31.048L14.2075 31.0356L13.8235 92.9876L15.8235 93L17.8235 93.0124L18.2075 31.0604L16.2075 31.048ZM15.8235 93V91H2.76749V93V95H15.8235V93ZM130.297 42.568L129.555 44.425L132.297 45.5221V42.568H130.297ZM108.793 25.672L106.802 25.4909L106.801 25.4984L106.8 25.5059L108.793 25.672ZM108.665 27.208V29.208H110.506L110.659 27.3741L108.665 27.208ZM95.3535 27.208H93.3535V29.208H95.3535V27.208ZM149.753 79.432H151.753V77.432H149.753V79.432ZM149.753 93V95H151.753V93H149.753ZM134.777 89.416L136.192 88.0018L134.909 86.7194L133.508 87.8705L134.777 89.416ZM130.297 76.488L131.777 77.8333L132.297 77.2612V76.488H130.297ZM130.297 58.312H132.297V57.5388L131.777 56.9666L130.297 58.312ZM120.185 94.28V92.28C106.308 92.28 95.1775 81.1372 95.1775 67.4H93.1775H91.1775C91.1775 83.3588 104.111 96.28 120.185 96.28V94.28ZM93.1775 67.4H95.1775C95.1775 53.6628 106.308 42.52 120.185 42.52V40.52V38.52C104.111 38.52 91.1775 51.4412 91.1775 67.4H93.1775ZM120.185 40.52V42.52C123.349 42.52 126.553 43.2244 129.555 44.425L130.297 42.568L131.04 40.711C127.642 39.3516 123.934 38.52 120.185 38.52V40.52ZM130.297 42.568H132.297V25.672H130.297H128.297V42.568H130.297ZM130.297 25.672H132.297C132.297 18.3296 126.442 13.176 119.545 13.176V15.176V17.176C124.425 17.176 128.297 20.7264 128.297 25.672H130.297ZM119.545 15.176V13.176C112.435 13.176 107.389 19.0276 106.802 25.4909L108.793 25.672L110.785 25.8531C111.222 21.0524 114.88 17.176 119.545 17.176V15.176ZM108.793 25.672L106.8 25.5059L106.672 27.0419L108.665 27.208L110.659 27.3741L110.787 25.8381L108.793 25.672ZM108.665 27.208V25.208H95.3535V27.208V29.208H108.665V27.208ZM95.3535 27.208H97.3535V25.672H95.3535H93.3535V27.208H95.3535ZM95.3535 25.672H97.3535C97.3535 13.5607 107.751 4.12 119.545 4.12V2.12V0.119995C105.74 0.119995 93.3535 11.1593 93.3535 25.672H95.3535ZM119.545 2.12V4.12C131.545 4.12 141.609 12.4805 141.609 25.16H143.609H145.609C145.609 9.93545 133.402 0.119995 119.545 0.119995V2.12ZM143.609 25.16H141.609V74.824H143.609H145.609V25.16H143.609ZM143.609 74.824H141.609C141.609 76.795 142.104 78.5798 143.441 79.8341C144.752 81.0652 146.503 81.432 148.217 81.432V79.432V77.432C146.988 77.432 146.435 77.1588 146.178 76.9179C145.947 76.7002 145.609 76.181 145.609 74.824H143.609ZM148.217 79.432V81.432H149.753V79.432V77.432H148.217V79.432ZM149.753 79.432H147.753V93H149.753H151.753V79.432H149.753ZM149.753 93V91H143.737V93V95H149.753V93ZM143.737 93V91C140.675 91 137.986 89.7963 136.192 88.0018L134.777 89.416L133.363 90.8302C135.921 93.3877 139.632 95 143.737 95V93ZM134.777 89.416L133.508 87.8705C130.317 90.492 125.402 92.28 120.185 92.28V94.28V96.28C126.233 96.28 132.07 94.228 136.047 90.9615L134.777 89.416ZM120.185 81.096V83.096C124.776 83.096 128.88 81.0207 131.777 77.8333L130.297 76.488L128.818 75.1427C126.595 77.5873 123.531 79.096 120.185 79.096V81.096ZM130.297 76.488H132.297V58.312H130.297H128.297V76.488H130.297ZM130.297 58.312L131.777 56.9666C128.88 53.7793 124.776 51.704 120.185 51.704V53.704V55.704C123.531 55.704 126.595 57.2127 128.818 59.6573L130.297 58.312ZM120.185 53.704V51.704C111.529 51.704 104.489 58.7434 104.489 67.4H106.489H108.489C108.489 60.9526 113.738 55.704 120.185 55.704V53.704ZM106.489 67.4H104.489C104.489 76.0566 111.529 83.096 120.185 83.096V81.096V79.096C113.738 79.096 108.489 73.8474 108.489 67.4H106.489ZM168.548 26.568V28.568H170.548V26.568H168.548ZM155.236 26.568H153.236V28.568H155.236V26.568ZM190.052 69.32V67.32H188.052V69.32H190.052ZM203.62 69.32L205.619 69.3946L205.697 67.32H203.62V69.32ZM179.428 94.28V92.28C173.327 92.28 167.706 90.5286 163.634 86.8448C159.598 83.1941 156.852 77.4375 156.852 68.936H154.852H152.852C152.852 78.3545 155.931 85.2699 160.951 89.8112C165.935 94.3194 172.602 96.28 179.428 96.28V94.28ZM154.852 68.936H156.852C156.852 62.0589 158.899 57.3797 161.877 53.8726C164.912 50.2991 169.015 47.8175 173.378 45.5411C177.604 43.3358 182.29 41.2343 185.778 38.5307C189.413 35.7129 192.052 32.0296 192.052 26.568H190.052H188.052C188.052 30.4504 186.292 33.0711 183.327 35.3693C180.215 37.7817 176.101 39.6082 171.527 41.9949C167.09 44.3105 162.393 47.0849 158.828 51.2834C155.206 55.5483 152.852 61.1571 152.852 68.936H154.852ZM190.052 26.568H192.052C192.052 22.504 190.796 19.1427 188.465 16.7918C186.137 14.4441 182.935 13.304 179.428 13.304V15.304V17.304C182.066 17.304 184.176 18.1479 185.624 19.6082C187.069 21.0653 188.052 23.336 188.052 26.568H190.052ZM179.428 15.304V13.304C176 13.304 172.752 14.4027 170.348 16.7088C167.927 19.0315 166.548 22.4003 166.548 26.568H168.548H170.548C170.548 23.3117 171.602 21.0485 173.117 19.5952C174.649 18.1253 176.841 17.304 179.428 17.304V15.304ZM168.548 26.568V24.568H155.236V26.568V28.568H168.548V26.568ZM155.236 26.568H157.236C157.236 12.793 167.506 4.24799 179.428 4.24799V2.24799V0.247993C165.495 0.247993 153.236 10.391 153.236 26.568H155.236ZM179.428 2.24799V4.24799C192.041 4.24799 201.62 13.3575 201.62 26.568H203.62H205.62C205.62 11.1065 194.208 0.247993 179.428 0.247993V2.24799ZM203.62 26.568H201.62C201.62 33.6168 199.567 38.3578 196.594 41.8673C193.566 45.4423 189.472 47.8788 185.113 50.0977C180.895 52.245 176.199 54.2798 172.707 56.9465C169.055 59.7348 166.42 63.4152 166.42 68.936H168.42H170.42C170.42 64.9848 172.186 62.3772 175.134 60.1255C178.242 57.7522 182.346 55.995 186.928 53.6623C191.369 51.4012 196.075 48.6697 199.647 44.4527C203.274 40.1702 205.62 34.4952 205.62 26.568H203.62ZM168.42 68.936H166.42C166.42 77.5398 172.007 83.352 179.172 83.352V81.352V79.352C174.562 79.352 170.42 75.6921 170.42 68.936H168.42ZM179.172 81.352V83.352C186.62 83.352 192.052 76.8707 192.052 69.32H190.052H188.052C188.052 75.0813 184.013 79.352 179.172 79.352V81.352ZM190.052 69.32V71.32H203.62V69.32V67.32H190.052V69.32ZM203.62 69.32L201.622 69.2454C201.317 77.4097 198.656 83.1108 194.762 86.7756C190.855 90.4527 185.495 92.28 179.428 92.28V94.28V96.28C186.29 96.28 192.706 94.2033 197.503 89.6884C202.313 85.1612 205.284 78.3823 205.619 69.3946L203.62 69.32ZM247.803 42.568L247.06 44.425L249.803 45.5221V42.568H247.803ZM226.299 25.672L224.307 25.4909L224.306 25.4984L224.305 25.5059L226.299 25.672ZM226.171 27.208V29.208H228.011L228.164 27.3741L226.171 27.208ZM212.859 27.208H210.859V29.208H212.859V27.208ZM267.259 79.432H269.259V77.432H267.259V79.432ZM267.259 93V95H269.259V93H267.259ZM252.283 89.416L253.697 88.0018L252.414 86.7194L251.013 87.8705L252.283 89.416ZM247.803 76.488L249.282 77.8333L249.803 77.2612V76.488H247.803ZM247.803 58.312H249.803V57.5388L249.282 56.9666L247.803 58.312ZM237.691 94.28V92.28C223.813 92.28 212.683 81.1372 212.683 67.4H210.683H208.683C208.683 83.3588 221.616 96.28 237.691 96.28V94.28ZM210.683 67.4H212.683C212.683 53.6628 223.813 42.52 237.691 42.52V40.52V38.52C221.616 38.52 208.683 51.4412 208.683 67.4H210.683ZM237.691 40.52V42.52C240.854 42.52 244.058 43.2244 247.06 44.425L247.803 42.568L248.545 40.711C245.147 39.3516 241.439 38.52 237.691 38.52V40.52ZM247.803 42.568H249.803V25.672H247.803H245.803V42.568H247.803ZM247.803 25.672H249.803C249.803 18.3296 243.947 13.176 237.051 13.176V15.176V17.176C241.93 17.176 245.803 20.7264 245.803 25.672H247.803ZM237.051 15.176V13.176C229.94 13.176 224.894 19.0276 224.307 25.4909L226.299 25.672L228.29 25.8531C228.727 21.0524 232.385 17.176 237.051 17.176V15.176ZM226.299 25.672L224.305 25.5059L224.177 27.0419L226.171 27.208L228.164 27.3741L228.292 25.8381L226.299 25.672ZM226.171 27.208V25.208H212.859V27.208V29.208H226.171V27.208ZM212.859 27.208H214.859V25.672H212.859H210.859V27.208H212.859ZM212.859 25.672H214.859C214.859 13.5607 225.256 4.12 237.051 4.12V2.12V0.119995C223.245 0.119995 210.859 11.1593 210.859 25.672H212.859ZM237.051 2.12V4.12C249.05 4.12 259.115 12.4805 259.115 25.16H261.115H263.115C263.115 9.93545 250.907 0.119995 237.051 0.119995V2.12ZM261.115 25.16H259.115V74.824H261.115H263.115V25.16H261.115ZM261.115 74.824H259.115C259.115 76.795 259.609 78.5798 260.946 79.8341C262.257 81.0652 264.008 81.432 265.723 81.432V79.432V77.432C264.493 77.432 263.94 77.1588 263.683 76.9179C263.452 76.7002 263.115 76.181 263.115 74.824H261.115ZM265.723 79.432V81.432H267.259V79.432V77.432H265.723V79.432ZM267.259 79.432H265.259V93H267.259H269.259V79.432H267.259ZM267.259 93V91H261.243V93V95H267.259V93ZM261.243 93V91C258.18 91 255.491 89.7963 253.697 88.0018L252.283 89.416L250.868 90.8302C253.426 93.3877 257.137 95 261.243 95V93ZM252.283 89.416L251.013 87.8705C247.822 90.492 242.907 92.28 237.691 92.28V94.28V96.28C243.738 96.28 249.575 94.228 253.552 90.9615L252.283 89.416ZM237.691 81.096V83.096C242.281 83.096 246.385 81.0207 249.282 77.8333L247.803 76.488L246.323 75.1427C244.1 77.5873 241.036 79.096 237.691 79.096V81.096ZM247.803 76.488H249.803V58.312H247.803H245.803V76.488H247.803ZM247.803 58.312L249.282 56.9666C246.385 53.7793 242.281 51.704 237.691 51.704V53.704V55.704C241.036 55.704 244.1 57.2127 246.323 59.6573L247.803 58.312ZM237.691 53.704V51.704C229.034 51.704 221.995 58.7434 221.995 67.4H223.995H225.995C225.995 60.9526 231.243 55.704 237.691 55.704V53.704ZM223.995 67.4H221.995C221.995 76.0566 229.034 83.096 237.691 83.096V81.096V79.096C231.243 79.096 225.995 73.8474 225.995 67.4H223.995ZM307.814 48.2L306.74 46.5127L304.088 48.2L306.74 49.8873L307.814 48.2ZM271.078 69.32V67.32H269.078V69.32H271.078ZM284.39 69.32H286.39V67.32H284.39V69.32ZM295.27 58.696H293.27V60.696H295.27V58.696ZM295.27 37.064V35.064H293.27V37.064H295.27ZM284.39 26.184V28.184H286.39V26.184H284.39ZM271.078 26.184H269.078V28.184H271.078V26.184ZM307.814 48.2L306.74 49.8873C313.224 54.0135 317.462 61.3241 317.462 69.32H319.462H321.462C321.462 59.9079 316.483 51.3465 308.887 46.5127L307.814 48.2ZM319.462 69.32H317.462C317.462 81.6296 307.505 92.408 295.27 92.408V94.408V96.408C309.914 96.408 321.462 83.6344 321.462 69.32H319.462ZM295.27 94.408V92.408C283.155 92.408 273.078 81.6225 273.078 69.32H271.078H269.078C269.078 83.6415 280.76 96.408 295.27 96.408V94.408ZM271.078 69.32V71.32H284.39V69.32V67.32H271.078V69.32ZM284.39 69.32H282.39C282.39 76.3798 288.089 82.456 295.27 82.456V80.456V78.456C290.418 78.456 286.39 74.2922 286.39 69.32H284.39ZM295.27 80.456V82.456C302.45 82.456 308.15 76.3798 308.15 69.32H306.15H304.15C304.15 74.2922 300.121 78.456 295.27 78.456V80.456ZM306.15 69.32H308.15C308.15 62.1376 302.327 56.696 295.27 56.696V58.696V60.696C300.244 60.696 304.15 64.4704 304.15 69.32H306.15ZM295.27 58.696H297.27V37.064H295.27H293.27V58.696H295.27ZM295.27 37.064V39.064C302.39 39.064 308.15 33.3046 308.15 26.184H306.15H304.15C304.15 31.0954 300.181 35.064 295.27 35.064V37.064ZM306.15 26.184H308.15C308.15 19.0634 302.39 13.304 295.27 13.304V15.304V17.304C300.181 17.304 304.15 21.2726 304.15 26.184H306.15ZM295.27 15.304V13.304C288.149 13.304 282.39 19.0634 282.39 26.184H284.39H286.39C286.39 21.2726 290.358 17.304 295.27 17.304V15.304ZM284.39 26.184V24.184H271.078V26.184V28.184H284.39V26.184ZM271.078 26.184H273.078C273.078 13.9766 283.062 3.992 295.27 3.992V1.992V-0.00800323C280.853 -0.00800323 269.078 11.7674 269.078 26.184H271.078ZM295.27 1.992V3.992C307.598 3.992 317.462 13.9697 317.462 26.184H319.462H321.462C321.462 11.7743 309.821 -0.00800323 295.27 -0.00800323V1.992ZM319.462 26.184H317.462C317.462 34.3795 313.164 42.4245 306.74 46.5127L307.814 48.2L308.887 49.8873C316.543 45.0155 321.462 35.6525 321.462 26.184H319.462ZM326.563 3.39999V1.39999H324.563V3.39999H326.563ZM339.875 3.39999H341.875V1.39999H339.875V3.39999ZM365.603 3.39999V1.39999H363.603V3.39999H365.603ZM378.915 3.39999H380.915V1.39999H378.915V3.39999ZM385.059 80.712H387.059V78.712H385.059V80.712ZM385.059 94.28V96.28H387.059V94.28H385.059ZM368.163 88.776L369.777 87.596L368.566 85.9387L366.941 87.1924L368.163 88.776ZM326.563 67.4H328.563V3.39999H326.563H324.563V67.4H326.563ZM326.563 3.39999V5.39999H339.875V3.39999V1.39999H326.563V3.39999ZM339.875 3.39999H337.875V67.4H339.875H341.875V3.39999H339.875ZM339.875 67.4H337.875C337.875 75.6596 344.517 82.328 352.675 82.328V80.328V78.328C346.752 78.328 341.875 73.4764 341.875 67.4H339.875ZM352.675 80.328V82.328C361.395 82.328 367.603 75.2232 367.603 67.528H365.603H363.603C363.603 73.1448 359.058 78.328 352.675 78.328V80.328ZM365.603 67.528H367.603V3.39999H365.603H363.603V67.528H365.603ZM365.603 3.39999V5.39999H378.915V3.39999V1.39999H365.603V3.39999ZM378.915 3.39999H376.915V75.08H378.915H380.915V3.39999H378.915ZM378.915 75.08H376.915C376.915 77.2454 377.378 79.1957 378.587 80.6267C379.847 82.119 381.63 82.712 383.523 82.712V80.712V78.712C382.471 78.712 381.95 78.409 381.642 78.0453C381.283 77.6203 380.915 76.7546 380.915 75.08H378.915ZM383.523 80.712V82.712H385.059V80.712V78.712H383.523V80.712ZM385.059 80.712H383.059V94.28H385.059H387.059V80.712H385.059ZM385.059 94.28V92.28H378.915V94.28V96.28H385.059V94.28ZM378.915 94.28V92.28C375.233 92.28 371.852 90.4356 369.777 87.596L368.163 88.776L366.548 89.956C369.337 93.7724 373.892 96.28 378.915 96.28V94.28ZM368.163 88.776L366.941 87.1924C362.749 90.4263 358.304 92.28 352.675 92.28V94.28V96.28C359.333 96.28 364.616 94.0377 369.384 90.3596L368.163 88.776ZM352.675 94.28V92.28C339.68 92.28 328.563 82.2764 328.563 67.4H326.563H324.563C324.563 84.5236 337.509 96.28 352.675 96.28V94.28ZM442.206 3.39999H444.206V1.39999H442.206V3.39999ZM442.206 93V95H444.206V93H442.206ZM428.894 93H426.894V95H428.894V93ZM428.894 55.496H430.894V53.496H428.894V55.496ZM405.47 55.496V53.496H403.47V55.496H405.47ZM405.47 93V95H407.47V93H405.47ZM392.158 93H390.158V95H392.158V93ZM392.158 3.39999V1.39999H390.158V3.39999H392.158ZM405.47 3.39999H407.47V1.39999H405.47V3.39999ZM405.47 42.184H403.47V44.184H405.47V42.184ZM428.894 42.184V44.184H430.894V42.184H428.894ZM428.894 3.39999V1.39999H426.894V3.39999H428.894ZM442.206 3.39999H440.206V93H442.206H444.206V3.39999H442.206ZM442.206 93V91H428.894V93V95H442.206V93ZM428.894 93H430.894V55.496H428.894H426.894V93H428.894ZM428.894 55.496V53.496H405.47V55.496V57.496H428.894V55.496ZM405.47 55.496H403.47V93H405.47H407.47V55.496H405.47ZM405.47 93V91H392.158V93V95H405.47V93ZM392.158 93H394.158V3.39999H392.158H390.158V93H392.158ZM392.158 3.39999V5.39999H405.47V3.39999V1.39999H392.158V3.39999ZM405.47 3.39999H403.47V42.184H405.47H407.47V3.39999H405.47ZM405.47 42.184V44.184H428.894V42.184V40.184H405.47V42.184ZM428.894 42.184H430.894V3.39999H428.894H426.894V42.184H428.894ZM428.894 3.39999V5.39999H442.206V3.39999V1.39999H428.894V3.39999Z" fill="#342A1E" mask="url(#path-1-outside-1_42_1548)"/>
</svg>
