<svg width="874" height="75" viewBox="0 0 874 75" fill="none" xmlns="http://www.w3.org/2000/svg">
<mask id="path-1-outside-1_262_5" maskUnits="userSpaceOnUse" x="0" y="0" width="874" height="75" fill="black">
<rect fill="white" width="874" height="75"/>
<path d="M2.11812 71V3.8H29.4781C36.2941 3.8 40.9021 8.504 40.9021 14.84V71H30.9181V17.72C30.9181 15.512 29.6701 13.784 27.0781 13.784H12.1021V71H2.11812ZM66.7284 3.704C77.1924 3.704 85.6404 12.152 85.6404 22.616C85.6404 32.984 77.1924 41.432 66.7284 41.432H58.0884V71H48.1044V3.704H66.7284ZM66.7284 31.448C71.6244 31.448 75.6564 27.512 75.6564 22.616C75.6564 17.624 71.6244 13.688 66.7284 13.688H58.0884V31.448H66.7284ZM107.906 2.84C118.274 2.84 126.434 11 126.434 21.08V53.72C126.434 63.704 118.274 71.96 107.906 71.96C97.7304 71.96 89.4744 63.704 89.4744 53.72V21.08C89.4744 11 97.7304 2.84 107.906 2.84ZM116.45 21.176C116.45 16.568 112.61 12.824 107.906 12.824C103.394 12.824 99.4584 16.568 99.4584 21.176V53.624C99.4584 58.136 103.394 61.88 107.906 61.88C112.61 61.88 116.45 58.136 116.45 53.624V21.176ZM129.299 33.752C129.299 21.656 138.707 13.208 150.035 13.208H156.947V2.84H166.931V13.208H173.843C185.267 13.208 194.579 21.656 194.579 33.752C194.579 45.944 185.267 54.392 173.843 54.392H166.931V71H156.947V54.392H149.939C138.611 54.392 129.299 45.944 129.299 33.752ZM139.283 33.752C139.283 40.856 144.563 44.408 150.419 44.408H156.947V23H150.419C144.563 23 139.283 26.744 139.283 33.752ZM173.363 44.504C179.219 44.504 184.595 40.856 184.595 33.56C184.595 26.744 179.219 23 173.363 23H166.931V44.504H173.363ZM197.478 51.8V3.8H207.462V51.8C207.462 57.176 211.782 61.496 217.062 61.496C222.726 61.496 226.758 56.888 226.758 51.896V3.8H236.742V57.56C236.742 60.44 237.99 61.784 240.198 61.784H241.35V71.96H236.742C233.478 71.96 230.502 70.328 228.678 67.832C225.318 70.424 221.67 71.96 217.062 71.96C206.502 71.96 197.478 63.8 197.478 51.8ZM244.274 60.824C246.962 60.632 247.826 59.576 247.826 56.408V15.8C247.826 8.792 252.338 3.8 259.826 3.8H284.306V71H274.322V13.784H260.306C258.962 13.784 257.81 14.84 257.81 16.184V61.016C257.81 66.488 253.394 71 247.826 71H244.274V60.824ZM310.34 34.712C321.38 34.712 329.252 42.872 329.252 52.856C329.252 62.84 321.38 71 310.34 71H292.004V3.8H301.988V34.712H310.34ZM310.34 61.016C315.236 61.016 319.268 57.944 319.268 52.856C319.268 47.96 315.236 44.696 310.34 44.696H301.988V61.016H310.34ZM359.039 71V3.8H386.399C393.215 3.8 397.823 8.504 397.823 14.84V71H387.839V17.72C387.839 15.512 386.591 13.784 383.999 13.784H369.023V71H359.039ZM422.498 2.84C432.866 2.84 441.026 11 441.026 21.08V53.72C441.026 63.704 432.866 71.96 422.498 71.96C412.322 71.96 404.066 63.704 404.066 53.72V21.08C404.066 11 412.322 2.84 422.498 2.84ZM431.042 21.176C431.042 16.568 427.202 12.824 422.498 12.824C417.986 12.824 414.05 16.568 414.05 21.176V53.624C414.05 58.136 417.986 61.88 422.498 61.88C427.202 61.88 431.042 58.136 431.042 53.624V21.176ZM445.331 60.824C448.019 60.632 448.883 59.576 448.883 56.408V15.8C448.883 8.792 453.395 3.8 460.883 3.8H485.363V71H475.379V13.784H461.363C460.019 13.784 458.867 14.84 458.867 16.184V61.016C458.867 66.488 454.451 71 448.883 71H445.331V60.824ZM511.397 34.712C522.437 34.712 530.309 42.872 530.309 52.856C530.309 62.84 522.437 71 511.397 71H493.061V3.8H503.045V34.712H511.397ZM511.397 61.016C516.293 61.016 520.325 57.944 520.325 52.856C520.325 47.96 516.293 44.696 511.397 44.696H503.045V61.016H511.397ZM560.261 37.4C565.541 40.76 568.997 46.712 568.997 53.24C568.997 63.224 560.933 72.056 550.853 72.056C540.869 72.056 532.709 63.224 532.709 53.24H542.693C542.693 57.752 546.341 61.592 550.853 61.592C555.365 61.592 559.013 57.752 559.013 53.24C559.013 48.728 555.365 45.272 550.853 45.272V29.048C555.365 29.048 559.013 25.4 559.013 20.888C559.013 16.376 555.365 12.728 550.853 12.728C546.341 12.728 542.693 16.376 542.693 20.888H532.709C532.709 10.904 540.869 2.744 550.853 2.744C560.933 2.744 568.997 10.904 568.997 20.888C568.997 27.512 565.541 34.04 560.261 37.4ZM592.755 2.84C603.123 2.84 611.283 11 611.283 21.08V53.72C611.283 63.704 603.123 71.96 592.755 71.96C582.579 71.96 574.323 63.704 574.323 53.72V21.08C574.323 11 582.579 2.84 592.755 2.84ZM601.299 21.176C601.299 16.568 597.459 12.824 592.755 12.824C588.243 12.824 584.307 16.568 584.307 21.176V53.624C584.307 58.136 588.243 61.88 592.755 61.88C597.459 61.88 601.299 58.136 601.299 53.624V21.176ZM636.9 61.016C642.18 61.016 646.212 57.272 646.212 51.512C646.212 45.368 642.18 41.816 636.9 41.816H627.972V61.016H636.9ZM637.092 31.736C642.18 31.736 646.212 28.376 646.212 22.52C646.212 17.144 642.18 13.784 637.092 13.784H627.972V31.736H637.092ZM637.476 71H617.988V3.8H637.668C648.132 3.8 656.1 11.768 656.292 22.328C656.388 28.376 653.796 33.08 649.572 36.44C653.892 39.896 656.388 46.04 656.292 52.184C656.1 62.648 647.94 71 637.476 71ZM681.864 71.96C670.632 71.96 661.608 62.936 661.608 51.8C661.608 40.664 670.632 31.64 681.864 31.64C684.456 31.64 687.048 32.216 689.448 33.176V20.504C689.448 15.896 685.8 12.632 681.384 12.632C676.968 12.632 673.704 16.28 673.32 20.504L673.224 21.656H663.24V20.504C663.24 10.52 671.784 2.84 681.384 2.84C691.08 2.84 699.432 9.65599 699.432 20.12V57.368C699.432 59.864 700.68 60.824 702.888 60.824H704.04V71H699.528C696.84 71 694.44 69.944 692.808 68.312C690.12 70.52 686.088 71.96 681.864 71.96ZM681.864 62.072C684.84 62.072 687.528 60.728 689.448 58.616V44.984C687.528 42.872 684.84 41.528 681.864 41.528C676.2 41.528 671.592 46.136 671.592 51.8C671.592 57.464 676.2 62.072 681.864 62.072ZM742.904 3.8V13.784H729.944V71H719.96V13.784H706.904V3.8H742.904ZM765.254 71.96C755.174 71.96 747.206 63.512 747.206 53.144V21.944C747.206 11.384 755.75 2.84 765.926 2.84C776.102 2.84 784.166 11.384 784.166 21.944V43.544H757.19V53.144C757.19 58.04 760.55 62.072 765.254 62.072C769.19 62.072 772.358 59.384 773.51 55.832H783.494C782.15 64.952 774.374 71.96 765.254 71.96ZM757.19 33.56H774.182V21.752C774.182 16.856 770.438 12.824 765.734 12.824C761.03 12.824 757.19 16.856 757.19 21.752V33.56ZM788.002 60.824C790.69 60.632 791.554 59.576 791.554 56.408V15.8C791.554 8.792 796.066 3.8 803.554 3.8H828.034V71H818.05V13.784H804.034C802.69 13.784 801.538 14.84 801.538 16.184V61.016C801.538 66.488 797.122 71 791.554 71H788.002V60.824ZM847.348 39.896C839.86 37.592 834.388 30.584 834.388 22.232C834.388 12.056 842.644 3.8 852.724 3.8H871.924V71H861.94V41.528H857.14L845.044 71H834.292L847.348 39.896ZM844.372 22.616C844.372 27.512 848.404 31.544 853.3 31.544H862.228V13.784H853.3C848.404 13.784 844.372 17.72 844.372 22.616Z"/>
</mask>
<path d="M2.11812 71H0.118115V73H2.11812V71ZM2.11812 3.8V1.8H0.118115V3.8H2.11812ZM40.9021 71V73H42.9021V71H40.9021ZM30.9181 71H28.9181V73H30.9181V71ZM12.1021 13.784V11.784H10.1021V13.784H12.1021ZM12.1021 71V73H14.1021V71H12.1021ZM2.11812 71H4.11812V3.8H2.11812H0.118115V71H2.11812ZM2.11812 3.8V5.8H29.4781V3.8V1.8H2.11812V3.8ZM29.4781 3.8V5.8C32.4142 5.8 34.7504 6.80527 36.3448 8.37097C37.9394 9.9369 38.9021 12.1704 38.9021 14.84H40.9021H42.9021C42.9021 11.1736 41.5609 7.8871 39.1475 5.51702C36.7338 3.14672 33.358 1.8 29.4781 1.8V3.8ZM40.9021 14.84H38.9021V71H40.9021H42.9021V14.84H40.9021ZM40.9021 71V69H30.9181V71V73H40.9021V71ZM30.9181 71H32.9181V17.72H30.9181H28.9181V71H30.9181ZM30.9181 17.72H32.9181C32.9181 16.256 32.5031 14.751 31.458 13.5875C30.3825 12.3902 28.845 11.784 27.0781 11.784V13.784V15.784C27.9032 15.784 28.2858 16.0418 28.4823 16.2605C28.7091 16.513 28.9181 16.976 28.9181 17.72H30.9181ZM27.0781 13.784V11.784H12.1021V13.784V15.784H27.0781V13.784ZM12.1021 13.784H10.1021V71H12.1021H14.1021V13.784H12.1021ZM12.1021 71V69H2.11812V71V73H12.1021V71ZM58.0884 41.432V39.432H56.0884V41.432H58.0884ZM58.0884 71V73H60.0884V71H58.0884ZM48.1044 71H46.1044V73H48.1044V71ZM48.1044 3.704V1.704H46.1044V3.704H48.1044ZM58.0884 13.688V11.688H56.0884V13.688H58.0884ZM58.0884 31.448H56.0884V33.448H58.0884V31.448ZM66.7284 3.704V5.704C76.0878 5.704 83.6404 13.2566 83.6404 22.616H85.6404H87.6404C87.6404 11.0474 78.2969 1.704 66.7284 1.704V3.704ZM85.6404 22.616H83.6404C83.6404 31.8728 76.0944 39.432 66.7284 39.432V41.432V43.432C78.2903 43.432 87.6404 34.0952 87.6404 22.616H85.6404ZM66.7284 41.432V39.432H58.0884V41.432V43.432H66.7284V41.432ZM58.0884 41.432H56.0884V71H58.0884H60.0884V41.432H58.0884ZM58.0884 71V69H48.1044V71V73H58.0884V71ZM48.1044 71H50.1044V3.704H48.1044H46.1044V71H48.1044ZM48.1044 3.704V5.704H66.7284V3.704V1.704H48.1044V3.704ZM66.7284 31.448V33.448C72.7007 33.448 77.6564 28.6446 77.6564 22.616H75.6564H73.6564C73.6564 26.3794 70.548 29.448 66.7284 29.448V31.448ZM75.6564 22.616H77.6564C77.6564 16.5054 72.7149 11.688 66.7284 11.688V13.688V15.688C70.5338 15.688 73.6564 18.7426 73.6564 22.616H75.6564ZM66.7284 13.688V11.688H58.0884V13.688V15.688H66.7284V13.688ZM58.0884 13.688H56.0884V31.448H58.0884H60.0884V13.688H58.0884ZM58.0884 31.448V33.448H66.7284V31.448V29.448H58.0884V31.448ZM107.906 2.84V4.84C117.19 4.84 124.434 12.125 124.434 21.08H126.434H128.434C128.434 9.87503 119.358 0.839996 107.906 0.839996V2.84ZM126.434 21.08H124.434V53.72H126.434H128.434V21.08H126.434ZM126.434 53.72H124.434C124.434 62.5858 117.183 69.96 107.906 69.96V71.96V73.96C119.365 73.96 128.434 64.8222 128.434 53.72H126.434ZM107.906 71.96V69.96C98.8213 69.96 91.4744 62.5858 91.4744 53.72H89.4744H87.4744C87.4744 64.8222 96.6394 73.96 107.906 73.96V71.96ZM89.4744 53.72H91.4744V21.08H89.4744H87.4744V53.72H89.4744ZM89.4744 21.08H91.4744C91.4744 12.125 98.8144 4.84 107.906 4.84V2.84V0.839996C96.6463 0.839996 87.4744 9.87503 87.4744 21.08H89.4744ZM116.45 21.176H118.45C118.45 15.4193 113.67 10.824 107.906 10.824V12.824V14.824C111.55 14.824 114.45 17.7167 114.45 21.176H116.45ZM107.906 12.824V10.824C102.334 10.824 97.4584 15.4193 97.4584 21.176H99.4584H101.458C101.458 17.7167 104.454 14.824 107.906 14.824V12.824ZM99.4584 21.176H97.4584V53.624H99.4584H101.458V21.176H99.4584ZM99.4584 53.624H97.4584C97.4584 59.2995 102.35 63.88 107.906 63.88V61.88V59.88C104.439 59.88 101.458 56.9725 101.458 53.624H99.4584ZM107.906 61.88V63.88C113.655 63.88 118.45 59.2995 118.45 53.624H116.45H114.45C114.45 56.9725 111.566 59.88 107.906 59.88V61.88ZM116.45 53.624H118.45V21.176H116.45H114.45V53.624H116.45ZM156.947 13.208V15.208H158.947V13.208H156.947ZM156.947 2.84V0.839996H154.947V2.84H156.947ZM166.931 2.84H168.931V0.839996H166.931V2.84ZM166.931 13.208H164.931V15.208H166.931V13.208ZM166.931 54.392V52.392H164.931V54.392H166.931ZM166.931 71V73H168.931V71H166.931ZM156.947 71H154.947V73H156.947V71ZM156.947 54.392H158.947V52.392H156.947V54.392ZM156.947 44.408V46.408H158.947V44.408H156.947ZM156.947 23H158.947V21H156.947V23ZM166.931 23V21H164.931V23H166.931ZM166.931 44.504H164.931V46.504H166.931V44.504ZM129.299 33.752H131.299C131.299 22.8333 139.738 15.208 150.035 15.208V13.208V11.208C137.677 11.208 127.299 20.4787 127.299 33.752H129.299ZM150.035 13.208V15.208H156.947V13.208V11.208H150.035V13.208ZM156.947 13.208H158.947V2.84H156.947H154.947V13.208H156.947ZM156.947 2.84V4.84H166.931V2.84V0.839996H156.947V2.84ZM166.931 2.84H164.931V13.208H166.931H168.931V2.84H166.931ZM166.931 13.208V15.208H173.843V13.208V11.208H166.931V13.208ZM173.843 13.208V15.208C184.231 15.208 192.579 22.8274 192.579 33.752H194.579H196.579C196.579 20.4846 186.304 11.208 173.843 11.208V13.208ZM194.579 33.752H192.579C192.579 44.7787 184.225 52.392 173.843 52.392V54.392V56.392C186.31 56.392 196.579 47.1093 196.579 33.752H194.579ZM173.843 54.392V52.392H166.931V54.392V56.392H173.843V54.392ZM166.931 54.392H164.931V71H166.931H168.931V54.392H166.931ZM166.931 71V69H156.947V71V73H166.931V71ZM156.947 71H158.947V54.392H156.947H154.947V71H156.947ZM156.947 54.392V52.392H149.939V54.392V56.392H156.947V54.392ZM149.939 54.392V52.392C139.66 52.392 131.299 44.7847 131.299 33.752H129.299H127.299C127.299 47.1033 137.562 56.392 149.939 56.392V54.392ZM139.283 33.752H137.283C137.283 37.8431 138.825 41.0741 141.347 43.2563C143.828 45.4037 147.105 46.408 150.419 46.408V44.408V42.408C147.877 42.408 145.587 41.6363 143.964 40.2317C142.382 38.8619 141.283 36.7649 141.283 33.752H139.283ZM150.419 44.408V46.408H156.947V44.408V42.408H150.419V44.408ZM156.947 44.408H158.947V23H156.947H154.947V44.408H156.947ZM156.947 23V21H150.419V23V25H156.947V23ZM150.419 23V21C147.079 21 143.802 22.0673 141.332 24.2488C138.828 26.46 137.283 29.7046 137.283 33.752H139.283H141.283C141.283 30.7914 142.379 28.66 143.979 27.2472C145.613 25.8047 147.903 25 150.419 25V23ZM173.363 44.504V46.504C176.69 46.504 179.994 45.4686 182.495 43.2705C185.035 41.0394 186.595 37.7405 186.595 33.56H184.595H182.595C182.595 36.6755 181.468 38.8486 179.855 40.2655C178.205 41.7154 175.893 42.504 173.363 42.504V44.504ZM184.595 33.56H186.595C186.595 29.5789 185.005 26.3824 182.481 24.2086C179.992 22.0655 176.701 21 173.363 21V23V25C175.882 25 178.206 25.8065 179.87 27.2394C181.498 28.6416 182.595 30.7251 182.595 33.56H184.595ZM173.363 23V21H166.931V23V25H173.363V23ZM166.931 23H164.931V44.504H166.931H168.931V23H166.931ZM166.931 44.504V46.504H173.363V44.504V42.504H166.931V44.504ZM197.478 3.8V1.8H195.478V3.8H197.478ZM207.462 3.8H209.462V1.8H207.462V3.8ZM226.758 3.8V1.8H224.758V3.8H226.758ZM236.742 3.8H238.742V1.8H236.742V3.8ZM241.35 61.784H243.35V59.784H241.35V61.784ZM241.35 71.96V73.96H243.35V71.96H241.35ZM228.678 67.832L230.293 66.652L229.082 64.9947L227.457 66.2484L228.678 67.832ZM197.478 51.8H199.478V3.8H197.478H195.478V51.8H197.478ZM197.478 3.8V5.8H207.462V3.8V1.8H197.478V3.8ZM207.462 3.8H205.462V51.8H207.462H209.462V3.8H207.462ZM207.462 51.8H205.462C205.462 58.2676 210.665 63.496 217.062 63.496V61.496V59.496C212.9 59.496 209.462 56.0844 209.462 51.8H207.462ZM217.062 61.496V63.496C223.895 63.496 228.758 57.9272 228.758 51.896H226.758H224.758C224.758 55.8488 221.557 59.496 217.062 59.496V61.496ZM226.758 51.896H228.758V3.8H226.758H224.758V51.896H226.758ZM226.758 3.8V5.8H236.742V3.8V1.8H226.758V3.8ZM236.742 3.8H234.742V57.56H236.742H238.742V3.8H236.742ZM236.742 57.56H234.742C234.742 59.2454 235.101 60.8437 236.114 62.0427C237.179 63.303 238.674 63.784 240.198 63.784V61.784V59.784C239.515 59.784 239.281 59.593 239.17 59.4613C239.007 59.2683 238.742 58.7546 238.742 57.56H236.742ZM240.198 61.784V63.784H241.35V61.784V59.784H240.198V61.784ZM241.35 61.784H239.35V71.96H241.35H243.35V61.784H241.35ZM241.35 71.96V69.96H236.742V71.96V73.96H241.35V71.96ZM236.742 71.96V69.96C234.149 69.96 231.76 68.6596 230.293 66.652L228.678 67.832L227.063 69.012C229.244 71.9964 232.807 73.96 236.742 73.96V71.96ZM228.678 67.832L227.457 66.2484C224.384 68.6183 221.156 69.96 217.062 69.96V71.96V73.96C222.185 73.96 226.252 72.2297 229.9 69.4156L228.678 67.832ZM217.062 71.96V69.96C207.588 69.96 199.478 62.6764 199.478 51.8H197.478H195.478C195.478 64.9236 205.417 73.96 217.062 73.96V71.96ZM244.274 60.824L244.132 58.8291L242.274 58.9618V60.824H244.274ZM284.306 3.8H286.306V1.8H284.306V3.8ZM284.306 71V73H286.306V71H284.306ZM274.322 71H272.322V73H274.322V71ZM274.322 13.784H276.322V11.784H274.322V13.784ZM244.274 71H242.274V73H244.274V71ZM244.274 60.824L244.417 62.8189C245.932 62.7107 247.531 62.3313 248.615 60.988C249.629 59.7318 249.826 58.0585 249.826 56.408H247.826H245.826C245.826 57.9255 245.592 58.3642 245.502 58.476C245.482 58.5007 245.304 58.7453 244.132 58.8291L244.274 60.824ZM247.826 56.408H249.826V15.8H247.826H245.826V56.408H247.826ZM247.826 15.8H249.826C249.826 12.7275 250.809 10.2572 252.453 8.56581C254.088 6.88343 256.542 5.8 259.826 5.8V3.8V1.8C255.622 1.8 252.077 3.21256 249.584 5.77819C247.1 8.33476 245.826 11.8645 245.826 15.8H247.826ZM259.826 3.8V5.8H284.306V3.8V1.8H259.826V3.8ZM284.306 3.8H282.306V71H284.306H286.306V3.8H284.306ZM284.306 71V69H274.322V71V73H284.306V71ZM274.322 71H276.322V13.784H274.322H272.322V71H274.322ZM274.322 13.784V11.784H260.306V13.784V15.784H274.322V13.784ZM260.306 13.784V11.784C257.961 11.784 255.81 13.6349 255.81 16.184H257.81H259.81C259.81 16.1037 259.841 16.0165 259.93 15.9319C260.024 15.8423 260.16 15.784 260.306 15.784V13.784ZM257.81 16.184H255.81V61.016H257.81H259.81V16.184H257.81ZM257.81 61.016H255.81C255.81 65.396 252.277 69 247.826 69V71V73C254.511 73 259.81 67.58 259.81 61.016H257.81ZM247.826 71V69H244.274V71V73H247.826V71ZM244.274 71H246.274V60.824H244.274H242.274V71H244.274ZM292.004 71H290.004V73H292.004V71ZM292.004 3.8V1.8H290.004V3.8H292.004ZM301.988 3.8H303.988V1.8H301.988V3.8ZM301.988 34.712H299.988V36.712H301.988V34.712ZM301.988 44.696V42.696H299.988V44.696H301.988ZM301.988 61.016H299.988V63.016H301.988V61.016ZM310.34 34.712V36.712C320.31 36.712 327.252 44.0105 327.252 52.856H329.252H331.252C331.252 41.7335 322.451 32.712 310.34 32.712V34.712ZM329.252 52.856H327.252C327.252 61.7015 320.31 69 310.34 69V71V73C322.451 73 331.252 63.9785 331.252 52.856H329.252ZM310.34 71V69H292.004V71V73H310.34V71ZM292.004 71H294.004V3.8H292.004H290.004V71H292.004ZM292.004 3.8V5.8H301.988V3.8V1.8H292.004V3.8ZM301.988 3.8H299.988V34.712H301.988H303.988V3.8H301.988ZM301.988 34.712V36.712H310.34V34.712V32.712H301.988V34.712ZM310.34 61.016V63.016C313.195 63.016 315.914 62.1199 317.95 60.3554C320.015 58.5656 321.268 55.971 321.268 52.856H319.268H317.268C317.268 54.829 316.505 56.3144 315.331 57.3326C314.127 58.3761 312.381 59.016 310.34 59.016V61.016ZM319.268 52.856H321.268C321.268 46.6258 316.096 42.696 310.34 42.696V44.696V46.696C314.376 46.696 317.268 49.2942 317.268 52.856H319.268ZM310.34 44.696V42.696H301.988V44.696V46.696H310.34V44.696ZM301.988 44.696H299.988V61.016H301.988H303.988V44.696H301.988ZM301.988 61.016V63.016H310.34V61.016V59.016H301.988V61.016ZM359.039 71H357.039V73H359.039V71ZM359.039 3.8V1.8H357.039V3.8H359.039ZM397.823 71V73H399.823V71H397.823ZM387.839 71H385.839V73H387.839V71ZM369.023 13.784V11.784H367.023V13.784H369.023ZM369.023 71V73H371.023V71H369.023ZM359.039 71H361.039V3.8H359.039H357.039V71H359.039ZM359.039 3.8V5.8H386.399V3.8V1.8H359.039V3.8ZM386.399 3.8V5.8C389.335 5.8 391.672 6.80527 393.266 8.37097C394.861 9.9369 395.823 12.1704 395.823 14.84H397.823H399.823C399.823 11.1736 398.482 7.8871 396.069 5.51702C393.655 3.14672 390.279 1.8 386.399 1.8V3.8ZM397.823 14.84H395.823V71H397.823H399.823V14.84H397.823ZM397.823 71V69H387.839V71V73H397.823V71ZM387.839 71H389.839V17.72H387.839H385.839V71H387.839ZM387.839 17.72H389.839C389.839 16.256 389.424 14.751 388.379 13.5875C387.304 12.3902 385.766 11.784 383.999 11.784V13.784V15.784C384.824 15.784 385.207 16.0418 385.404 16.2605C385.63 16.513 385.839 16.976 385.839 17.72H387.839ZM383.999 13.784V11.784H369.023V13.784V15.784H383.999V13.784ZM369.023 13.784H367.023V71H369.023H371.023V13.784H369.023ZM369.023 71V69H359.039V71V73H369.023V71ZM422.498 2.84V4.84C431.782 4.84 439.026 12.125 439.026 21.08H441.026H443.026C443.026 9.87503 433.95 0.839996 422.498 0.839996V2.84ZM441.026 21.08H439.026V53.72H441.026H443.026V21.08H441.026ZM441.026 53.72H439.026C439.026 62.5858 431.775 69.96 422.498 69.96V71.96V73.96C433.957 73.96 443.026 64.8222 443.026 53.72H441.026ZM422.498 71.96V69.96C413.413 69.96 406.066 62.5858 406.066 53.72H404.066H402.066C402.066 64.8222 411.231 73.96 422.498 73.96V71.96ZM404.066 53.72H406.066V21.08H404.066H402.066V53.72H404.066ZM404.066 21.08H406.066C406.066 12.125 413.406 4.84 422.498 4.84V2.84V0.839996C411.238 0.839996 402.066 9.87503 402.066 21.08H404.066ZM431.042 21.176H433.042C433.042 15.4193 428.262 10.824 422.498 10.824V12.824V14.824C426.142 14.824 429.042 17.7167 429.042 21.176H431.042ZM422.498 12.824V10.824C416.926 10.824 412.05 15.4193 412.05 21.176H414.05H416.05C416.05 17.7167 419.046 14.824 422.498 14.824V12.824ZM414.05 21.176H412.05V53.624H414.05H416.05V21.176H414.05ZM414.05 53.624H412.05C412.05 59.2995 416.941 63.88 422.498 63.88V61.88V59.88C419.03 59.88 416.05 56.9725 416.05 53.624H414.05ZM422.498 61.88V63.88C428.246 63.88 433.042 59.2995 433.042 53.624H431.042H429.042C429.042 56.9725 426.157 59.88 422.498 59.88V61.88ZM431.042 53.624H433.042V21.176H431.042H429.042V53.624H431.042ZM445.331 60.824L445.188 58.8291L443.331 58.9618V60.824H445.331ZM485.363 3.8H487.363V1.8H485.363V3.8ZM485.363 71V73H487.363V71H485.363ZM475.379 71H473.379V73H475.379V71ZM475.379 13.784H477.379V11.784H475.379V13.784ZM445.331 71H443.331V73H445.331V71ZM445.331 60.824L445.473 62.8189C446.989 62.7107 448.587 62.3313 449.671 60.988C450.685 59.7318 450.883 58.0585 450.883 56.408H448.883H446.883C446.883 57.9255 446.648 58.3642 446.558 58.476C446.538 58.5007 446.361 58.7453 445.188 58.8291L445.331 60.824ZM448.883 56.408H450.883V15.8H448.883H446.883V56.408H448.883ZM448.883 15.8H450.883C450.883 12.7275 451.865 10.2572 453.509 8.56581C455.144 6.88343 457.599 5.8 460.883 5.8V3.8V1.8C456.679 1.8 453.133 3.21256 450.64 5.77819C448.156 8.33476 446.883 11.8645 446.883 15.8H448.883ZM460.883 3.8V5.8H485.363V3.8V1.8H460.883V3.8ZM485.363 3.8H483.363V71H485.363H487.363V3.8H485.363ZM485.363 71V69H475.379V71V73H485.363V71ZM475.379 71H477.379V13.784H475.379H473.379V71H475.379ZM475.379 13.784V11.784H461.363V13.784V15.784H475.379V13.784ZM461.363 13.784V11.784C459.017 11.784 456.867 13.6349 456.867 16.184H458.867H460.867C460.867 16.1037 460.897 16.0165 460.986 15.9319C461.081 15.8423 461.216 15.784 461.363 15.784V13.784ZM458.867 16.184H456.867V61.016H458.867H460.867V16.184H458.867ZM458.867 61.016H456.867C456.867 65.396 453.334 69 448.883 69V71V73C455.568 73 460.867 67.58 460.867 61.016H458.867ZM448.883 71V69H445.331V71V73H448.883V71ZM445.331 71H447.331V60.824H445.331H443.331V71H445.331ZM493.061 71H491.061V73H493.061V71ZM493.061 3.8V1.8H491.061V3.8H493.061ZM503.045 3.8H505.045V1.8H503.045V3.8ZM503.045 34.712H501.045V36.712H503.045V34.712ZM503.045 44.696V42.696H501.045V44.696H503.045ZM503.045 61.016H501.045V63.016H503.045V61.016ZM511.397 34.712V36.712C521.366 36.712 528.309 44.0105 528.309 52.856H530.309H532.309C532.309 41.7335 523.507 32.712 511.397 32.712V34.712ZM530.309 52.856H528.309C528.309 61.7015 521.366 69 511.397 69V71V73C523.507 73 532.309 63.9785 532.309 52.856H530.309ZM511.397 71V69H493.061V71V73H511.397V71ZM493.061 71H495.061V3.8H493.061H491.061V71H493.061ZM493.061 3.8V5.8H503.045V3.8V1.8H493.061V3.8ZM503.045 3.8H501.045V34.712H503.045H505.045V3.8H503.045ZM503.045 34.712V36.712H511.397V34.712V32.712H503.045V34.712ZM511.397 61.016V63.016C514.252 63.016 516.97 62.1199 519.006 60.3554C521.072 58.5656 522.325 55.971 522.325 52.856H520.325H518.325C518.325 54.829 517.562 56.3144 516.387 57.3326C515.183 58.3761 513.438 59.016 511.397 59.016V61.016ZM520.325 52.856H522.325C522.325 46.6258 517.153 42.696 511.397 42.696V44.696V46.696C515.433 46.696 518.325 49.2942 518.325 52.856H520.325ZM511.397 44.696V42.696H503.045V44.696V46.696H511.397V44.696ZM503.045 44.696H501.045V61.016H503.045H505.045V44.696H503.045ZM503.045 61.016V63.016H511.397V61.016V59.016H503.045V61.016ZM560.261 37.4L559.188 35.7127L556.536 37.4L559.188 39.0873L560.261 37.4ZM532.709 53.24V51.24H530.709V53.24H532.709ZM542.693 53.24H544.693V51.24H542.693V53.24ZM550.853 45.272H548.853V47.272H550.853V45.272ZM550.853 29.048V27.048H548.853V29.048H550.853ZM542.693 20.888V22.888H544.693V20.888H542.693ZM532.709 20.888H530.709V22.888H532.709V20.888ZM560.261 37.4L559.188 39.0873C563.912 42.0935 566.997 47.4201 566.997 53.24H568.997H570.997C570.997 46.0039 567.171 39.4265 561.335 35.7127L560.261 37.4ZM568.997 53.24H566.997C566.997 62.2216 559.729 70.056 550.853 70.056V72.056V74.056C562.137 74.056 570.997 64.2264 570.997 53.24H568.997ZM550.853 72.056V70.056C542.067 70.056 534.709 62.2145 534.709 53.24H532.709H530.709C530.709 64.2335 539.672 74.056 550.853 74.056V72.056ZM532.709 53.24V55.24H542.693V53.24V51.24H532.709V53.24ZM542.693 53.24H540.693C540.693 58.7958 545.177 63.592 550.853 63.592V61.592V59.592C547.506 59.592 544.693 56.7082 544.693 53.24H542.693ZM550.853 61.592V63.592C556.53 63.592 561.013 58.7958 561.013 53.24H559.013H557.013C557.013 56.7082 554.201 59.592 550.853 59.592V61.592ZM559.013 53.24H561.013C561.013 47.5616 556.407 43.272 550.853 43.272V45.272V47.272C554.324 47.272 557.013 49.8944 557.013 53.24H559.013ZM550.853 45.272H552.853V29.048H550.853H548.853V45.272H550.853ZM550.853 29.048V31.048C556.47 31.048 561.013 26.5046 561.013 20.888H559.013H557.013C557.013 24.2954 554.261 27.048 550.853 27.048V29.048ZM559.013 20.888H561.013C561.013 15.2714 556.47 10.728 550.853 10.728V12.728V14.728C554.261 14.728 557.013 17.4806 557.013 20.888H559.013ZM550.853 12.728V10.728C545.237 10.728 540.693 15.2714 540.693 20.888H542.693H544.693C544.693 17.4806 547.446 14.728 550.853 14.728V12.728ZM542.693 20.888V18.888H532.709V20.888V22.888H542.693V20.888ZM532.709 20.888H534.709C534.709 12.0086 541.974 4.744 550.853 4.744V2.744V0.743998C539.765 0.743998 530.709 9.79943 530.709 20.888H532.709ZM550.853 2.744V4.744C559.822 4.744 566.997 12.0017 566.997 20.888H568.997H570.997C570.997 9.80633 562.045 0.743998 550.853 0.743998V2.744ZM568.997 20.888H566.997C566.997 26.8755 563.852 32.7445 559.188 35.7127L560.261 37.4L561.335 39.0873C567.231 35.3355 570.997 28.1485 570.997 20.888H568.997ZM592.755 2.84V4.84C602.039 4.84 609.283 12.125 609.283 21.08H611.283H613.283C613.283 9.87503 604.207 0.839996 592.755 0.839996V2.84ZM611.283 21.08H609.283V53.72H611.283H613.283V21.08H611.283ZM611.283 53.72H609.283C609.283 62.5858 602.032 69.96 592.755 69.96V71.96V73.96C604.214 73.96 613.283 64.8222 613.283 53.72H611.283ZM592.755 71.96V69.96C583.67 69.96 576.323 62.5858 576.323 53.72H574.323H572.323C572.323 64.8222 581.488 73.96 592.755 73.96V71.96ZM574.323 53.72H576.323V21.08H574.323H572.323V53.72H574.323ZM574.323 21.08H576.323C576.323 12.125 583.663 4.84 592.755 4.84V2.84V0.839996C581.495 0.839996 572.323 9.87503 572.323 21.08H574.323ZM601.299 21.176H603.299C603.299 15.4193 598.519 10.824 592.755 10.824V12.824V14.824C596.399 14.824 599.299 17.7167 599.299 21.176H601.299ZM592.755 12.824V10.824C587.183 10.824 582.307 15.4193 582.307 21.176H584.307H586.307C586.307 17.7167 589.303 14.824 592.755 14.824V12.824ZM584.307 21.176H582.307V53.624H584.307H586.307V21.176H584.307ZM584.307 53.624H582.307C582.307 59.2995 587.198 63.88 592.755 63.88V61.88V59.88C589.288 59.88 586.307 56.9725 586.307 53.624H584.307ZM592.755 61.88V63.88C598.504 63.88 603.299 59.2995 603.299 53.624H601.299H599.299C599.299 56.9725 596.414 59.88 592.755 59.88V61.88ZM601.299 53.624H603.299V21.176H601.299H599.299V53.624H601.299ZM627.972 41.816V39.816H625.972V41.816H627.972ZM627.972 61.016H625.972V63.016H627.972V61.016ZM627.972 13.784V11.784H625.972V13.784H627.972ZM627.972 31.736H625.972V33.736H627.972V31.736ZM617.988 71H615.988V73H617.988V71ZM617.988 3.8V1.8H615.988V3.8H617.988ZM656.292 22.328L658.292 22.2963L658.292 22.2916L656.292 22.328ZM649.572 36.44L648.327 34.8748L646.365 36.4355L648.323 38.0017L649.572 36.44ZM656.292 52.184L658.292 52.2207L658.292 52.2152L656.292 52.184ZM636.9 61.016V63.016C640.021 63.016 642.871 61.903 644.945 59.8433C647.025 57.7781 648.212 54.8751 648.212 51.512H646.212H644.212C644.212 53.9089 643.383 55.7579 642.127 57.0047C640.866 58.257 639.059 59.016 636.9 59.016V61.016ZM646.212 51.512H648.212C648.212 47.9883 647.045 45.0258 644.945 42.9407C642.852 40.863 639.993 39.816 636.9 39.816V41.816V43.816C639.087 43.816 640.884 44.545 642.127 45.7793C643.363 47.0062 644.212 48.8917 644.212 51.512H646.212ZM636.9 41.816V39.816H627.972V41.816V43.816H636.9V41.816ZM627.972 41.816H625.972V61.016H627.972H629.972V41.816H627.972ZM627.972 61.016V63.016H636.9V61.016V59.016H627.972V61.016ZM637.092 31.736V33.736C640.075 33.736 642.875 32.7466 644.942 30.7695C647.025 28.7776 648.212 25.9291 648.212 22.52H646.212H644.212C644.212 24.9668 643.383 26.7264 642.178 27.8785C640.958 29.0454 639.197 29.736 637.092 29.736V31.736ZM646.212 22.52H648.212C648.212 19.3017 646.991 16.5739 644.914 14.6639C642.856 12.7711 640.073 11.784 637.092 11.784V13.784V15.784C639.199 15.784 640.976 16.4769 642.206 17.6081C643.417 18.7221 644.212 20.3623 644.212 22.52H646.212ZM637.092 13.784V11.784H627.972V13.784V15.784H637.092V13.784ZM627.972 13.784H625.972V31.736H627.972H629.972V13.784H627.972ZM627.972 31.736V33.736H637.092V31.736V29.736H627.972V31.736ZM637.476 71V69H617.988V71V73H637.476V71ZM617.988 71H619.988V3.8H617.988H615.988V71H617.988ZM617.988 3.8V5.8H637.668V3.8V1.8H617.988V3.8ZM637.668 3.8V5.8C647.015 5.8 654.12 12.8673 654.292 22.3644L656.292 22.328L658.292 22.2916C658.08 10.6687 649.25 1.8 637.668 1.8V3.8ZM656.292 22.328L654.292 22.3597C654.378 27.7344 652.108 31.8671 648.327 34.8748L649.572 36.44L650.817 38.0052C655.484 34.2929 658.399 29.0176 658.292 22.2963L656.292 22.328ZM649.572 36.44L648.323 38.0017C652.067 40.9973 654.381 46.4982 654.292 52.1528L656.292 52.184L658.292 52.2152C658.396 45.5818 655.717 38.7947 650.822 34.8783L649.572 36.44ZM656.292 52.184L654.292 52.1473C654.12 61.5691 646.803 69 637.476 69V71V73C649.078 73 658.081 63.7269 658.292 52.2207L656.292 52.184ZM689.448 33.176L688.705 35.033L691.448 36.1301V33.176H689.448ZM673.32 20.504L671.328 20.3229L671.328 20.3304L671.327 20.3379L673.32 20.504ZM673.224 21.656V23.656H675.064L675.217 21.8221L673.224 21.656ZM663.24 21.656H661.24V23.656H663.24V21.656ZM704.04 60.824H706.04V58.824H704.04V60.824ZM704.04 71V73H706.04V71H704.04ZM692.808 68.312L694.222 66.8978L692.94 65.6154L691.539 66.7665L692.808 68.312ZM689.448 58.616L690.928 59.9613L691.448 59.3892V58.616H689.448ZM689.448 44.984H691.448V44.2108L690.928 43.6387L689.448 44.984ZM681.864 71.96V69.96C671.73 69.96 663.608 61.8252 663.608 51.8H661.608H659.608C659.608 64.0468 669.534 73.96 681.864 73.96V71.96ZM661.608 51.8H663.608C663.608 41.7748 671.73 33.64 681.864 33.64V31.64V29.64C669.534 29.64 659.608 39.5532 659.608 51.8H661.608ZM681.864 31.64V33.64C684.164 33.64 686.504 34.1524 688.705 35.033L689.448 33.176L690.191 31.319C687.592 30.2796 684.748 29.64 681.864 29.64V31.64ZM689.448 33.176H691.448V20.504H689.448H687.448V33.176H689.448ZM689.448 20.504H691.448C691.448 14.6976 686.808 10.632 681.384 10.632V12.632V14.632C684.792 14.632 687.448 17.0944 687.448 20.504H689.448ZM681.384 12.632V10.632C675.745 10.632 671.788 15.2676 671.328 20.3229L673.32 20.504L675.312 20.6851C675.62 17.2924 678.191 14.632 681.384 14.632V12.632ZM673.32 20.504L671.327 20.3379L671.231 21.4899L673.224 21.656L675.217 21.8221L675.313 20.6701L673.32 20.504ZM673.224 21.656V19.656H663.24V21.656V23.656H673.224V21.656ZM663.24 21.656H665.24V20.504H663.24H661.24V21.656H663.24ZM663.24 20.504H665.24C665.24 11.7207 672.79 4.84 681.384 4.84V2.84V0.839996C670.778 0.839996 661.24 9.3193 661.24 20.504H663.24ZM681.384 2.84V4.84C690.151 4.84 697.432 10.9285 697.432 20.12H699.432H701.432C701.432 8.38345 692.009 0.839996 681.384 0.839996V2.84ZM699.432 20.12H697.432V57.368H699.432H701.432V20.12H699.432ZM699.432 57.368H697.432C697.432 58.923 697.823 60.4198 698.963 61.4901C700.079 62.5372 701.541 62.824 702.888 62.824V60.824V58.824C702.027 58.824 701.762 58.6308 701.701 58.5739C701.665 58.5402 701.432 58.309 701.432 57.368H699.432ZM702.888 60.824V62.824H704.04V60.824V58.824H702.888V60.824ZM704.04 60.824H702.04V71H704.04H706.04V60.824H704.04ZM704.04 71V69H699.528V71V73H704.04V71ZM699.528 71V69C697.361 69 695.473 68.1483 694.222 66.8978L692.808 68.312L691.394 69.7262C693.407 71.7397 696.319 73 699.528 73V71ZM692.808 68.312L691.539 66.7665C689.243 68.652 685.672 69.96 681.864 69.96V71.96V73.96C686.504 73.96 690.997 72.388 694.078 69.8575L692.808 68.312ZM681.864 62.072V64.072C685.462 64.072 688.67 62.4447 690.928 59.9613L689.448 58.616L687.968 57.2707C686.386 59.0113 684.218 60.072 681.864 60.072V62.072ZM689.448 58.616H691.448V44.984H689.448H687.448V58.616H689.448ZM689.448 44.984L690.928 43.6387C688.67 41.1553 685.462 39.528 681.864 39.528V41.528V43.528C684.218 43.528 686.386 44.5887 687.968 46.3293L689.448 44.984ZM681.864 41.528V39.528C675.096 39.528 669.592 45.0314 669.592 51.8H671.592H673.592C673.592 47.2406 677.305 43.528 681.864 43.528V41.528ZM671.592 51.8H669.592C669.592 58.5686 675.096 64.072 681.864 64.072V62.072V60.072C677.305 60.072 673.592 56.3594 673.592 51.8H671.592ZM742.904 3.8H744.904V1.8H742.904V3.8ZM742.904 13.784V15.784H744.904V13.784H742.904ZM729.944 13.784V11.784H727.944V13.784H729.944ZM729.944 71V73H731.944V71H729.944ZM719.96 71H717.96V73H719.96V71ZM719.96 13.784H721.96V11.784H719.96V13.784ZM706.904 13.784H704.904V15.784H706.904V13.784ZM706.904 3.8V1.8H704.904V3.8H706.904ZM742.904 3.8H740.904V13.784H742.904H744.904V3.8H742.904ZM742.904 13.784V11.784H729.944V13.784V15.784H742.904V13.784ZM729.944 13.784H727.944V71H729.944H731.944V13.784H729.944ZM729.944 71V69H719.96V71V73H729.944V71ZM719.96 71H721.96V13.784H719.96H717.96V71H719.96ZM719.96 13.784V11.784H706.904V13.784V15.784H719.96V13.784ZM706.904 13.784H708.904V3.8H706.904H704.904V13.784H706.904ZM706.904 3.8V5.8H742.904V3.8V1.8H706.904V3.8ZM784.166 43.544V45.544H786.166V43.544H784.166ZM757.19 43.544V41.544H755.19V43.544H757.19ZM773.51 55.832V53.832H772.056L771.607 55.215L773.51 55.832ZM783.494 55.832L785.472 56.1236L785.81 53.832H783.494V55.832ZM757.19 33.56H755.19V35.56H757.19V33.56ZM774.182 33.56V35.56H776.182V33.56H774.182ZM765.254 71.96V69.96C756.365 69.96 749.206 62.4968 749.206 53.144H747.206H745.206C745.206 64.5272 753.982 73.96 765.254 73.96V71.96ZM747.206 53.144H749.206V21.944H747.206H745.206V53.144H747.206ZM747.206 21.944H749.206C749.206 12.4621 756.88 4.84 765.926 4.84V2.84V0.839996C754.619 0.839996 745.206 10.3059 745.206 21.944H747.206ZM765.926 2.84V4.84C774.904 4.84 782.166 12.3935 782.166 21.944H784.166H786.166C786.166 10.3745 777.299 0.839996 765.926 0.839996V2.84ZM784.166 21.944H782.166V43.544H784.166H786.166V21.944H784.166ZM784.166 43.544V41.544H757.19V43.544V45.544H784.166V43.544ZM757.19 43.544H755.19V53.144H757.19H759.19V43.544H757.19ZM757.19 53.144H755.19C755.19 58.9 759.215 64.072 765.254 64.072V62.072V60.072C761.884 60.072 759.19 57.18 759.19 53.144H757.19ZM765.254 62.072V64.072C770.168 64.072 774.029 60.7139 775.412 56.449L773.51 55.832L771.607 55.215C770.686 58.0541 768.211 60.072 765.254 60.072V62.072ZM773.51 55.832V57.832H783.494V55.832V53.832H773.51V55.832ZM783.494 55.832L781.515 55.5404C780.308 63.7305 773.331 69.96 765.254 69.96V71.96V73.96C775.417 73.96 783.991 66.1735 785.472 56.1236L783.494 55.832ZM757.19 33.56V35.56H774.182V33.56V31.56H757.19V33.56ZM774.182 33.56H776.182V21.752H774.182H772.182V33.56H774.182ZM774.182 21.752H776.182C776.182 15.8683 771.656 10.824 765.734 10.824V12.824V14.824C769.22 14.824 772.182 17.8437 772.182 21.752H774.182ZM765.734 12.824V10.824C759.84 10.824 755.19 15.8381 755.19 21.752H757.19H759.19C759.19 17.8739 762.219 14.824 765.734 14.824V12.824ZM757.19 21.752H755.19V33.56H757.19H759.19V21.752H757.19ZM788.002 60.824L787.859 58.8291L786.002 58.9618V60.824H788.002ZM828.034 3.8H830.034V1.8H828.034V3.8ZM828.034 71V73H830.034V71H828.034ZM818.05 71H816.05V73H818.05V71ZM818.05 13.784H820.05V11.784H818.05V13.784ZM788.002 71H786.002V73H788.002V71ZM788.002 60.824L788.144 62.8189C789.66 62.7107 791.258 62.3313 792.342 60.988C793.356 59.7318 793.554 58.0585 793.554 56.408H791.554H789.554C789.554 57.9255 789.32 58.3642 789.229 58.476C789.21 58.5007 789.032 58.7453 787.859 58.8291L788.002 60.824ZM791.554 56.408H793.554V15.8H791.554H789.554V56.408H791.554ZM791.554 15.8H793.554C793.554 12.7275 794.537 10.2572 796.18 8.56581C797.815 6.88343 800.27 5.8 803.554 5.8V3.8V1.8C799.35 1.8 795.805 3.21256 793.312 5.77819C790.827 8.33476 789.554 11.8645 789.554 15.8H791.554ZM803.554 3.8V5.8H828.034V3.8V1.8H803.554V3.8ZM828.034 3.8H826.034V71H828.034H830.034V3.8H828.034ZM828.034 71V69H818.05V71V73H828.034V71ZM818.05 71H820.05V13.784H818.05H816.05V71H818.05ZM818.05 13.784V11.784H804.034V13.784V15.784H818.05V13.784ZM804.034 13.784V11.784C801.689 11.784 799.538 13.6349 799.538 16.184H801.538H803.538C803.538 16.1037 803.568 16.0165 803.657 15.9319C803.752 15.8423 803.887 15.784 804.034 15.784V13.784ZM801.538 16.184H799.538V61.016H801.538H803.538V16.184H801.538ZM801.538 61.016H799.538C799.538 65.396 796.005 69 791.554 69V71V73C798.239 73 803.538 67.58 803.538 61.016H801.538ZM791.554 71V69H788.002V71V73H791.554V71ZM788.002 71H790.002V60.824H788.002H786.002V71H788.002ZM847.348 39.896L849.192 40.6701L850.047 38.6339L847.936 37.9844L847.348 39.896ZM871.924 3.8H873.924V1.8H871.924V3.8ZM871.924 71V73H873.924V71H871.924ZM861.94 71H859.94V73H861.94V71ZM861.94 41.528H863.94V39.528H861.94V41.528ZM857.14 41.528V39.528H855.799L855.29 40.7686L857.14 41.528ZM845.044 71V73H846.385L846.894 71.7594L845.044 71ZM834.292 71L832.448 70.2259L831.283 73H834.292V71ZM862.228 31.544V33.544H864.228V31.544H862.228ZM862.228 13.784H864.228V11.784H862.228V13.784ZM847.348 39.896L847.936 37.9844C841.27 35.9333 836.388 29.6879 836.388 22.232H834.388H832.388C832.388 31.4801 838.45 39.2507 846.76 41.8076L847.348 39.896ZM834.388 22.232H836.388C836.388 13.1538 843.755 5.8 852.724 5.8V3.8V1.8C841.533 1.8 832.388 10.9582 832.388 22.232H834.388ZM852.724 3.8V5.8H871.924V3.8V1.8H852.724V3.8ZM871.924 3.8H869.924V71H871.924H873.924V3.8H871.924ZM871.924 71V69H861.94V71V73H871.924V71ZM861.94 71H863.94V41.528H861.94H859.94V71H861.94ZM861.94 41.528V39.528H857.14V41.528V43.528H861.94V41.528ZM857.14 41.528L855.29 40.7686L843.194 70.2406L845.044 71L846.894 71.7594L858.99 42.2874L857.14 41.528ZM845.044 71V69H834.292V71V73H845.044V71ZM834.292 71L836.136 71.7741L849.192 40.6701L847.348 39.896L845.504 39.1219L832.448 70.2259L834.292 71ZM844.372 22.616H842.372C842.372 28.6166 847.299 33.544 853.3 33.544V31.544V29.544C849.508 29.544 846.372 26.4074 846.372 22.616H844.372ZM853.3 31.544V33.544H862.228V31.544V29.544H853.3V31.544ZM862.228 31.544H864.228V13.784H862.228H860.228V31.544H862.228ZM862.228 13.784V11.784H853.3V13.784V15.784H862.228V13.784ZM853.3 13.784V11.784C847.328 11.784 842.372 16.5874 842.372 22.616H844.372H846.372C846.372 18.8526 849.48 15.784 853.3 15.784V13.784Z" fill="#342A1E" mask="url(#path-1-outside-1_262_5)"/>
</svg>
